<svg width="20" height="20" viewBox="0 0 20 20" fill="none" xmlns="http://www.w3.org/2000/svg">
<path d="M10.1004 13.1075L6.54369 16.6642C6.33333 16.8754 6.08333 17.043 5.80805 17.1573C5.53277 17.2716 5.23761 17.3305 4.93952 17.3305C4.64144 17.3305 4.34628 17.2716 4.071 17.1573C3.79572 17.043 3.54572 16.8754 3.33536 16.6642C3.12306 16.4544 2.9545 16.2046 2.83946 15.9293C2.72442 15.6539 2.66518 15.3584 2.66518 15.06C2.66518 14.7616 2.72442 14.4661 2.83946 14.1907C2.9545 13.9154 3.12306 13.6656 3.33536 13.4558L6.89202 9.89918C7.06464 9.72657 7.16161 9.49246 7.16161 9.24835C7.16161 9.00424 7.06464 8.77013 6.89202 8.59751C6.71941 8.4249 6.4853 8.32793 6.24119 8.32793C5.99708 8.32793 5.76297 8.4249 5.59036 8.59751L2.03369 12.1633C1.31718 12.9432 0.929677 13.9698 0.952093 15.0286C0.974509 16.0874 1.40512 17.0967 2.15399 17.8455C2.90286 18.5944 3.91209 19.025 4.97092 19.0474C6.02975 19.0699 7.0563 18.6824 7.83619 17.9658L11.402 14.4092C11.5746 14.2366 11.6716 14.0025 11.6716 13.7583C11.6716 13.5142 11.5746 13.2801 11.402 13.1075C11.2294 12.9349 10.9953 12.8379 10.7512 12.8379C10.5071 12.8379 10.273 12.9349 10.1004 13.1075ZM7.09369 12.9058C7.17934 12.9908 7.28093 13.058 7.39261 13.1036C7.50429 13.1493 7.62389 13.1724 7.74452 13.1717C7.86516 13.1724 7.98475 13.1493 8.09644 13.1036C8.20812 13.058 8.30971 12.9908 8.39536 12.9058L12.9054 8.39585C13.078 8.22324 13.1749 7.98912 13.1749 7.74501C13.1749 7.5009 13.078 7.26679 12.9054 7.09418C12.7327 6.92157 12.4986 6.8246 12.2545 6.8246C12.0104 6.8246 11.7763 6.92157 11.6037 7.09418L7.09369 11.6042C7.00777 11.6894 6.93958 11.7908 6.89304 11.9025C6.8465 12.0142 6.82254 12.134 6.82254 12.255C6.82254 12.376 6.8465 12.4958 6.89304 12.6075C6.93958 12.7192 7.00777 12.8206 7.09369 12.9058ZM18.2495 15.5H17.3329V14.5833C17.3329 14.3402 17.2363 14.1071 17.0644 13.9352C16.8925 13.7633 16.6593 13.6667 16.4162 13.6667C16.1731 13.6667 15.9399 13.7633 15.768 13.9352C15.5961 14.1071 15.4995 14.3402 15.4995 14.5833V15.5H14.5829C14.3397 15.5 14.1066 15.5966 13.9347 15.7685C13.7628 15.9404 13.6662 16.1736 13.6662 16.4167C13.6662 16.6598 13.7628 16.893 13.9347 17.0649C14.1066 17.2368 14.3397 17.3333 14.5829 17.3333H15.4995V18.25C15.4995 18.4931 15.5961 18.7263 15.768 18.8982C15.9399 19.0701 16.1731 19.1667 16.4162 19.1667C16.6593 19.1667 16.8925 19.0701 17.0644 18.8982C17.2363 18.7263 17.3329 18.4931 17.3329 18.25V17.3333H18.2495C18.4926 17.3333 18.7258 17.2368 18.8977 17.0649C19.0696 16.893 19.1662 16.6598 19.1662 16.4167C19.1662 16.1736 19.0696 15.9404 18.8977 15.7685C18.7258 15.5966 18.4926 15.5 18.2495 15.5ZM14.4087 11.4025L17.9654 7.83668C18.6819 7.05679 19.0694 6.03023 19.047 4.97141C19.0245 3.91258 18.5939 2.90335 17.8451 2.15448C17.0962 1.4056 16.087 0.974997 15.0281 0.952581C13.9693 0.930165 12.9428 1.31767 12.1629 2.03418L8.59703 5.59085C8.51156 5.67631 8.44376 5.77778 8.3975 5.88945C8.35125 6.00112 8.32744 6.12081 8.32744 6.24168C8.32744 6.36255 8.35125 6.48224 8.3975 6.59391C8.44376 6.70558 8.51156 6.80704 8.59703 6.89251C8.68249 6.97798 8.78396 7.04578 8.89563 7.09203C9.0073 7.13829 9.12699 7.1621 9.24786 7.1621C9.36873 7.1621 9.48842 7.13829 9.60009 7.09203C9.71176 7.04578 9.81322 6.97798 9.89869 6.89251L13.4554 3.33585C13.6657 3.12465 13.9157 2.95707 14.191 2.84273C14.4663 2.72838 14.7614 2.66952 15.0595 2.66952C15.3576 2.66952 15.6528 2.72838 15.928 2.84273C16.2033 2.95707 16.4533 3.12465 16.6637 3.33585C16.876 3.54559 17.0445 3.79538 17.1596 4.07075C17.2746 4.34612 17.3339 4.64158 17.3339 4.94001C17.3339 5.23845 17.2746 5.53391 17.1596 5.80928C17.0445 6.08465 16.876 6.33444 16.6637 6.54418L13.107 10.1008C13.0211 10.1861 12.9529 10.2874 12.9064 10.3992C12.8598 10.5109 12.8359 10.6307 12.8359 10.7517C12.8359 10.8727 12.8598 10.9925 12.9064 11.1042C12.9529 11.2159 13.0211 11.3173 13.107 11.4025C13.1922 11.4884 13.2936 11.5566 13.4053 11.6032C13.517 11.6497 13.6368 11.6737 13.7579 11.6737C13.8789 11.6737 13.9987 11.6497 14.1104 11.6032C14.2221 11.5566 14.3235 11.4884 14.4087 11.4025Z" fill="#6E6E73"/>
</svg>
