<svg width="27" height="27" viewBox="0 0 27 27" fill="none" xmlns="http://www.w3.org/2000/svg">
<path d="M9.28125 8.4375C9.05747 8.4375 8.84286 8.5264 8.68463 8.68463C8.5264 8.84286 8.4375 9.05747 8.4375 9.28125C8.4375 9.50503 8.5264 9.71964 8.68463 9.87787C8.84286 10.0361 9.05747 10.125 9.28125 10.125H17.7188C17.9425 10.125 18.1571 10.0361 18.3154 9.87787C18.4736 9.71964 18.5625 9.50503 18.5625 9.28125C18.5625 9.05747 18.4736 8.84286 18.3154 8.68463C18.1571 8.5264 17.9425 8.4375 17.7188 8.4375H9.28125ZM9.28125 11.8125C9.05747 11.8125 8.84286 11.9014 8.68463 12.0596C8.5264 12.2179 8.4375 12.4325 8.4375 12.6562C8.4375 12.88 8.5264 13.0946 8.68463 13.2529C8.84286 13.4111 9.05747 13.5 9.28125 13.5H14.3438C14.5675 13.5 14.7821 13.4111 14.9404 13.2529C15.0986 13.0946 15.1875 12.88 15.1875 12.6562C15.1875 12.4325 15.0986 12.2179 14.9404 12.0596C14.7821 11.9014 14.5675 11.8125 14.3438 11.8125H9.28125Z" fill="#EE844F"/>
<path d="M13.5 3.375C14.3951 3.375 15.2535 3.01942 15.8865 2.38649C16.5194 1.75355 16.875 0.895106 16.875 0H21.0938C21.7651 0 22.4089 0.266684 22.8836 0.741386C23.3583 1.21609 23.625 1.85992 23.625 2.53125V24.4688C23.625 25.1401 23.3583 25.7839 22.8836 26.2586C22.4089 26.7333 21.7651 27 21.0938 27H5.90625C5.23492 27 4.59109 26.7333 4.11639 26.2586C3.64168 25.7839 3.375 25.1401 3.375 24.4688V2.53125C3.375 1.85992 3.64168 1.21609 4.11639 0.741386C4.59109 0.266684 5.23492 0 5.90625 0L10.125 0C10.125 0.895106 10.4806 1.75355 11.1135 2.38649C11.7464 3.01942 12.6049 3.375 13.5 3.375ZM13.5 5.0625C12.4527 5.06305 11.4309 4.73874 10.5756 4.13428C9.72028 3.52982 9.07349 2.67495 8.72438 1.6875H5.90625C5.68247 1.6875 5.46786 1.77639 5.30963 1.93463C5.15139 2.09286 5.0625 2.30747 5.0625 2.53125V24.4688C5.0625 24.6925 5.15139 24.9071 5.30963 25.0654C5.46786 25.2236 5.68247 25.3125 5.90625 25.3125H21.0938C21.3175 25.3125 21.5321 25.2236 21.6904 25.0654C21.8486 24.9071 21.9375 24.6925 21.9375 24.4688V2.53125C21.9375 2.30747 21.8486 2.09286 21.6904 1.93463C21.5321 1.77639 21.3175 1.6875 21.0938 1.6875H18.2756C17.9265 2.67495 17.2797 3.52982 16.4244 4.13428C15.5691 4.73874 14.5473 5.06305 13.5 5.0625Z" fill="#EE844F"/>
</svg>
