<svg width="20" height="20" viewBox="0 0 20 20" fill="none" xmlns="http://www.w3.org/2000/svg">
<path d="M15.25 5.87502H14.29L14.05 5.12502C13.8944 4.68494 13.6058 4.30414 13.2242 4.03539C12.8425 3.76663 12.3868 3.62322 11.92 3.62502H8.08C7.60866 3.6259 7.1495 3.77478 6.76732 4.05065C6.38515 4.32651 6.09926 4.71543 5.95 5.16252L5.71 5.91252H4.75C4.15326 5.91252 3.58097 6.14957 3.15901 6.57153C2.73705 6.99348 2.5 7.56578 2.5 8.16252V14.1625C2.5 14.7593 2.73705 15.3315 3.15901 15.7535C3.58097 16.1755 4.15326 16.4125 4.75 16.4125H15.25C15.8467 16.4125 16.419 16.1755 16.841 15.7535C17.2629 15.3315 17.5 14.7593 17.5 14.1625V8.16252C17.505 7.8639 17.4505 7.56728 17.3396 7.28996C17.2288 7.01263 17.0638 6.76015 16.8544 6.54723C16.645 6.33431 16.3952 6.16521 16.1198 6.0498C15.8443 5.93439 15.5487 5.87498 15.25 5.87502ZM16 14.125C16 14.3239 15.921 14.5147 15.7803 14.6553C15.6397 14.796 15.4489 14.875 15.25 14.875H4.75C4.55109 14.875 4.36032 14.796 4.21967 14.6553C4.07902 14.5147 4 14.3239 4 14.125V8.12502C4 7.9261 4.07902 7.73534 4.21967 7.59469C4.36032 7.45403 4.55109 7.37502 4.75 7.37502H6.25C6.41355 7.38355 6.5754 7.33832 6.71083 7.24623C6.84625 7.15414 6.94782 7.02025 7 6.86502L7.405 5.63502C7.45531 5.48605 7.55117 5.35667 7.67903 5.26515C7.80688 5.17363 7.96027 5.12461 8.1175 5.12502H11.9575C12.1147 5.12461 12.2681 5.17363 12.396 5.26515C12.5238 5.35667 12.6197 5.48605 12.67 5.63502L13.075 6.86502C13.1231 7.00808 13.2133 7.13328 13.3337 7.22427C13.4542 7.31526 13.5992 7.3678 13.75 7.37502H15.25C15.4489 7.37502 15.6397 7.45403 15.7803 7.59469C15.921 7.73534 16 7.9261 16 8.12502V14.125ZM10 7.37502C9.40666 7.37502 8.82664 7.55096 8.33329 7.88061C7.83994 8.21025 7.45542 8.67879 7.22836 9.22697C7.0013 9.77514 6.94189 10.3783 7.05764 10.9603C7.1734 11.5422 7.45912 12.0768 7.87868 12.4963C8.29824 12.9159 8.83279 13.2016 9.41473 13.3174C9.99667 13.4331 10.5999 13.3737 11.1481 13.1467C11.6962 12.9196 12.1648 12.5351 12.4944 12.0417C12.8241 11.5484 13 10.9684 13 10.375C13 9.57937 12.6839 8.81631 12.1213 8.2537C11.5587 7.69109 10.7957 7.37502 10 7.37502ZM10 11.875C9.70333 11.875 9.41332 11.787 9.16665 11.6222C8.91997 11.4574 8.72771 11.2231 8.61418 10.949C8.50065 10.675 8.47094 10.3734 8.52882 10.0824C8.5867 9.79141 8.72956 9.52414 8.93934 9.31436C9.14912 9.10458 9.41639 8.96172 9.70737 8.90384C9.99834 8.84596 10.2999 8.87567 10.574 8.9892C10.8481 9.10273 11.0824 9.29499 11.2472 9.54166C11.412 9.78833 11.5 10.0783 11.5 10.375C11.5 10.7728 11.342 11.1544 11.0607 11.4357C10.7794 11.717 10.3978 11.875 10 11.875Z" fill="#1D1D1F"/>
</svg>
