<svg width="52" height="52" viewBox="0 0 52 52" fill="none" xmlns="http://www.w3.org/2000/svg">
<path d="M6.5 16.25H13C13.862 16.25 14.6886 15.9076 15.2981 15.2981C15.9076 14.6886 16.25 13.862 16.25 13V6.5C16.25 5.63805 15.9076 4.8114 15.2981 4.2019C14.6886 3.59241 13.862 3.25 13 3.25H6.5C5.63805 3.25 4.8114 3.59241 4.2019 4.2019C3.59241 4.8114 3.25 5.63805 3.25 6.5V13C3.25 13.862 3.59241 14.6886 4.2019 15.2981C4.8114 15.9076 5.63805 16.25 6.5 16.25ZM6.5 6.5H13V13H6.5V6.5ZM45.5 35.75H39C38.138 35.75 37.3114 36.0924 36.7019 36.7019C36.0924 37.3114 35.75 38.138 35.75 39V45.5C35.75 46.362 36.0924 47.1886 36.7019 47.7981C37.3114 48.4076 38.138 48.75 39 48.75H45.5C46.362 48.75 47.1886 48.4076 47.7981 47.7981C48.4076 47.1886 48.75 46.362 48.75 45.5V39C48.75 38.138 48.4076 37.3114 47.7981 36.7019C47.1886 36.0924 46.362 35.75 45.5 35.75ZM45.5 45.5H39V39H45.5V45.5ZM34.7977 20.4523L32.5 22.75L42.25 32.5L52 22.75L49.7023 20.4523L43.875 26.2795V11.375C43.875 10.513 43.5326 9.6864 42.9231 9.0769C42.3136 8.46741 41.487 8.125 40.625 8.125H19.5V11.375H40.625V26.2795L34.7977 20.4523ZM11.375 25.7205L17.2023 31.5477L19.5 29.25L9.75 19.5L0 29.25L2.29775 31.5477L8.125 25.7205V40.625C8.125 41.487 8.46741 42.3136 9.0769 42.9231C9.6864 43.5326 10.513 43.875 11.375 43.875H32.5V40.625H11.375V25.7205Z" fill="#F2A93B"/>
</svg>
