<svg width="52" height="52" viewBox="0 0 52 52" fill="none" xmlns="http://www.w3.org/2000/svg">
<path d="M48.75 37.375H40.625V29.25H37.375V37.375H29.25V40.625H37.375V48.75H40.625V40.625H48.75V37.375Z" fill="#F2A93B"/>
<path d="M39.2064 19.24L41.1255 19.5862C42.6804 19.8396 44.147 20.4787 45.3911 21.4452C46.5499 22.3656 47.4581 23.5632 48.0318 24.9273C48.6055 26.2914 48.8262 27.7781 48.6736 29.25H51.9724C52.174 26.2591 51.2662 23.2987 49.4225 20.9349C47.5789 18.5711 44.9287 16.9697 41.9786 16.4369C41.3625 13.2449 39.8039 10.3107 37.5041 8.01287C35.2043 5.71509 32.2687 4.15915 29.0761 3.54579C26.9791 3.14078 24.8228 3.15301 22.7305 3.58177C20.6382 4.01053 18.6509 4.84743 16.8822 6.04463C15.1135 7.24182 13.598 8.77584 12.4225 10.559C11.247 12.3422 10.4344 14.3395 10.0311 16.4369C6.96764 16.9914 4.23212 18.6963 2.38496 21.2023C0.537811 23.7084 -0.281141 26.826 0.0958812 29.9163C0.527556 32.9195 2.03797 35.6628 4.34487 37.6336C6.65178 39.6044 9.59733 40.6678 12.6311 40.625H22.75V37.375H12.5093C10.3805 37.4092 8.3065 36.6998 6.64454 35.3692C4.98257 34.0386 3.83672 32.17 3.40438 30.0853C3.18766 28.9258 3.20235 27.7348 3.44763 26.581C3.69291 25.4272 4.16392 24.3333 4.83358 23.3622C5.50323 22.3911 6.35829 21.562 7.34958 20.9226C8.34086 20.2832 9.4488 19.8461 10.6096 19.6365L12.8018 19.2384L13.1495 17.4347C13.6386 14.725 14.9541 12.233 16.9157 10.3005C18.8772 8.36813 21.3885 7.08997 24.1053 6.64142C25.7365 6.40059 27.3986 6.47228 29.003 6.85267C31.4775 7.46517 33.7224 8.77967 35.4674 10.638C37.2124 12.4963 38.3833 14.8193 38.8391 17.3274L39.2064 19.24Z" fill="#F2A93B"/>
</svg>
