<svg width="238" height="238" viewBox="0 0 238 238" fill="none" xmlns="http://www.w3.org/2000/svg">
<path d="M141.312 104.125C145.725 104.125 150.039 102.816 153.709 100.365C157.378 97.9129 160.238 94.4282 161.927 90.3511C163.615 86.2741 164.057 81.7878 163.196 77.4596C162.335 73.1314 160.21 69.1556 157.09 66.0352C153.969 62.9147 149.994 60.7897 145.665 59.9287C141.337 59.0678 136.851 59.5097 132.774 61.1984C128.697 62.8872 125.212 65.7471 122.76 69.4164C120.309 73.0856 119 77.3995 119 81.8125C119 87.7302 121.351 93.4054 125.535 97.5898C129.72 101.774 135.395 104.125 141.312 104.125ZM141.312 74.375C142.783 74.375 144.221 74.8112 145.445 75.6285C146.668 76.4457 147.621 77.6073 148.184 78.9663C148.747 80.3253 148.894 81.8208 148.607 83.2635C148.32 84.7062 147.612 86.0315 146.572 87.0716C145.531 88.1118 144.206 88.8201 142.763 89.1071C141.321 89.3941 139.825 89.2468 138.466 88.6839C137.107 88.1209 135.946 87.1677 135.128 85.9446C134.311 84.7215 133.875 83.2835 133.875 81.8125C133.875 79.84 134.659 77.9482 136.053 76.5534C137.448 75.1586 139.34 74.375 141.312 74.375Z" fill="#C2C2C2"/>
<path d="M193.375 29.75H44.625C40.6799 29.75 36.8964 31.3172 34.1068 34.1068C31.3172 36.8964 29.75 40.6799 29.75 44.625V193.375C29.75 197.32 31.3172 201.104 34.1068 203.893C36.8964 206.683 40.6799 208.25 44.625 208.25H193.375C197.32 208.25 201.104 206.683 203.893 203.893C206.683 201.104 208.25 197.32 208.25 193.375V44.625C208.25 40.6799 206.683 36.8964 203.893 34.1068C201.104 31.3172 197.32 29.75 193.375 29.75ZM193.375 193.375H44.625V148.75L81.8125 111.562L123.388 153.138C126.175 155.909 129.945 157.464 133.875 157.464C137.805 157.464 141.575 155.909 144.362 153.138L156.188 141.312L193.375 178.5V193.375ZM193.375 157.452L166.674 130.751C163.887 127.981 160.117 126.426 156.188 126.426C152.258 126.426 148.488 127.981 145.701 130.751L133.875 142.577L92.2994 101.001C89.5124 98.2308 85.7423 96.6757 81.8125 96.6757C77.8827 96.6757 74.1126 98.2308 71.3256 101.001L44.625 127.702V44.625H193.375V157.452Z" fill="#C2C2C2"/>
</svg>
