<svg width="208" height="27" viewBox="0 0 208 27" fill="none" xmlns="http://www.w3.org/2000/svg">
<g clip-path="url(#clip0_3433_34993)">
<path d="M34.4248 8.36255H32.3293C31.6957 8.36255 31.2084 8.55748 30.916 9.19101L26.9199 18.3041H29.7464C29.7464 18.3041 30.2338 17.0857 30.3312 16.7933C30.6236 16.7933 33.4014 16.7933 33.7913 16.7933C33.8887 17.1345 34.1324 18.2553 34.1324 18.2553H36.6665L34.4248 8.36255ZM31.111 14.7466C31.3546 14.1618 32.1831 11.9688 32.1831 11.9688C32.1831 12.0175 32.4267 11.384 32.5242 11.0429L32.7191 11.9201C32.7191 11.9201 33.2552 14.308 33.3527 14.7953H31.111V14.7466Z" fill="#3362AB"/>
<path d="M27.1128 15.039C27.1128 17.0858 25.2609 18.4503 22.3857 18.4503C21.1674 18.4503 19.9978 18.2067 19.3643 17.9143L19.7541 15.6726L20.0953 15.8188C20.9724 16.2086 21.5572 16.3548 22.6294 16.3548C23.4091 16.3548 24.2376 16.0624 24.2376 15.3802C24.2376 14.9416 23.8964 14.6492 22.8243 14.1618C21.8009 13.6745 20.4364 12.8948 20.4364 11.4815C20.4364 9.53222 22.337 8.21643 25.0173 8.21643C26.0407 8.21643 26.9179 8.41136 27.4539 8.65503L27.0641 10.7993L26.8691 10.6043C26.3818 10.4094 25.7483 10.2145 24.8223 10.2145C23.799 10.2632 23.3116 10.7018 23.3116 11.0917C23.3116 11.5303 23.8964 11.8714 24.8223 12.31C26.3818 13.041 27.1128 13.8695 27.1128 15.039Z" fill="#3362AB"/>
<path d="M3.33252 8.46019L3.38125 8.26526H7.57229C8.15708 8.26526 8.59568 8.46019 8.74188 9.09372L9.6678 13.4797C8.74188 11.1405 6.59763 9.23992 3.33252 8.46019Z" fill="#F9B50B"/>
<path d="M15.5634 8.36258L11.3236 18.2554H8.44837L6.01172 9.97076C7.7661 11.0916 9.22809 12.846 9.76416 14.0643L10.0566 15.0877L12.6881 8.31384H15.5634V8.36258Z" fill="#3362AB"/>
<path d="M16.6851 8.31384H19.3655L17.6598 18.2554H14.9795L16.6851 8.31384Z" fill="#3362AB"/>
</g>
<g clip-path="url(#clip1_3433_34993)">
<path d="M80.172 5.43952L71.5645 5.46912L71.8253 21.2273L80.4328 21.1977L80.172 5.43952Z" fill="#FF5F00"/>
<path d="M72.133 13.38C72.0797 10.1749 73.5155 7.32708 75.7644 5.47983C74.0669 4.14779 71.9388 3.34679 69.6319 3.35469C64.1667 3.37341 59.8197 7.87568 59.9119 13.4219C60.004 18.9681 64.5002 23.4401 69.9654 23.4213C72.2723 23.4134 74.3735 22.598 76.0265 21.2544C73.717 19.4507 72.1863 16.5851 72.133 13.38Z" fill="#EB001B"/>
<path d="M92.0898 13.2449C92.182 18.7911 87.835 23.2934 82.3698 23.3121C80.0629 23.32 77.9347 22.519 76.2373 21.187C78.5136 19.3397 79.9219 16.4919 79.8687 13.2868C79.8154 10.0817 78.2851 7.24401 75.9751 5.41238C77.6281 4.06886 79.7294 3.25338 82.0363 3.24548C87.5015 3.22676 91.9981 7.72661 92.0898 13.2449Z" fill="#F79E1B"/>
</g>
<g clip-path="url(#clip2_3433_34993)">
<path d="M141.519 8.22559L140.745 9.93175H142.297L141.519 8.22559ZM132.588 9.28287C132.734 9.21362 132.82 9.06302 132.82 8.87598C132.82 8.6927 132.73 8.55997 132.584 8.49759C132.451 8.42845 132.246 8.42046 132.05 8.42046H130.666V9.3711H132.032C132.251 9.37115 132.433 9.36823 132.588 9.28287ZM114.846 8.22559L114.08 9.93175H115.615L114.846 8.22559ZM150.472 19.1558H148.3V18.2378H150.463C150.678 18.2378 150.828 18.2122 150.918 18.1317C151.004 18.06 151.052 17.9586 151.051 17.8526C151.051 17.7279 150.997 17.6288 150.914 17.5696C150.832 17.5042 150.713 17.4745 150.517 17.4745C149.462 17.4419 148.144 17.5041 148.144 16.1495C148.144 15.5287 148.578 14.8751 149.758 14.8751H151.998V14.0233H149.917C149.289 14.0233 148.832 14.1602 148.509 14.373V14.0233H145.431C144.939 14.0233 144.361 14.1343 144.088 14.373V14.0233H138.591V14.373C138.154 14.0859 137.415 14.0233 137.075 14.0233H133.449V14.373C133.103 14.0681 132.333 14.0233 131.864 14.0233H127.806L126.878 14.9376L126.008 14.0233H119.947V19.997H125.894L126.851 19.0682L127.752 19.997L131.418 20V18.5947H131.778C132.265 18.6018 132.838 18.5839 133.345 18.3848V19.9968H136.368V18.4398H136.514C136.7 18.4398 136.719 18.4469 136.719 18.6161V19.9965H145.905C146.488 19.9965 147.097 19.8608 147.435 19.6141V19.9965H150.349C150.955 19.9965 151.547 19.9192 151.998 19.7212V18.6085C151.725 18.9718 151.192 19.156 150.472 19.156L150.472 19.1558ZM131.826 17.7453H130.423V19.1811H128.238L126.853 17.7641L125.414 19.1811H120.96V14.9003H125.483L126.866 16.3036L128.296 14.9003H131.89C132.782 14.9003 133.785 15.1251 133.785 16.3106C133.785 17.4998 132.809 17.7453 131.826 17.7453ZM138.573 17.5512C138.732 17.7601 138.755 17.9552 138.76 18.3326V19.1812H137.631V18.6457C137.631 18.3881 137.658 18.0068 137.449 17.8077C137.285 17.6544 137.034 17.6178 136.624 17.6178H135.422V19.1812H134.292V14.9004H136.888C137.458 14.9004 137.872 14.9234 138.241 15.1023C138.596 15.2974 138.82 15.5646 138.82 16.053C138.819 16.7362 138.319 17.0847 138.023 17.1919C138.273 17.2759 138.477 17.4265 138.573 17.5512ZM143.218 15.7857H140.585V16.5639H143.154V17.4373H140.585V18.2891L143.218 18.2929V19.1811H139.465V14.9003H143.218V15.7857ZM146.108 19.1811H143.918V18.2631H146.099C146.312 18.2631 146.464 18.2375 146.558 18.1571C146.636 18.0909 146.691 17.9946 146.691 17.8781C146.691 17.7532 146.631 17.6542 146.554 17.5948C146.468 17.5295 146.349 17.5 146.154 17.5C145.102 17.4671 143.785 17.5294 143.785 16.1749C143.785 15.5539 144.214 14.9004 145.393 14.9004H147.647V15.8114H145.584C145.38 15.8114 145.247 15.8185 145.134 15.8889C145.01 15.9582 144.965 16.061 144.965 16.1967C144.965 16.3582 145.069 16.4681 145.211 16.5156C145.329 16.5532 145.457 16.5641 145.648 16.5641L146.254 16.5792C146.864 16.5925 147.283 16.6887 147.538 16.9233C147.757 17.1294 147.874 17.3897 147.874 17.8302C147.874 18.7512 147.242 19.1811 146.108 19.1811ZM137.387 15.8547C137.251 15.7813 137.05 15.7774 136.85 15.7774H135.465V16.7388H136.832C137.05 16.7388 137.236 16.7317 137.387 16.6505C137.532 16.5704 137.619 16.4228 137.619 16.2397C137.619 16.0566 137.532 15.924 137.387 15.8547ZM149.95 15.7773C149.746 15.7773 149.61 15.7843 149.495 15.8546C149.377 15.924 149.331 16.0268 149.331 16.1626C149.331 16.324 149.431 16.434 149.577 16.4815C149.696 16.5191 149.823 16.53 150.01 16.53L150.62 16.5448C151.235 16.5587 151.645 16.6549 151.896 16.8895C151.941 16.9221 151.969 16.9587 152 16.9954V15.7774H149.95L149.95 15.7773ZM131.865 15.7773H130.399V16.8676H131.852C132.284 16.8676 132.553 16.6725 132.553 16.3022C132.553 15.9278 132.271 15.7773 131.865 15.7773ZM122.08 15.7773V16.5556H124.549V17.4291H122.08V18.2807H124.845L126.129 17.0249L124.899 15.7773H122.08ZM129.299 18.7709V15.3389L127.573 17.0273L129.299 18.7709ZM122.174 11.8978V12.6354H131.569L131.565 11.075H131.746C131.874 11.0791 131.911 11.0897 131.911 11.2809V12.6355H136.77V12.2722C137.162 12.4633 137.771 12.6355 138.573 12.6355H140.617L141.055 11.6849H142.025L142.453 12.6355H146.392V11.7325L146.988 12.6354H150.145V6.66663H147.021V7.37156L146.583 6.66663H143.378V7.37156L142.976 6.66663H138.646C137.921 6.66663 137.284 6.75866 136.77 7.01517V6.66663H133.781V7.01517C133.454 6.75077 133.008 6.66663 132.512 6.66663H121.595L120.863 8.20835L120.11 6.66663H116.672V7.37156L116.294 6.66663H113.362L112 9.50466V11.7748L114.014 7.49495H115.684L117.597 11.5471V7.49495H119.432L120.904 10.3983L122.256 7.49495H124.128V11.7748H122.975L122.971 8.42289L121.34 11.7748H120.353L118.718 8.41992V11.7748H116.431L115.999 10.8202H113.658L113.221 11.7748H112V12.6358H113.921L114.355 11.6851H115.325L115.757 12.6358H119.537V11.9089L119.874 12.6388H121.837L122.174 11.898L122.174 11.8978ZM136.978 7.99381C137.342 7.65223 137.911 7.4947 138.686 7.4947H139.775V8.41174H138.709C138.299 8.41174 138.067 8.46725 137.844 8.66534C137.652 8.8455 137.52 9.18616 137.52 9.63472C137.52 10.0933 137.621 10.4238 137.829 10.6398C138.003 10.8092 138.317 10.8605 138.613 10.8605H139.118L140.703 7.49485H142.388L144.292 11.5429V7.4949H146.004L147.98 10.4756V7.4949H149.132V11.7746H147.539L145.407 8.5624V11.7746H143.117L142.68 10.82H140.344L139.919 11.7746H138.603C138.057 11.7746 137.365 11.6646 136.973 11.3012C136.578 10.9379 136.372 10.4456 136.372 9.6674C136.372 9.03258 136.495 8.45235 136.978 7.99381ZM134.665 7.49475H135.813V11.7746H134.665V7.49475ZM129.492 7.49475H132.079C132.653 7.49475 133.077 7.50863 133.44 7.69975C133.796 7.89092 134.009 8.17003 134.009 8.64732C134.009 9.32976 133.509 9.68225 133.217 9.78816C133.463 9.87337 133.673 10.0239 133.774 10.1485C133.932 10.3614 133.96 10.5516 133.96 10.9338V11.7745H132.826L132.821 11.2348C132.821 10.9772 132.848 10.6069 132.644 10.4011C132.48 10.2506 132.229 10.2179 131.824 10.2179H130.617V11.7746H129.493L129.492 7.49475ZM124.959 7.49475H128.716V8.38599H126.084V9.15743H128.653V10.0347H126.084V10.8895H128.716V11.7745H124.959V7.49475Z" fill="#2557D6"/>
</g>
<path d="M191.816 13.3186C191.819 12.6022 191.551 11.8847 191.01 11.3441C190.468 10.8023 189.749 10.5339 189.031 10.5382C189.028 10.5382 189.024 10.538 189.021 10.538C187.462 10.538 186.225 11.7742 186.225 13.3336C186.225 14.8777 187.477 16.1291 189.021 16.1291C190.58 16.1291 191.816 14.8926 191.816 13.3336C191.816 13.3285 191.816 13.3237 191.816 13.3186Z" fill="#F26E21"/>
<path d="M185.703 14.5161C185.286 14.9344 184.9 15.0978 184.484 15.1067C183.473 15.0976 182.728 14.3482 182.728 13.2797C182.728 12.7418 182.932 12.301 183.255 11.9245C183.557 11.6372 183.947 11.4517 184.395 11.4517C184.879 11.4517 185.255 11.6129 185.685 12.043V10.8065C185.256 10.5916 184.879 10.484 184.395 10.484C183.712 10.5329 183.067 10.809 182.573 11.2426C182.431 11.3708 182.294 11.5123 182.178 11.6742C181.817 12.1421 181.599 12.7152 181.599 13.3337C181.599 14.8926 182.836 16.0753 184.395 16.0753C184.403 16.0753 184.41 16.0746 184.418 16.0746C184.428 16.0747 184.438 16.0753 184.449 16.0753C184.879 16.0753 185.255 15.968 185.739 15.7529L185.703 14.5161C185.685 14.5343 185.721 14.5511 185.703 14.5683V14.5161Z" fill="#2B2B2B"/>
<path d="M195.346 11.254L194.129 14.2475L192.731 10.6989H191.602L193.806 16.129H194.398L196.709 10.6989H195.581L195.346 11.254Z" fill="#2B2B2B"/>
<path d="M197.139 13.0645V15.9679H200.043H200.096V15.1074H199.182H198.214V14.1399V13.6562H200.043V12.7419H198.214V11.613H200.096V10.6989H197.139V13.0645Z" fill="#2B2B2B"/>
<path d="M172.838 10.6989H171.332V15.9679H172.838C173.644 15.9679 174.235 15.7527 174.719 15.3763C175.31 14.8925 175.687 14.14 175.687 13.3336C175.687 11.7741 174.558 10.6989 172.838 10.6989ZM174.074 14.6776C173.752 14.9463 173.321 15.1074 172.676 15.1074H172.354V11.6129H172.622C173.268 11.6129 173.698 11.7204 174.02 12.0429C174.397 12.3652 174.612 12.8494 174.612 13.3334C174.666 13.8173 174.451 14.3547 174.074 14.6776Z" fill="#2B2B2B"/>
<path d="M177.194 10.6982H176.172V15.9672H177.194V10.6982Z" fill="#2B2B2B"/>
<path d="M179.772 12.7419C179.127 12.5269 178.965 12.3655 178.965 12.0968C178.965 11.7742 179.288 11.5054 179.718 11.5054C180.041 11.5054 180.309 11.613 180.578 11.9356L181.116 11.2367C180.686 10.8602 180.148 10.6454 179.557 10.6454C178.643 10.6454 177.89 11.2906 177.89 12.1505C177.89 12.9034 178.213 13.2259 179.18 13.6023C179.611 13.7633 179.772 13.8173 179.88 13.9248C180.094 14.0321 180.202 14.2474 180.202 14.4622C180.202 14.8924 179.88 15.215 179.395 15.215C178.911 15.215 178.481 14.9463 178.266 14.5161L177.621 15.1613C178.105 15.8602 178.697 16.1827 179.449 16.1827C180.524 16.1827 181.277 15.4838 181.277 14.4622C181.277 13.5484 180.955 13.1721 179.772 12.7419Z" fill="#2B2B2B"/>
<path d="M202.999 13.7633C203.806 13.6023 204.236 13.0644 204.236 12.2582C204.236 11.2906 203.537 10.6989 202.354 10.6989H200.795V15.9679H201.816V13.8709H201.978L203.429 15.9679H204.666L202.999 13.7633ZM202.139 13.1181H201.816V11.5054H202.139C202.784 11.5054 203.161 11.7741 203.161 12.3121C203.161 12.8495 202.784 13.1181 202.139 13.1181Z" fill="#2B2B2B"/>
<defs>
<clipPath id="clip0_3433_34993">
<rect width="40" height="26.6667" fill="white"/>
</clipPath>
<clipPath id="clip1_3433_34993">
<rect width="40" height="26.6667" fill="white" transform="translate(56)"/>
</clipPath>
<clipPath id="clip2_3433_34993">
<rect width="40" height="26.6667" fill="white" transform="translate(112)"/>
</clipPath>
</defs>
</svg>
