<svg width="52" height="52" viewBox="0 0 52 52" fill="none" xmlns="http://www.w3.org/2000/svg">
<path d="M5.0613 20.9842C4.23356 24.4335 4.27116 28.034 5.17076 31.4652C6.07036 34.8965 7.80407 38.0523 10.2177 40.6518C12.6313 43.2513 15.6499 45.214 19.0052 46.3653C22.3604 47.5165 25.9482 47.8207 29.4493 47.2507C32.8489 46.6993 36.0664 45.3398 38.8314 43.2865C41.5965 41.2332 43.8281 38.5461 45.3389 35.4511C46.8497 32.3561 47.5954 28.9437 47.5133 25.5006C47.4312 22.0576 46.5238 18.6845 44.8673 15.665C42.9922 12.2997 40.2577 9.49217 36.9431 7.52882C33.6285 5.56547 29.8523 4.51665 26 4.48938C25.7139 4.4933 25.4406 4.6087 25.2383 4.81102C25.036 5.01334 24.9206 5.28662 24.9166 5.57271V14.6727C24.9166 14.96 25.0308 15.2356 25.2339 15.4387C25.4371 15.6419 25.7127 15.756 26 15.756C26.2873 15.756 26.5628 15.6419 26.766 15.4387C26.9692 15.2356 27.0833 14.96 27.0833 14.6727V5.57271L26 6.65605C29.0932 6.65553 32.1415 7.39623 34.8896 8.8161C37.6377 10.236 40.0055 12.2937 41.7948 14.8169C43.5841 17.3401 44.7427 20.2553 45.1736 23.3183C45.6045 26.3814 45.2952 29.5031 44.2715 32.422C43.2515 35.3302 41.5521 37.9528 39.3147 40.0721C37.0773 42.1914 34.3664 43.7462 31.4073 44.6071C28.4481 45.468 25.3263 45.6103 22.3011 45.0221C19.276 44.4339 16.4349 43.1322 14.014 41.2252C11.1362 38.9248 8.96561 35.8593 7.75145 32.3809C6.5373 28.9025 6.32883 25.1521 7.14997 21.5605C7.45764 20.202 5.36897 19.6105 5.0613 20.9842Z" fill="#F2A93B"/>
<path d="M16.0334 17.5868C15.836 17.3825 15.7268 17.1088 15.7293 16.8248C15.7318 16.5407 15.8457 16.269 16.0465 16.0682C16.2474 15.8673 16.5191 15.7534 16.8032 15.7509C17.0872 15.7484 17.3609 15.8576 17.5652 16.055L26.7584 25.246C26.9557 25.4503 27.0649 25.7239 27.0624 26.008C27.0599 26.292 26.946 26.5637 26.7452 26.7646C26.5443 26.9655 26.2726 27.0794 25.9885 27.0819C25.7045 27.0843 25.4308 26.9751 25.2265 26.7778L16.0334 17.5868Z" fill="#F2A93B"/>
</svg>
