<svg width="52" height="52" viewBox="0 0 52 52" fill="none" xmlns="http://www.w3.org/2000/svg">
<g clip-path="url(#clip0_3_99)">
<path d="M33.2222 37.5556C33.2222 37.9387 33.0701 38.3061 32.7992 38.577C32.5283 38.8478 32.1609 39 31.7778 39H11.5556C11.2378 39 10.9345 39.2889 10.6745 39.4767L5.7778 43.3334V20.2222C5.7778 19.8392 5.92999 19.4718 6.20087 19.2009C6.47176 18.93 6.83916 18.7778 7.22225 18.7778H12.7978V15.8889H7.22225C6.07298 15.8889 4.97078 16.3455 4.15812 17.1581C3.34546 17.9708 2.88892 19.073 2.88892 20.2222V46.2222C2.89107 46.4905 2.96788 46.7529 3.11075 46.9799C3.25362 47.207 3.4569 47.3898 3.6978 47.5078C3.9299 47.6133 4.18579 47.6556 4.43949 47.6302C4.69319 47.6048 4.93565 47.5128 5.14225 47.3634L12.5811 41.8889H31.9945C32.5419 41.9051 33.0869 41.8087 33.5956 41.6057C34.1043 41.4027 34.5659 41.0975 34.9518 40.7089C35.3377 40.3202 35.6397 39.8565 35.8392 39.3464C36.0386 38.8363 36.1311 38.2907 36.1111 37.7434V36.1111H33.2222V37.5556Z" fill="#F2A93B"/>
<path d="M44.7778 5.77783H20.2222C19.073 5.77783 17.9708 6.23438 17.1581 7.04704C16.3455 7.85969 15.8889 8.96189 15.8889 10.1112V27.4445C15.8889 28.5938 16.3455 29.696 17.1581 30.5086C17.9708 31.3213 19.073 31.7778 20.2222 31.7778H39.7945L46.6989 37.1367C46.9042 37.2885 47.146 37.3831 47.3997 37.411C47.6534 37.4389 47.91 37.3991 48.1434 37.2956C48.3892 37.1785 48.5969 36.9944 48.7425 36.7644C48.8882 36.5344 48.9659 36.2679 48.9667 35.9956V10.1112C48.9673 8.98649 48.5306 7.90562 47.749 7.09699C46.9673 6.28836 45.9019 5.81532 44.7778 5.77783ZM46.2222 33.1356L41.1667 29.1923C40.9146 28.9966 40.6047 28.8899 40.2856 28.8889H20.2222C19.8392 28.8889 19.4718 28.7368 19.2009 28.4659C18.93 28.195 18.7778 27.8276 18.7778 27.4445V10.1112C18.7778 9.72807 18.93 9.36067 19.2009 9.08979C19.4718 8.8189 19.8392 8.66672 20.2222 8.66672H44.7778C45.1639 8.70176 45.5239 8.87677 45.7899 9.15878C46.056 9.44079 46.2097 9.81034 46.2222 10.1978V33.1356Z" fill="#F2A93B"/>
</g>
<defs>
<clipPath id="clip0_3_99">
<rect width="52" height="52" fill="white"/>
</clipPath>
</defs>
</svg>
