<svg width="24" height="24" viewBox="0 0 24 24" fill="none" xmlns="http://www.w3.org/2000/svg">
<path d="M20.25 10.625H19.3333V9.70837C19.3333 9.46526 19.2367 9.2321 19.0648 9.06019C18.8929 8.88828 18.6598 8.79171 18.4166 8.79171C18.1735 8.79171 17.9404 8.88828 17.7685 9.06019C17.5966 9.2321 17.5 9.46526 17.5 9.70837V10.625H16.5833C16.3402 10.625 16.107 10.7216 15.9351 10.8935C15.7632 11.0654 15.6666 11.2986 15.6666 11.5417C15.6666 11.7848 15.7632 12.018 15.9351 12.1899C16.107 12.3618 16.3402 12.4584 16.5833 12.4584H17.5V13.375C17.5 13.6182 17.5966 13.8513 17.7685 14.0232C17.9404 14.1951 18.1735 14.2917 18.4166 14.2917C18.6598 14.2917 18.8929 14.1951 19.0648 14.0232C19.2367 13.8513 19.3333 13.6182 19.3333 13.375V12.4584H20.25C20.4931 12.4584 20.7263 12.3618 20.8982 12.1899C21.0701 12.018 21.1666 11.7848 21.1666 11.5417C21.1666 11.2986 21.0701 11.0654 20.8982 10.8935C20.7263 10.7216 20.4931 10.625 20.25 10.625ZM13.1916 12.2017C13.6808 11.7783 14.0731 11.2547 14.3419 10.6663C14.6108 10.0779 14.75 9.43861 14.75 8.79171C14.75 7.57613 14.2671 6.41034 13.4076 5.5508C12.548 4.69126 11.3822 4.20837 10.1666 4.20837C8.95107 4.20837 7.78528 4.69126 6.92574 5.5508C6.0662 6.41034 5.58331 7.57613 5.58331 8.79171C5.58331 9.43861 5.72246 10.0779 5.99134 10.6663C6.26022 11.2547 6.65253 11.7783 7.14165 12.2017C5.85844 12.7828 4.76974 13.7211 4.00571 14.9045C3.24168 16.088 2.83466 17.4664 2.83331 18.875C2.83331 19.1182 2.92989 19.3513 3.1018 19.5232C3.27371 19.6951 3.50686 19.7917 3.74998 19.7917C3.99309 19.7917 4.22625 19.6951 4.39816 19.5232C4.57007 19.3513 4.66665 19.1182 4.66665 18.875C4.66665 17.4163 5.24611 16.0174 6.27756 14.986C7.30901 13.9545 8.70796 13.375 10.1666 13.375C11.6253 13.375 13.0243 13.9545 14.0557 14.986C15.0872 16.0174 15.6666 17.4163 15.6666 18.875C15.6666 19.1182 15.7632 19.3513 15.9351 19.5232C16.107 19.6951 16.3402 19.7917 16.5833 19.7917C16.8264 19.7917 17.0596 19.6951 17.2315 19.5232C17.4034 19.3513 17.5 19.1182 17.5 18.875C17.4986 17.4664 17.0916 16.088 16.3276 14.9045C15.5636 13.7211 14.4749 12.7828 13.1916 12.2017ZM10.1666 11.5417C9.62275 11.5417 9.09106 11.3804 8.63883 11.0782C8.18659 10.7761 7.83412 10.3466 7.62598 9.84409C7.41784 9.34159 7.36338 8.78866 7.46949 8.25521C7.5756 7.72176 7.83751 7.23176 8.2221 6.84716C8.6067 6.46257 9.0967 6.20066 9.63015 6.09455C10.1636 5.98844 10.7165 6.0429 11.219 6.25104C11.7215 6.45918 12.151 6.81165 12.4532 7.26389C12.7554 7.71612 12.9166 8.24781 12.9166 8.79171C12.9166 9.52105 12.6269 10.2205 12.1112 10.7363C11.5955 11.252 10.896 11.5417 10.1666 11.5417Z" fill="black"/>
</svg>
