<svg width="21" height="20" viewBox="0 0 21 20" fill="none" xmlns="http://www.w3.org/2000/svg">
<path d="M9 14.5C9.19891 14.5 9.38968 14.421 9.53033 14.2803C9.67098 14.1397 9.75 13.9489 9.75 13.75V9.25C9.75 9.05109 9.67098 8.86032 9.53033 8.71967C9.38968 8.57902 9.19891 8.5 9 8.5C8.80109 8.5 8.61032 8.57902 8.46967 8.71967C8.32902 8.86032 8.25 9.05109 8.25 9.25V13.75C8.25 13.9489 8.32902 14.1397 8.46967 14.2803C8.61032 14.421 8.80109 14.5 9 14.5ZM16.5 5.5H13.5V4.75C13.5 4.15326 13.2629 3.58097 12.841 3.15901C12.419 2.73705 11.8467 2.5 11.25 2.5H9.75C9.15326 2.5 8.58097 2.73705 8.15901 3.15901C7.73705 3.58097 7.5 4.15326 7.5 4.75V5.5H4.5C4.30109 5.5 4.11032 5.57902 3.96967 5.71967C3.82902 5.86032 3.75 6.05109 3.75 6.25C3.75 6.44891 3.82902 6.63968 3.96967 6.78033C4.11032 6.92098 4.30109 7 4.5 7H5.25V15.25C5.25 15.8467 5.48705 16.419 5.90901 16.841C6.33097 17.2629 6.90326 17.5 7.5 17.5H13.5C14.0967 17.5 14.669 17.2629 15.091 16.841C15.5129 16.419 15.75 15.8467 15.75 15.25V7H16.5C16.6989 7 16.8897 6.92098 17.0303 6.78033C17.171 6.63968 17.25 6.44891 17.25 6.25C17.25 6.05109 17.171 5.86032 17.0303 5.71967C16.8897 5.57902 16.6989 5.5 16.5 5.5ZM9 4.75C9 4.55109 9.07902 4.36032 9.21967 4.21967C9.36032 4.07902 9.55109 4 9.75 4H11.25C11.4489 4 11.6397 4.07902 11.7803 4.21967C11.921 4.36032 12 4.55109 12 4.75V5.5H9V4.75ZM14.25 15.25C14.25 15.4489 14.171 15.6397 14.0303 15.7803C13.8897 15.921 13.6989 16 13.5 16H7.5C7.30109 16 7.11032 15.921 6.96967 15.7803C6.82902 15.6397 6.75 15.4489 6.75 15.25V7H14.25V15.25ZM12 14.5C12.1989 14.5 12.3897 14.421 12.5303 14.2803C12.671 14.1397 12.75 13.9489 12.75 13.75V9.25C12.75 9.05109 12.671 8.86032 12.5303 8.71967C12.3897 8.57902 12.1989 8.5 12 8.5C11.8011 8.5 11.6103 8.57902 11.4697 8.71967C11.329 8.86032 11.25 9.05109 11.25 9.25V13.75C11.25 13.9489 11.329 14.1397 11.4697 14.2803C11.6103 14.421 11.8011 14.5 12 14.5Z" fill="#1D1D1F"/>
</svg>
