<svg width="20" height="20" viewBox="0 0 20 20" fill="none" xmlns="http://www.w3.org/2000/svg">
<path d="M10 8.5C9.70333 8.5 9.41332 8.58797 9.16665 8.7528C8.91997 8.91762 8.72771 9.15189 8.61418 9.42598C8.50065 9.70006 8.47094 10.0017 8.52882 10.2926C8.5867 10.5836 8.72956 10.8509 8.93934 11.0607C9.14912 11.2704 9.41639 11.4133 9.70737 11.4712C9.99834 11.5291 10.2999 11.4994 10.574 11.3858C10.8481 11.2723 11.0824 11.08 11.2472 10.8334C11.412 10.5867 11.5 10.2967 11.5 10C11.5 9.60218 11.342 9.22064 11.0607 8.93934C10.7794 8.65804 10.3978 8.5 10 8.5ZM4.75 8.5C4.45333 8.5 4.16332 8.58797 3.91665 8.7528C3.66997 8.91762 3.47771 9.15189 3.36418 9.42598C3.25065 9.70006 3.22094 10.0017 3.27882 10.2926C3.3367 10.5836 3.47956 10.8509 3.68934 11.0607C3.89912 11.2704 4.16639 11.4133 4.45737 11.4712C4.74834 11.5291 5.04994 11.4994 5.32403 11.3858C5.59812 11.2723 5.83238 11.08 5.99721 10.8334C6.16203 10.5867 6.25 10.2967 6.25 10C6.25 9.60218 6.09197 9.22064 5.81066 8.93934C5.52936 8.65804 5.14783 8.5 4.75 8.5ZM15.25 8.5C14.9533 8.5 14.6633 8.58797 14.4166 8.7528C14.17 8.91762 13.9777 9.15189 13.8642 9.42598C13.7506 9.70006 13.7209 10.0017 13.7788 10.2926C13.8367 10.5836 13.9796 10.8509 14.1893 11.0607C14.3991 11.2704 14.6664 11.4133 14.9574 11.4712C15.2483 11.5291 15.5499 11.4994 15.824 11.3858C16.0981 11.2723 16.3324 11.08 16.4972 10.8334C16.662 10.5867 16.75 10.2967 16.75 10C16.75 9.60218 16.592 9.22064 16.3107 8.93934C16.0294 8.65804 15.6478 8.5 15.25 8.5Z" fill="#1D1D1F"/>
</svg>
