<svg width="24" height="24" viewBox="0 0 24 24" fill="none" xmlns="http://www.w3.org/2000/svg">
<path fill-rule="evenodd" clip-rule="evenodd" d="M12.95 3.7498C12.95 3.22513 12.5247 2.7998 12 2.7998C11.4753 2.7998 11.05 3.22513 11.05 3.7498V12.3856L8.12377 9.45936C7.73325 9.06884 7.10008 9.06884 6.70956 9.45936C6.31904 9.84989 6.31904 10.4831 6.70956 10.8736L11.2929 15.4569C11.6834 15.8474 12.3166 15.8474 12.7071 15.4569L17.2904 10.8736C17.681 10.4831 17.681 9.84989 17.2904 9.45936C16.8999 9.06884 16.2668 9.06884 15.8762 9.45936L12.95 12.3856V3.7498ZM3.75 13.7498C4.30228 13.7498 4.75 14.1975 4.75 14.7498V18.4165C4.75 18.6375 4.8378 18.8494 4.99408 19.0057C5.15036 19.162 5.36232 19.2498 5.58333 19.2498H18.4167C18.6377 19.2498 18.8496 19.162 19.0059 19.0057C19.1622 18.8494 19.25 18.6375 19.25 18.4165V14.7498C19.25 14.1975 19.6977 13.7498 20.25 13.7498C20.8023 13.7498 21.25 14.1975 21.25 14.7498V18.4165C21.25 19.1679 20.9515 19.8886 20.4201 20.4199C19.8888 20.9513 19.1681 21.2498 18.4167 21.2498H5.58333C4.83189 21.2498 4.11122 20.9513 3.57986 20.4199C3.04851 19.8886 2.75 19.1679 2.75 18.4165V14.7498C2.75 14.1975 3.19772 13.7498 3.75 13.7498Z" fill="white"/>
</svg>
