<svg width="20" height="20" viewBox="0 0 20 20" fill="none" xmlns="http://www.w3.org/2000/svg">
<path d="M7.49967 8.33341H8.33301C8.55402 8.33341 8.76598 8.24562 8.92226 8.08934C9.07854 7.93306 9.16634 7.7211 9.16634 7.50008C9.16634 7.27907 9.07854 7.06711 8.92226 6.91083C8.76598 6.75455 8.55402 6.66675 8.33301 6.66675H7.49967C7.27866 6.66675 7.0667 6.75455 6.91042 6.91083C6.75414 7.06711 6.66634 7.27907 6.66634 7.50008C6.66634 7.7211 6.75414 7.93306 6.91042 8.08934C7.0667 8.24562 7.27866 8.33341 7.49967 8.33341ZM12.4997 10.0001H7.49967C7.27866 10.0001 7.0667 10.0879 6.91042 10.2442C6.75414 10.4004 6.66634 10.6124 6.66634 10.8334C6.66634 11.0544 6.75414 11.2664 6.91042 11.4227C7.0667 11.5789 7.27866 11.6667 7.49967 11.6667H12.4997C12.7207 11.6667 12.9326 11.5789 13.0889 11.4227C13.2452 11.2664 13.333 11.0544 13.333 10.8334C13.333 10.6124 13.2452 10.4004 13.0889 10.2442C12.9326 10.0879 12.7207 10.0001 12.4997 10.0001ZM12.4997 13.3334H7.49967C7.27866 13.3334 7.0667 13.4212 6.91042 13.5775C6.75414 13.7338 6.66634 13.9457 6.66634 14.1667C6.66634 14.3878 6.75414 14.5997 6.91042 14.756C7.0667 14.9123 7.27866 15.0001 7.49967 15.0001H12.4997C12.7207 15.0001 12.9326 14.9123 13.0889 14.756C13.2452 14.5997 13.333 14.3878 13.333 14.1667C13.333 13.9457 13.2452 13.7338 13.0889 13.5775C12.9326 13.4212 12.7207 13.3334 12.4997 13.3334ZM16.4247 16.9084C16.3851 16.8726 16.3433 16.8392 16.2997 16.8084C16.2532 16.7769 16.2028 16.7517 16.1497 16.7334L15.9997 16.6667C15.8372 16.635 15.6689 16.6524 15.5163 16.7167C15.4129 16.7542 15.319 16.8139 15.2412 16.8917C15.1635 16.9694 15.1038 17.0633 15.0663 17.1667C15.0171 17.2707 14.9942 17.3852 14.9997 17.5001C14.9982 17.6241 15.0244 17.7468 15.0764 17.8593C15.1284 17.9719 15.2049 18.0714 15.3002 18.1507C15.3955 18.2299 15.5074 18.2869 15.6275 18.3175C15.7477 18.3481 15.8731 18.3514 15.9947 18.3274C16.1164 18.3033 16.2311 18.2524 16.3305 18.1784C16.43 18.1043 16.5117 18.009 16.5696 17.8994C16.6276 17.7898 16.6604 17.6687 16.6656 17.5448C16.6707 17.421 16.6482 17.2975 16.5997 17.1834C16.5575 17.0824 16.4983 16.9894 16.4247 16.9084ZM16.6663 7.45008C16.6577 7.37353 16.6409 7.29811 16.6163 7.22508V7.15008C16.5763 7.0644 16.5228 6.98564 16.458 6.91675L11.458 1.91675C11.3891 1.85193 11.3104 1.79848 11.2247 1.75841C11.1998 1.75488 11.1745 1.75488 11.1497 1.75841C11.065 1.70987 10.9715 1.6787 10.8747 1.66675H5.83301C5.16997 1.66675 4.53408 1.93014 4.06524 2.39898C3.5964 2.86782 3.33301 3.50371 3.33301 4.16675V15.8334C3.33301 16.4965 3.5964 17.1323 4.06524 17.6012C4.53408 18.07 5.16997 18.3334 5.83301 18.3334H12.4997C12.7207 18.3334 12.9326 18.2456 13.0889 18.0893C13.2452 17.9331 13.333 17.7211 13.333 17.5001C13.333 17.2791 13.2452 17.0671 13.0889 16.9108C12.9326 16.7545 12.7207 16.6667 12.4997 16.6667H5.83301C5.61199 16.6667 5.40003 16.579 5.24375 16.4227C5.08747 16.2664 4.99967 16.0544 4.99967 15.8334V4.16675C4.99967 3.94573 5.08747 3.73377 5.24375 3.57749C5.40003 3.42121 5.61199 3.33341 5.83301 3.33341H9.99967V5.83341C9.99967 6.49646 10.2631 7.13234 10.7319 7.60118C11.2007 8.07002 11.8366 8.33341 12.4997 8.33341H14.9997V10.0001C14.9997 10.2211 15.0875 10.4331 15.2438 10.5893C15.4 10.7456 15.612 10.8334 15.833 10.8334C16.054 10.8334 16.266 10.7456 16.4223 10.5893C16.5785 10.4331 16.6663 10.2211 16.6663 10.0001V7.50008C16.6663 7.50008 16.6663 7.50008 16.6663 7.45008ZM12.4997 6.66675C12.2787 6.66675 12.0667 6.57895 11.9104 6.42267C11.7541 6.26639 11.6663 6.05443 11.6663 5.83341V4.50841L13.8247 6.66675H12.4997ZM15.833 12.5001C15.612 12.5001 15.4 12.5879 15.2438 12.7442C15.0875 12.9004 14.9997 13.1124 14.9997 13.3334V15.0001C14.9997 15.2211 15.0875 15.4331 15.2438 15.5893C15.4 15.7456 15.612 15.8334 15.833 15.8334C16.054 15.8334 16.266 15.7456 16.4223 15.5893C16.5785 15.4331 16.6663 15.2211 16.6663 15.0001V13.3334C16.6663 13.1124 16.5785 12.9004 16.4223 12.7442C16.266 12.5879 16.054 12.5001 15.833 12.5001Z" fill="#1D1D1F"/>
</svg>
