<svg width="21" height="20" viewBox="0 0 21 20" fill="none" xmlns="http://www.w3.org/2000/svg">
<path d="M10.7041 8.18188V12.0546H16.1958C15.9546 13.3001 15.231 14.3546 14.1457 15.0637L17.4574 17.5819C19.3869 15.8365 20.5001 13.2729 20.5001 10.2274C20.5001 9.51836 20.4352 8.83648 20.3145 8.18199L10.7041 8.18188Z" fill="#4285F4"/>
<path d="M4.98526 11.9036L4.23834 12.4639L1.59448 14.482C3.27353 17.7456 6.71487 20.0002 10.7038 20.0002C13.4588 20.0002 15.7686 19.1093 17.457 17.5821L14.1453 15.0639C13.2362 15.6639 12.0766 16.0275 10.7038 16.0275C8.05068 16.0275 5.79654 14.273 4.98943 11.9093L4.98526 11.9036Z" fill="#34A853"/>
<path d="M1.59455 5.51807C0.898849 6.86346 0.5 8.38166 0.5 9.99981C0.5 11.618 0.898849 13.1362 1.59455 14.4816C1.59455 14.4906 4.98982 11.8998 4.98982 11.8998C4.78574 11.2998 4.66511 10.6634 4.66511 9.99971C4.66511 9.33599 4.78574 8.69967 4.98982 8.09967L1.59455 5.51807Z" fill="#FBBC05"/>
<path d="M10.704 3.98181C12.2068 3.98181 13.5426 4.49089 14.6094 5.47272L17.5315 2.60912C15.7596 0.990969 13.4591 0 10.704 0C6.71508 0 3.27353 2.24545 1.59448 5.51818L4.98965 8.1C5.79666 5.73634 8.05089 3.98181 10.704 3.98181Z" fill="#EA4335"/>
</svg>
