<svg width="52" height="52" viewBox="0 0 52 52" fill="none" xmlns="http://www.w3.org/2000/svg">
<path d="M23.8333 45.5C25.4742 46.9444 26.9187 47.6667 28.1667 47.6667C32.5 47.6667 34.6667 45.5 34.6667 41.1667C34.6667 38.2778 36.1111 35.3889 39 32.5C41.7452 29.7548 43.3333 25.8548 43.3333 21.6667C43.3333 17.6442 41.7354 13.7865 38.8911 10.9422C36.0468 8.09791 32.1891 6.5 28.1667 6.5C24.1442 6.5 20.2865 8.09791 17.4422 10.9422C14.5979 13.7865 13 17.6442 13 21.6667M36.8333 21.6667C36.8333 19.3681 35.9202 17.1637 34.2949 15.5384C32.6696 13.9131 30.4652 13 28.1667 13C25.8681 13 23.6637 13.9131 22.0384 15.5384C20.4131 17.1637 19.5 19.3681 19.5 21.6667M6.5 43.3333L17.3333 30.3333L19.5 39L30.3333 26" stroke="#FFA537" stroke-width="3" stroke-linecap="round" stroke-linejoin="round"/>
</svg>
