<svg width="52" height="52" viewBox="0 0 52 52" fill="none" xmlns="http://www.w3.org/2000/svg">
<path d="M23.8333 43.3333H22.75C14.6055 43.3333 10.5343 43.3333 7.81515 41.1883C7.38302 40.846 6.98141 40.4668 6.61481 40.0551C4.33331 37.4985 4.33331 33.6635 4.33331 26C4.33331 18.3365 4.33331 14.5036 6.61481 11.9448C6.98026 11.5346 7.38037 11.1576 7.81515 10.8138C10.5343 8.66663 14.6055 8.66663 22.75 8.66663H29.25C37.3945 8.66663 41.4656 8.66663 44.1826 10.8116C44.6189 11.1583 45.0197 11.536 45.3851 11.9448C47.4413 14.2501 47.645 17.589 47.6666 23.8333M4.33331 19.5H47.6666M30.3333 39C30.3333 39 32.5 39 34.6666 43.3333C34.6666 43.3333 41.5501 32.5 47.6666 30.3333" stroke="#F2A93B" stroke-width="3.25" stroke-linecap="round" stroke-linejoin="round"/>
</svg>
