<svg width="52" height="52" viewBox="0 0 52 52" fill="none" xmlns="http://www.w3.org/2000/svg">
<path d="M26 47.6667L21.6667 34.6667H4.33334L8.66668 47.6667H26ZM26 47.6667H34.6667M26 28.1667V27.0834C26 22.997 26 20.956 24.7303 19.6864C23.4607 18.4167 21.4197 18.4167 17.3333 18.4167C13.247 18.4167 11.206 18.4167 9.93634 19.6864C8.66668 20.956 8.66668 22.997 8.66668 27.0834V28.1667M30.3333 37.9167H43.3333C44.4826 37.9167 45.5848 38.3733 46.3975 39.1859C47.2101 39.9986 47.6667 41.1008 47.6667 42.25V43.3334C47.6667 44.4826 47.2101 45.5848 46.3975 46.3975C45.5848 47.2102 44.4826 47.6667 43.3333 47.6667H41.1667M41.1667 28.1667C41.1667 29.316 40.7101 30.4182 39.8975 31.2308C39.0848 32.0435 37.9826 32.5 36.8333 32.5C35.6841 32.5 34.5819 32.0435 33.7692 31.2308C32.9566 30.4182 32.5 29.316 32.5 28.1667C32.5 27.0174 32.9566 25.9152 33.7692 25.1026C34.5819 24.2899 35.6841 23.8334 36.8333 23.8334C37.9826 23.8334 39.0848 24.2899 39.8975 25.1026C40.7101 25.9152 41.1667 27.0174 41.1667 28.1667ZM21.6667 8.66671C21.6667 9.81598 21.2101 10.9182 20.3975 11.7308C19.5848 12.5435 18.4826 13 17.3333 13C16.1841 13 15.0819 12.5435 14.2692 11.7308C13.4566 10.9182 13 9.81598 13 8.66671C13 7.51744 13.4566 6.41524 14.2692 5.60258C15.0819 4.78992 16.1841 4.33337 17.3333 4.33337C18.4826 4.33337 19.5848 4.78992 20.3975 5.60258C21.2101 6.41524 21.6667 7.51744 21.6667 8.66671Z" stroke="#F2A93B" stroke-width="3.25" stroke-linecap="round" stroke-linejoin="round"/>
</svg>
