<svg width="52" height="52" viewBox="0 0 52 52" fill="none" xmlns="http://www.w3.org/2000/svg">
<path d="M15.1667 9.75004C14.014 9.74971 12.882 10.0559 11.8866 10.6372C10.8913 11.2186 10.0684 12.0541 9.50242 13.0583C8.93641 14.0624 8.6476 15.199 8.6656 16.3515C8.68359 17.5041 9.00775 18.6311 9.60483 19.617C8.12184 19.9036 6.78486 20.6975 5.82346 21.8624C4.86206 23.0274 4.33622 24.4907 4.33622 26.0011C4.33622 27.5116 4.86206 28.9749 5.82346 30.1398C6.78486 31.3048 8.12184 32.0987 9.60483 32.3852M15.1667 9.75004C15.1667 8.31345 15.7373 6.9357 16.7532 5.91988C17.769 4.90406 19.1467 4.33337 20.5833 4.33337C22.0199 4.33337 23.3977 4.90406 24.4135 5.91988C25.4293 6.9357 26 8.31345 26 9.75004V42.25C26 43.6866 25.4293 45.0644 24.4135 46.0802C23.3977 47.096 22.0199 47.6667 20.5833 47.6667C19.1467 47.6667 17.769 47.096 16.7532 46.0802C15.7373 45.0644 15.1667 43.6866 15.1667 42.25C14.0143 42.2501 12.8827 41.9439 11.8876 41.3627C10.8926 40.7814 10.07 39.9461 9.50403 38.9423C8.93809 37.9386 8.64917 36.8023 8.66689 35.6501C8.6846 34.4979 9.0083 33.3711 9.60483 32.3852M15.1667 9.75004C15.1667 11.5224 16.0182 13.0954 17.3333 14.0834M9.60483 32.3852C10.3824 31.0979 11.5823 30.1201 13 29.6184M41.7083 10.2917L36.8333 15.1667H32.5M41.7083 41.7084L36.8333 36.8334H32.5M41.7083 26H32.5M40.0833 10.2917C40.0833 10.7227 40.2545 11.136 40.5593 11.4408C40.864 11.7455 41.2774 11.9167 41.7083 11.9167C42.1393 11.9167 42.5526 11.7455 42.8574 11.4408C43.1621 11.136 43.3333 10.7227 43.3333 10.2917C43.3333 9.86073 43.1621 9.44741 42.8574 9.14266C42.5526 8.83791 42.1393 8.66671 41.7083 8.66671C41.2774 8.66671 40.864 8.83791 40.5593 9.14266C40.2545 9.44741 40.0833 9.86073 40.0833 10.2917ZM40.0833 41.7084C40.0833 41.2774 40.2545 40.8641 40.5593 40.5593C40.864 40.2546 41.2774 40.0834 41.7083 40.0834C42.1393 40.0834 42.5526 40.2546 42.8574 40.5593C43.1621 40.8641 43.3333 41.2774 43.3333 41.7084C43.3333 42.1394 43.1621 42.5527 42.8574 42.8574C42.5526 43.1622 42.1393 43.3334 41.7083 43.3334C41.2774 43.3334 40.864 43.1622 40.5593 42.8574C40.2545 42.5527 40.0833 42.1394 40.0833 41.7084ZM40.0833 26C40.0833 26.431 40.2545 26.8443 40.5593 27.1491C40.864 27.4538 41.2774 27.625 41.7083 27.625C42.1393 27.625 42.5526 27.4538 42.8574 27.1491C43.1621 26.8443 43.3333 26.431 43.3333 26C43.3333 25.5691 43.1621 25.1557 42.8574 24.851C42.5526 24.5462 42.1393 24.375 41.7083 24.375C41.2774 24.375 40.864 24.5462 40.5593 24.851C40.2545 25.1557 40.0833 25.5691 40.0833 26Z" stroke="#F2A93B" stroke-width="3.25" stroke-linecap="round" stroke-linejoin="round"/>
</svg>
