<svg width="38" height="40" viewBox="0 0 38 40" fill="none" xmlns="http://www.w3.org/2000/svg">
<path d="M35.7587 17.121V21.3315L37.9939 19.3067L35.7587 17.121Z" fill="#0B5D80"/>
<path d="M2.24484 21.4801V17.2758L0.00646973 19.3067L2.24484 21.4801Z" fill="#0B5D80"/>
<path d="M2.24492 10.6442L19.0002 0.96936L35.7587 10.6442V29.994L19.0002 39.6688L2.24492 29.994V10.6442Z" fill="url(#paint0_linear_1791_4879)"/>
<path d="M3.97861 11.6442L19.0002 2.97552L34.0218 11.6442V28.994L19.0002 37.6626L3.97861 28.994V11.6442Z" fill="url(#paint1_linear_1791_4879)"/>
<path d="M19.0001 37.7586L18.963 37.7338L3.90115 29.0342V11.604L3.9383 11.5823L19.0001 2.88885L19.0404 2.91363L34.1022 11.604V29.0342L34.062 29.0559L19.0001 37.7586ZM4.05285 28.9506L19.0001 37.579L33.9474 28.9506V11.6876L19.0001 3.05913L4.05285 11.6876V28.9506Z" fill="white"/>
<path d="M38 19.3036H0.00646973V28.9785H38V19.3036Z" fill="white"/>
<path d="M19.0002 5.30988L19.4491 6.07147L20.316 6.26342L19.7277 6.92905L19.8144 7.80522L19.0002 7.45537L18.189 7.80522L18.2664 6.92905L17.6844 6.26342L18.5513 6.07147L19.0002 5.30988Z" fill="white"/>
<path d="M14.0869 7.51111L14.5358 8.26962L15.4026 8.46157L14.8144 9.12719L14.898 10.0095L14.0869 9.6628L13.2726 10.0095L13.3562 9.12719L12.7711 8.46157L13.6348 8.26962L14.0869 7.51111Z" fill="white"/>
<path d="M23.9165 7.51111L24.3654 8.26962L25.2323 8.46157L24.644 9.12719L24.7276 10.0095L23.9165 9.6628L23.1023 10.0095L23.1797 9.12719L22.6007 8.46157L23.4645 8.26962L23.9165 7.51111Z" fill="white"/>
<path d="M19.0002 30.4274L19.7804 31.737L21.2757 32.0776L20.2695 33.2293L20.3996 34.7463L19.0002 34.1488L17.5915 34.7463L17.7309 33.2293L16.7247 32.0776L18.22 31.737L19.0002 30.4274Z" fill="white"/>
<path d="M7.46192 13.858C7.73192 13.858 7.95492 13.929 8.13092 14.071C8.30892 14.213 8.42392 14.405 8.47592 14.647H7.93292C7.89292 14.549 7.83092 14.472 7.74692 14.416C7.66492 14.36 7.56692 14.332 7.45292 14.332C7.30292 14.332 7.18192 14.387 7.08992 14.497C6.99792 14.607 6.95192 14.754 6.95192 14.938C6.95192 15.122 6.99792 15.269 7.08992 15.379C7.18192 15.487 7.30292 15.541 7.45292 15.541C7.56692 15.541 7.66492 15.513 7.74692 15.457C7.83092 15.401 7.89292 15.325 7.93292 15.229H8.47592C8.42392 15.469 8.30892 15.661 8.13092 15.805C7.95492 15.947 7.73192 16.018 7.46192 16.018C7.25592 16.018 7.07492 15.973 6.91892 15.883C6.76292 15.791 6.64192 15.663 6.55592 15.499C6.47192 15.335 6.42992 15.148 6.42992 14.938C6.42992 14.728 6.47192 14.541 6.55592 14.377C6.64192 14.213 6.76292 14.086 6.91892 13.996C7.07492 13.904 7.25592 13.858 7.46192 13.858ZM9.54643 14.305C9.71243 14.305 9.86043 14.34 9.99043 14.41C10.1224 14.478 10.2254 14.577 10.2994 14.707C10.3754 14.837 10.4134 14.989 10.4134 15.163C10.4134 15.337 10.3754 15.489 10.2994 15.619C10.2254 15.749 10.1224 15.849 9.99043 15.919C9.86043 15.987 9.71243 16.021 9.54643 16.021C9.38043 16.021 9.23143 15.987 9.09943 15.919C8.96743 15.849 8.86343 15.749 8.78743 15.619C8.71343 15.489 8.67643 15.337 8.67643 15.163C8.67643 14.989 8.71343 14.837 8.78743 14.707C8.86343 14.577 8.96743 14.478 9.09943 14.41C9.23143 14.34 9.38043 14.305 9.54643 14.305ZM9.54643 14.749C9.44843 14.749 9.36543 14.785 9.29743 14.857C9.23143 14.927 9.19843 15.029 9.19843 15.163C9.19843 15.297 9.23143 15.399 9.29743 15.469C9.36543 15.539 9.44843 15.574 9.54643 15.574C9.64443 15.574 9.72643 15.539 9.79243 15.469C9.85843 15.399 9.89143 15.297 9.89143 15.163C9.89143 15.029 9.85843 14.927 9.79243 14.857C9.72643 14.785 9.64443 14.749 9.54643 14.749ZM12.8484 14.308C13.0544 14.308 13.2164 14.372 13.3344 14.5C13.4524 14.626 13.5114 14.802 13.5114 15.028V16H13.0014V15.088C13.0014 14.982 12.9724 14.9 12.9144 14.842C12.8584 14.782 12.7814 14.752 12.6834 14.752C12.5814 14.752 12.5004 14.784 12.4404 14.848C12.3824 14.91 12.3534 14.998 12.3534 15.112V16H11.8404V15.088C11.8404 14.982 11.8124 14.9 11.7564 14.842C11.7004 14.782 11.6234 14.752 11.5254 14.752C11.4234 14.752 11.3424 14.783 11.2824 14.845C11.2224 14.907 11.1924 14.996 11.1924 15.112V16H10.6794V14.326H11.1924V14.611C11.2364 14.517 11.3034 14.443 11.3934 14.389C11.4854 14.335 11.5924 14.308 11.7144 14.308C11.8424 14.308 11.9554 14.338 12.0534 14.398C12.1514 14.456 12.2254 14.54 12.2754 14.65C12.3334 14.546 12.4124 14.463 12.5124 14.401C12.6144 14.339 12.7264 14.308 12.8484 14.308ZM16.0213 14.308C16.2273 14.308 16.3893 14.372 16.5073 14.5C16.6253 14.626 16.6843 14.802 16.6843 15.028V16H16.1743V15.088C16.1743 14.982 16.1453 14.9 16.0873 14.842C16.0313 14.782 15.9543 14.752 15.8563 14.752C15.7543 14.752 15.6733 14.784 15.6133 14.848C15.5553 14.91 15.5263 14.998 15.5263 15.112V16H15.0133V15.088C15.0133 14.982 14.9853 14.9 14.9293 14.842C14.8733 14.782 14.7963 14.752 14.6983 14.752C14.5963 14.752 14.5153 14.783 14.4553 14.845C14.3953 14.907 14.3653 14.996 14.3653 15.112V16H13.8523V14.326H14.3653V14.611C14.4093 14.517 14.4763 14.443 14.5663 14.389C14.6583 14.335 14.7653 14.308 14.8873 14.308C15.0153 14.308 15.1283 14.338 15.2263 14.398C15.3243 14.456 15.3983 14.54 15.4483 14.65C15.5063 14.546 15.5853 14.463 15.6853 14.401C15.7873 14.339 15.8993 14.308 16.0213 14.308ZM18.6901 14.326V16H18.1741V15.697C18.1261 15.795 18.0541 15.873 17.9581 15.931C17.8641 15.989 17.7541 16.018 17.6281 16.018C17.4361 16.018 17.2831 15.954 17.1691 15.826C17.0571 15.698 17.0011 15.522 17.0011 15.298V14.326H17.5111V15.235C17.5111 15.349 17.5401 15.438 17.5981 15.502C17.6581 15.564 17.7381 15.595 17.8381 15.595C17.9421 15.595 18.0241 15.562 18.0841 15.496C18.1441 15.43 18.1741 15.336 18.1741 15.214V14.326H18.6901ZM20.1057 14.308C20.2977 14.308 20.4497 14.372 20.5617 14.5C20.6757 14.628 20.7327 14.804 20.7327 15.028V16H20.2197V15.088C20.2197 14.976 20.1897 14.889 20.1297 14.827C20.0717 14.763 19.9937 14.731 19.8957 14.731C19.7917 14.731 19.7087 14.764 19.6467 14.83C19.5867 14.896 19.5567 14.99 19.5567 15.112V16H19.0437V14.326H19.5567V14.632C19.6047 14.532 19.6757 14.453 19.7697 14.395C19.8657 14.337 19.9777 14.308 20.1057 14.308ZM21.023 13.855C21.023 13.777 21.051 13.713 21.107 13.663C21.163 13.611 21.237 13.585 21.329 13.585C21.421 13.585 21.495 13.611 21.551 13.663C21.607 13.713 21.635 13.777 21.635 13.855C21.635 13.931 21.607 13.995 21.551 14.047C21.495 14.097 21.421 14.122 21.329 14.122C21.237 14.122 21.163 14.097 21.107 14.047C21.051 13.995 21.023 13.931 21.023 13.855ZM21.584 14.326V16H21.071V14.326H21.584ZM22.6942 14.305C22.9102 14.305 23.0912 14.365 23.2372 14.485C23.3832 14.603 23.4752 14.766 23.5132 14.974H22.9702C22.9542 14.902 22.9212 14.846 22.8712 14.806C22.8212 14.766 22.7582 14.746 22.6822 14.746C22.5922 14.746 22.5182 14.782 22.4602 14.854C22.4022 14.924 22.3732 15.027 22.3732 15.163C22.3732 15.299 22.4022 15.403 22.4602 15.475C22.5182 15.545 22.5922 15.58 22.6822 15.58C22.7582 15.58 22.8212 15.56 22.8712 15.52C22.9212 15.48 22.9542 15.424 22.9702 15.352H23.5132C23.4752 15.56 23.3832 15.724 23.2372 15.844C23.0912 15.962 22.9102 16.021 22.6942 16.021C22.5302 16.021 22.3842 15.987 22.2562 15.919C22.1302 15.849 22.0312 15.749 21.9592 15.619C21.8872 15.489 21.8512 15.337 21.8512 15.163C21.8512 14.987 21.8862 14.835 21.9562 14.707C22.0282 14.577 22.1282 14.478 22.2562 14.41C22.3842 14.34 22.5302 14.305 22.6942 14.305ZM24.417 14.305C24.545 14.305 24.655 14.334 24.747 14.392C24.839 14.45 24.907 14.529 24.951 14.629V14.326H25.461V16H24.951V15.697C24.907 15.797 24.839 15.876 24.747 15.934C24.655 15.992 24.545 16.021 24.417 16.021C24.279 16.021 24.155 15.987 24.045 15.919C23.937 15.849 23.851 15.749 23.787 15.619C23.725 15.489 23.694 15.337 23.694 15.163C23.694 14.987 23.725 14.835 23.787 14.707C23.851 14.577 23.937 14.478 24.045 14.41C24.155 14.34 24.279 14.305 24.417 14.305ZM24.582 14.755C24.472 14.755 24.383 14.791 24.315 14.863C24.249 14.935 24.216 15.035 24.216 15.163C24.216 15.291 24.249 15.391 24.315 15.463C24.383 15.535 24.472 15.571 24.582 15.571C24.69 15.571 24.778 15.534 24.846 15.46C24.916 15.386 24.951 15.287 24.951 15.163C24.951 15.037 24.916 14.938 24.846 14.866C24.778 14.792 24.69 14.755 24.582 14.755ZM26.7622 15.559V16H26.5312C26.3352 16 26.1822 15.952 26.0722 15.856C25.9642 15.758 25.9102 15.597 25.9102 15.373V14.758H25.6852V14.326H25.9102V13.915H26.4232V14.326H26.7592V14.758H26.4232V15.382C26.4232 15.448 26.4362 15.494 26.4622 15.52C26.4902 15.546 26.5362 15.559 26.6002 15.559H26.7622ZM27.0025 13.855C27.0025 13.777 27.0305 13.713 27.0865 13.663C27.1425 13.611 27.2165 13.585 27.3085 13.585C27.4005 13.585 27.4745 13.611 27.5305 13.663C27.5865 13.713 27.6145 13.777 27.6145 13.855C27.6145 13.931 27.5865 13.995 27.5305 14.047C27.4745 14.097 27.4005 14.122 27.3085 14.122C27.2165 14.122 27.1425 14.097 27.0865 14.047C27.0305 13.995 27.0025 13.931 27.0025 13.855ZM27.5635 14.326V16H27.0505V14.326H27.5635ZM28.7007 14.305C28.8667 14.305 29.0147 14.34 29.1447 14.41C29.2767 14.478 29.3797 14.577 29.4537 14.707C29.5297 14.837 29.5677 14.989 29.5677 15.163C29.5677 15.337 29.5297 15.489 29.4537 15.619C29.3797 15.749 29.2767 15.849 29.1447 15.919C29.0147 15.987 28.8667 16.021 28.7007 16.021C28.5347 16.021 28.3857 15.987 28.2537 15.919C28.1217 15.849 28.0177 15.749 27.9417 15.619C27.8677 15.489 27.8307 15.337 27.8307 15.163C27.8307 14.989 27.8677 14.837 27.9417 14.707C28.0177 14.577 28.1217 14.478 28.2537 14.41C28.3857 14.34 28.5347 14.305 28.7007 14.305ZM28.7007 14.749C28.6027 14.749 28.5197 14.785 28.4517 14.857C28.3857 14.927 28.3527 15.029 28.3527 15.163C28.3527 15.297 28.3857 15.399 28.4517 15.469C28.5197 15.539 28.6027 15.574 28.7007 15.574C28.7987 15.574 28.8807 15.539 28.9467 15.469C29.0127 15.399 29.0457 15.297 29.0457 15.163C29.0457 15.029 29.0127 14.927 28.9467 14.857C28.8807 14.785 28.7987 14.749 28.7007 14.749ZM30.8957 14.308C31.0877 14.308 31.2397 14.372 31.3517 14.5C31.4657 14.628 31.5227 14.804 31.5227 15.028V16H31.0097V15.088C31.0097 14.976 30.9797 14.889 30.9197 14.827C30.8617 14.763 30.7837 14.731 30.6857 14.731C30.5817 14.731 30.4987 14.764 30.4367 14.83C30.3767 14.896 30.3467 14.99 30.3467 15.112V16H29.8337V14.326H30.3467V14.632C30.3947 14.532 30.4657 14.453 30.5597 14.395C30.6557 14.337 30.7677 14.308 30.8957 14.308Z" fill="white"/>
<path d="M8.55656 22.172V22.716H7.39656V23.336H8.29256V23.856H7.39656V25H6.71256V22.172H8.55656ZM9.95188 22.74C10.1732 22.74 10.3705 22.7867 10.5439 22.88C10.7199 22.9707 10.8572 23.1027 10.9559 23.276C11.0572 23.4493 11.1079 23.652 11.1079 23.884C11.1079 24.116 11.0572 24.3187 10.9559 24.492C10.8572 24.6653 10.7199 24.7987 10.5439 24.892C10.3705 24.9827 10.1732 25.028 9.95188 25.028C9.73054 25.028 9.53188 24.9827 9.35588 24.892C9.17988 24.7987 9.04121 24.6653 8.93988 24.492C8.84121 24.3187 8.79188 24.116 8.79188 23.884C8.79188 23.652 8.84121 23.4493 8.93988 23.276C9.04121 23.1027 9.17988 22.9707 9.35588 22.88C9.53188 22.7867 9.73054 22.74 9.95188 22.74ZM9.95188 23.332C9.82121 23.332 9.71054 23.38 9.61988 23.476C9.53188 23.5693 9.48788 23.7053 9.48788 23.884C9.48788 24.0627 9.53188 24.1987 9.61988 24.292C9.71054 24.3853 9.82121 24.432 9.95188 24.432C10.0825 24.432 10.1919 24.3853 10.2799 24.292C10.3679 24.1987 10.4119 24.0627 10.4119 23.884C10.4119 23.7053 10.3679 23.5693 10.2799 23.476C10.1919 23.38 10.0825 23.332 9.95188 23.332ZM13.6826 22.768V25H12.9946V24.596C12.9306 24.7267 12.8346 24.8307 12.7066 24.908C12.5812 24.9853 12.4346 25.024 12.2666 25.024C12.0106 25.024 11.8066 24.9387 11.6546 24.768C11.5052 24.5973 11.4306 24.3627 11.4306 24.064V22.768H12.1106V23.98C12.1106 24.132 12.1492 24.2507 12.2266 24.336C12.3066 24.4187 12.4132 24.46 12.5466 24.46C12.6852 24.46 12.7946 24.416 12.8746 24.328C12.9546 24.24 12.9946 24.1147 12.9946 23.952V22.768H13.6826ZM15.57 22.744C15.826 22.744 16.0286 22.8293 16.178 23C16.33 23.1707 16.406 23.4053 16.406 23.704V25H15.722V23.784C15.722 23.6347 15.682 23.5187 15.602 23.436C15.5246 23.3507 15.4206 23.308 15.29 23.308C15.1513 23.308 15.0406 23.352 14.958 23.44C14.878 23.528 14.838 23.6533 14.838 23.816V25H14.154V22.768H14.838V23.176C14.902 23.0427 14.9966 22.9373 15.122 22.86C15.25 22.7827 15.3993 22.744 15.57 22.744ZM17.7051 22.74C17.8758 22.74 18.0224 22.7787 18.1451 22.856C18.2678 22.9333 18.3571 23.0387 18.4131 23.172V22.04H19.0971V25H18.4131V24.596C18.3571 24.7293 18.2678 24.8347 18.1451 24.912C18.0224 24.9893 17.8758 25.028 17.7051 25.028C17.5211 25.028 17.3558 24.9827 17.2091 24.892C17.0651 24.7987 16.9504 24.6653 16.8651 24.492C16.7824 24.3187 16.7411 24.116 16.7411 23.884C16.7411 23.6493 16.7824 23.4467 16.8651 23.276C16.9504 23.1027 17.0651 22.9707 17.2091 22.88C17.3558 22.7867 17.5211 22.74 17.7051 22.74ZM17.9251 23.34C17.7784 23.34 17.6598 23.388 17.5691 23.484C17.4811 23.58 17.4371 23.7133 17.4371 23.884C17.4371 24.0547 17.4811 24.188 17.5691 24.284C17.6598 24.38 17.7784 24.428 17.9251 24.428C18.0691 24.428 18.1864 24.3787 18.2771 24.28C18.3704 24.1813 18.4171 24.0493 18.4171 23.884C18.4171 23.716 18.3704 23.584 18.2771 23.488C18.1864 23.3893 18.0691 23.34 17.9251 23.34ZM20.416 22.74C20.5867 22.74 20.7334 22.7787 20.856 22.856C20.9787 22.9333 21.0694 23.0387 21.128 23.172V22.768H21.808V25H21.128V24.596C21.0694 24.7293 20.9787 24.8347 20.856 24.912C20.7334 24.9893 20.5867 25.028 20.416 25.028C20.232 25.028 20.0667 24.9827 19.92 24.892C19.776 24.7987 19.6614 24.6653 19.576 24.492C19.4934 24.3187 19.452 24.116 19.452 23.884C19.452 23.6493 19.4934 23.4467 19.576 23.276C19.6614 23.1027 19.776 22.9707 19.92 22.88C20.0667 22.7867 20.232 22.74 20.416 22.74ZM20.636 23.34C20.4894 23.34 20.3707 23.388 20.28 23.484C20.192 23.58 20.148 23.7133 20.148 23.884C20.148 24.0547 20.192 24.188 20.28 24.284C20.3707 24.38 20.4894 24.428 20.636 24.428C20.78 24.428 20.8974 24.3787 20.988 24.28C21.0814 24.1813 21.128 24.0493 21.128 23.884C21.128 23.716 21.0814 23.584 20.988 23.488C20.8974 23.3893 20.78 23.34 20.636 23.34ZM23.543 24.412V25H23.235C22.9736 25 22.7696 24.936 22.623 24.808C22.479 24.6773 22.407 24.4627 22.407 24.164V23.344H22.107V22.768H22.407V22.22H23.091V22.768H23.539V23.344H23.091V24.176C23.091 24.264 23.1083 24.3253 23.143 24.36C23.1803 24.3947 23.2416 24.412 23.327 24.412H23.543ZM23.8634 22.14C23.8634 22.036 23.9007 21.9507 23.9754 21.884C24.0501 21.8147 24.1487 21.78 24.2714 21.78C24.3941 21.78 24.4927 21.8147 24.5674 21.884C24.6421 21.9507 24.6794 22.036 24.6794 22.14C24.6794 22.2413 24.6421 22.3267 24.5674 22.396C24.4927 22.4627 24.3941 22.496 24.2714 22.496C24.1487 22.496 24.0501 22.4627 23.9754 22.396C23.9007 22.3267 23.8634 22.2413 23.8634 22.14ZM24.6114 22.768V25H23.9274V22.768H24.6114ZM26.1277 22.74C26.349 22.74 26.5463 22.7867 26.7197 22.88C26.8957 22.9707 27.033 23.1027 27.1317 23.276C27.233 23.4493 27.2837 23.652 27.2837 23.884C27.2837 24.116 27.233 24.3187 27.1317 24.492C27.033 24.6653 26.8957 24.7987 26.7197 24.892C26.5463 24.9827 26.349 25.028 26.1277 25.028C25.9063 25.028 25.7077 24.9827 25.5317 24.892C25.3557 24.7987 25.217 24.6653 25.1157 24.492C25.017 24.3187 24.9677 24.116 24.9677 23.884C24.9677 23.652 25.017 23.4493 25.1157 23.276C25.217 23.1027 25.3557 22.9707 25.5317 22.88C25.7077 22.7867 25.9063 22.74 26.1277 22.74ZM26.1277 23.332C25.997 23.332 25.8863 23.38 25.7957 23.476C25.7077 23.5693 25.6637 23.7053 25.6637 23.884C25.6637 24.0627 25.7077 24.1987 25.7957 24.292C25.8863 24.3853 25.997 24.432 26.1277 24.432C26.2583 24.432 26.3677 24.3853 26.4557 24.292C26.5437 24.1987 26.5877 24.0627 26.5877 23.884C26.5877 23.7053 26.5437 23.5693 26.4557 23.476C26.3677 23.38 26.2583 23.332 26.1277 23.332ZM29.0543 22.744C29.3103 22.744 29.513 22.8293 29.6623 23C29.8143 23.1707 29.8903 23.4053 29.8903 23.704V25H29.2063V23.784C29.2063 23.6347 29.1663 23.5187 29.0863 23.436C29.009 23.3507 28.905 23.308 28.7743 23.308C28.6357 23.308 28.525 23.352 28.4423 23.44C28.3623 23.528 28.3223 23.6533 28.3223 23.816V25H27.6383V22.768H28.3223V23.176C28.3863 23.0427 28.481 22.9373 28.6063 22.86C28.7343 22.7827 28.8837 22.744 29.0543 22.744ZM31.1535 22.74C31.4361 22.74 31.6615 22.8107 31.8295 22.952C32.0001 23.0933 32.1068 23.28 32.1495 23.512H31.5095C31.4908 23.4213 31.4481 23.3507 31.3815 23.3C31.3175 23.2467 31.2361 23.22 31.1375 23.22C31.0601 23.22 31.0015 23.2373 30.9615 23.272C30.9215 23.304 30.9015 23.3507 30.9015 23.412C30.9015 23.4813 30.9375 23.5333 31.0095 23.568C31.0841 23.6027 31.2001 23.6373 31.3575 23.672C31.5281 23.712 31.6681 23.7533 31.7775 23.796C31.8868 23.836 31.9815 23.9027 32.0615 23.996C32.1415 24.0893 32.1815 24.2147 32.1815 24.372C32.1815 24.5 32.1468 24.6133 32.0775 24.712C32.0081 24.8107 31.9081 24.888 31.7775 24.944C31.6468 25 31.4921 25.028 31.3135 25.028C31.0121 25.028 30.7708 24.9613 30.5895 24.828C30.4081 24.6947 30.2975 24.504 30.2575 24.256H30.9175C30.9281 24.352 30.9681 24.4253 31.0375 24.476C31.1095 24.5267 31.2015 24.552 31.3135 24.552C31.3908 24.552 31.4495 24.5347 31.4895 24.5C31.5295 24.4627 31.5495 24.4147 31.5495 24.356C31.5495 24.2787 31.5121 24.224 31.4375 24.192C31.3655 24.1573 31.2468 24.1213 31.0815 24.084C30.9161 24.0493 30.7801 24.012 30.6735 23.972C30.5668 23.932 30.4748 23.868 30.3975 23.78C30.3201 23.6893 30.2815 23.5667 30.2815 23.412C30.2815 23.212 30.3575 23.0507 30.5095 22.928C30.6615 22.8027 30.8761 22.74 31.1535 22.74Z" fill="#33C3F7"/>
<defs>
<linearGradient id="paint0_linear_1791_4879" x1="19.0018" y1="0.96936" x2="19.0018" y2="39.6688" gradientUnits="userSpaceOnUse">
<stop stop-color="#62E1FB"/>
<stop offset="1" stop-color="#28BCF6"/>
</linearGradient>
<linearGradient id="paint1_linear_1791_4879" x1="19.0002" y1="2.97552" x2="19.0002" y2="37.6626" gradientUnits="userSpaceOnUse">
<stop stop-color="#62E1FB"/>
<stop offset="1" stop-color="#28BCF6"/>
</linearGradient>
</defs>
</svg>
