<svg width="25" height="24" viewBox="0 0 25 24" fill="none" xmlns="http://www.w3.org/2000/svg">
<path d="M20.2643 2.83338H4.73593C4.56137 2.83096 4.38805 2.86294 4.22586 2.92751C4.06367 2.99207 3.91579 3.08796 3.79066 3.20968C3.66553 3.33141 3.5656 3.47659 3.49659 3.63694C3.42757 3.79729 3.39082 3.96966 3.38843 4.14421V19.8559C3.39082 20.0304 3.42757 20.2028 3.49659 20.3632C3.5656 20.5235 3.66553 20.6687 3.79066 20.7904C3.91579 20.9121 4.06367 21.008 4.22586 21.0726C4.38805 21.1372 4.56137 21.1691 4.73593 21.1667H20.2643C20.4388 21.1691 20.6121 21.1372 20.7743 21.0726C20.9365 21.008 21.0844 20.9121 21.2095 20.7904C21.3347 20.6687 21.4346 20.5235 21.5036 20.3632C21.5726 20.2028 21.6094 20.0304 21.6118 19.8559V4.14421C21.6094 3.96966 21.5726 3.79729 21.5036 3.63694C21.4346 3.47659 21.3347 3.33141 21.2095 3.20968C21.0844 3.08796 20.9365 2.99207 20.7743 2.92751C20.6121 2.86294 20.4388 2.83096 20.2643 2.83338ZM8.91593 18.1784H6.16593V9.92838H8.91593V18.1784ZM7.54093 8.77338C7.16167 8.77338 6.79794 8.62272 6.52976 8.35454C6.26159 8.08637 6.11093 7.72264 6.11093 7.34338C6.11093 6.96412 6.26159 6.60039 6.52976 6.33222C6.79794 6.06404 7.16167 5.91338 7.54093 5.91338C7.74232 5.89054 7.94626 5.9105 8.1394 5.97194C8.33254 6.03338 8.51052 6.13493 8.6617 6.26993C8.81287 6.40493 8.93383 6.57034 9.01664 6.75532C9.09946 6.94031 9.14227 7.1407 9.14227 7.34338C9.14227 7.54606 9.09946 7.74645 9.01664 7.93144C8.93383 8.11643 8.81287 8.28183 8.6617 8.41683C8.51052 8.55183 8.33254 8.65338 8.1394 8.71482C7.94626 8.77626 7.74232 8.79622 7.54093 8.77338ZM18.8343 18.1784H16.0843V13.7509C16.0843 12.6417 15.6901 11.9175 14.6909 11.9175C14.3817 11.9198 14.0806 12.0168 13.8282 12.1955C13.5758 12.3741 13.3842 12.6258 13.2793 12.9167C13.2075 13.1322 13.1764 13.3591 13.1876 13.5859V18.1692H10.4376C10.4376 18.1692 10.4376 10.6709 10.4376 9.91921H13.1876V11.0834C13.4374 10.6499 13.8008 10.2928 14.2385 10.0505C14.6762 9.80819 15.1718 9.68991 15.6718 9.70838C17.5051 9.70838 18.8343 10.8909 18.8343 13.43V18.1784Z" fill="#2D64BC"/>
</svg>
