<svg width="41" height="48" viewBox="0 0 41 48" fill="none" xmlns="http://www.w3.org/2000/svg">
<g id="logos:stately-icon" clip-path="url(#clip0_1630_4084)">
<path id="Vector" d="M13.1159 0.00701959L39.6414 26.5325C39.9478 26.8578 40.1583 27.3173 40.1583 27.8149C40.1583 28.3698 39.9095 28.8674 39.5075 29.1927L21.4027 47.2975C21.2257 47.475 21.0154 47.6158 20.7839 47.7118C20.5524 47.8079 20.3042 47.8573 20.0535 47.8573C19.8029 47.8573 19.5547 47.8079 19.3232 47.7118C19.0917 47.6158 18.8814 47.475 18.7043 47.2975L0.561279 29.1545C0.383824 28.9774 0.243035 28.7671 0.146973 28.5356C0.0509114 28.3041 0.00146484 28.0559 0.00146484 27.8052C0.00146484 27.5546 0.0509114 27.3064 0.146973 27.0748C0.243035 26.8433 0.383824 26.633 0.561279 26.456L11.7379 15.26L12.9818 16.504L13.2427 16.7607C15.0182 18.6128 17.4311 23.2243 13.7858 27.1066C13.403 27.4894 13.403 28.0828 13.7858 28.4655L19.3741 34.0731C19.7569 34.4558 20.3501 34.4558 20.7329 34.0731L26.3213 28.4847C26.4935 28.3123 26.6275 28.0635 26.6275 27.7957C26.6275 27.5468 26.5127 27.298 26.3404 27.1259L21.5558 22.3413L21.5751 22.3222L13.1351 13.8822C9.30732 10.0354 9.26889 3.85377 13.1159 0.00701959ZM24.2604 1.44059C26.1814 -0.480196 29.2956 -0.480196 31.2163 1.44059C33.137 3.36137 33.137 6.47557 31.2163 8.39635C29.2956 10.3171 26.1814 10.3171 24.2604 8.39635C22.3396 6.47557 22.3396 3.36137 24.2604 1.44059Z" fill="#FF7D3F"/>
</g>
<defs>
<clipPath id="clip0_1630_4084">
<rect width="40.16" height="48" fill="white"/>
</clipPath>
</defs>
</svg>
