<svg width="48" height="48" viewBox="0 0 48 48" fill="none" xmlns="http://www.w3.org/2000/svg">
<g id="logos:survicate-icon" clip-path="url(#clip0_1630_4088)">
<path id="Vector" d="M11.9223 11.1479V0.0052093C10.3586 0.00582545 8.8104 0.314771 7.36625 0.914368C5.92211 1.51396 4.61037 2.39244 3.50609 3.49953C1.326 5.68242 0.0731626 8.62568 0.00395331 11.7113L0.000976562 11.981C0.0115812 15.1451 1.26795 18.176 3.49605 20.4123C5.66354 22.5901 8.58975 23.8447 11.6616 23.9131L11.9213 23.9159C15.0735 23.9065 18.093 22.6462 20.3165 20.4119C22.5442 18.1756 23.8006 15.1449 23.8112 11.9812V0.00539535C20.7911 0.00715415 17.8849 1.15794 15.6823 3.22419C13.4758 5.29209 12.1321 8.12391 11.9223 11.1479ZM35.699 23.9193H47.6203C47.6205 20.8907 46.476 17.974 44.4162 15.7537C42.3621 13.539 39.5425 12.1884 36.5293 11.9758H47.6201C47.6205 8.80633 46.3699 5.76614 44.1426 3.5213C41.9759 1.33507 39.046 0.073933 35.9688 0.00297674L35.7 0C32.5472 0.0110745 29.5278 1.27356 27.3055 3.50995C25.1333 5.69377 23.8864 8.63349 23.8196 11.714L23.8168 11.9749C23.825 15.139 25.0791 18.1712 27.3055 20.4093C29.5276 22.6455 32.5466 23.908 35.699 23.9193ZM11.9275 23.9191H0.00618587C0.00531939 26.9466 1.14844 29.8627 3.20656 32.0832C5.25895 34.2979 8.07656 35.6495 11.0884 35.8642H0.00618587C0.00618587 39.0339 1.25698 42.074 3.48451 44.3187C5.65142 46.5047 8.58143 47.7656 11.6587 47.8363L11.9273 47.8393C15.0796 47.8274 18.0982 46.5645 20.3199 44.3282C22.4916 42.1447 23.7381 39.2054 23.8047 36.1252L23.8075 35.8642C23.7999 32.7005 22.5461 29.6683 20.3199 27.4301C18.0982 25.1937 15.0796 23.9309 11.9273 23.9191H11.9275ZM35.7381 23.923H35.7085C32.5558 23.9318 29.5355 25.1921 27.3117 27.427C25.0834 29.6636 23.827 32.6953 23.8168 35.8597V47.8355C26.8363 47.8343 29.7423 46.6844 31.9452 44.6192C34.1517 42.5524 35.4962 39.722 35.7076 36.6988V47.8355C37.2712 47.8351 38.8194 47.5263 40.2635 46.9269C41.7077 46.3274 43.0194 45.4491 44.1238 44.3421C46.3036 42.1571 47.5579 39.2163 47.6259 36.1306L47.6289 35.8607C47.6188 32.6964 46.3627 29.6647 44.1346 27.4279C41.9109 25.1929 38.8908 23.9323 35.7381 23.923Z" fill="#FF7D3F"/>
</g>
<defs>
<clipPath id="clip0_1630_4088">
<rect width="47.63" height="48" fill="white"/>
</clipPath>
</defs>
</svg>
