<svg width="40" height="28" viewBox="0 0 40 28" fill="none" xmlns="http://www.w3.org/2000/svg">
<g clip-path="url(#clip0_3433_37821)">
<path d="M24.172 6.10614L15.5645 6.13574L15.8253 21.8939L24.4328 21.8643L24.172 6.10614Z" fill="#FF5F00"/>
<path d="M16.133 14.0468C16.0797 10.8417 17.5155 7.99383 19.7644 6.14658C18.0669 4.81454 15.9388 4.01354 13.6319 4.02144C8.1667 4.04015 3.81968 8.54242 3.91185 14.0886C4.00402 19.6348 8.50017 24.1068 13.9654 24.0881C16.2723 24.0802 18.3735 23.2647 20.0265 21.9212C17.717 20.1174 16.1863 17.2519 16.133 14.0468Z" fill="#EB001B"/>
<path d="M36.0898 13.9118C36.182 19.458 31.835 23.9603 26.3698 23.979C24.0629 23.9869 21.9347 23.1859 20.2373 21.8539C22.5136 20.0065 23.9219 17.1588 23.8687 13.9537C23.8154 10.7486 22.2851 7.91088 19.9751 6.07925C21.6281 4.73573 23.7294 3.92025 26.0363 3.91235C31.5015 3.89363 35.9981 8.39348 36.0898 13.9118Z" fill="#F79E1B"/>
</g>
<defs>
<clipPath id="clip0_3433_37821">
<rect width="40" height="26.6667" fill="white" transform="translate(0 0.666626)"/>
</clipPath>
</defs>
</svg>
