<svg width="52" height="52" viewBox="0 0 52 52" fill="none" xmlns="http://www.w3.org/2000/svg">
<path d="M24.4333 10.8333V10.2333H23.8333H18.7819L26 3.01515L33.2181 10.2333H28.1667H27.5667V10.8333V20.0993C26.4352 20.821 25.3884 21.6558 24.4333 22.5891V10.8333ZM20.6455 28.0525C18.4511 26.3488 15.7737 25.4619 13.0134 25.4001L12.4 25.3864V26V31.0514L5.18186 23.8333L12.4 16.6152V21.6666V22.2641L12.9975 22.2666C16.3054 22.2806 19.522 23.3237 22.204 25.2438C21.5977 26.1346 21.0783 27.0759 20.6455 28.0525ZM39.6 16.6152L46.8139 23.829L39.4917 31.0066V25.935V25.335H38.8917C38.3251 25.335 35.7954 25.4483 33.2563 26.6965C30.6852 27.9605 28.108 30.393 27.5708 34.9649L27.5148 35.4412L27.967 35.6008C29.64 36.1912 30.9763 37.5095 31.5651 39.1976L31.5654 39.1983C32.0825 40.6751 31.9942 42.2965 31.3196 43.7084C30.6452 45.1198 29.4396 46.2071 27.9663 46.7327C26.4901 47.2515 24.8685 47.164 23.4567 46.4894C22.0448 45.8148 20.9578 44.6079 20.434 43.1333C19.9151 41.6571 20.0026 40.0353 20.6772 38.6234C21.352 37.2111 22.5591 36.1241 24.0341 35.6004L24.3984 35.471L24.4312 35.0858C24.737 31.4868 26.4202 28.1447 29.1299 25.7564C31.8395 23.368 35.3664 22.1177 38.9753 22.2661L39.6 22.2918V21.6666V16.6152Z" fill="#F2A93B" stroke="white" stroke-width="1.2"/>
</svg>
