<svg width="52" height="52" viewBox="0 0 52 52" fill="none" xmlns="http://www.w3.org/2000/svg">
<g clip-path="url(#clip0_3_147)">
<mask id="path-1-inside-1_3_147" fill="white">
<path fill-rule="evenodd" clip-rule="evenodd" d="M30.3333 4.33327C32.0572 4.31776 33.7167 4.9877 34.9467 6.19571C36.1766 7.40373 36.8763 9.05086 36.8918 10.7748C36.9073 12.4987 36.2374 14.1581 35.0294 15.3881C33.8214 16.6181 32.1742 17.3178 30.4503 17.3333L29.978 18.7481C31.0947 19.4263 32.064 20.3217 32.8284 21.3812C33.5929 22.4408 34.1369 23.643 34.4283 24.9166H37.2862C37.7839 23.7761 38.6592 22.8417 39.7649 22.2706C40.8706 21.6996 42.1391 21.5266 43.3573 21.7809C44.5755 22.0351 45.669 22.7011 46.4539 23.6667C47.2388 24.6324 47.6673 25.8388 47.6673 27.0833C47.6673 28.3277 47.2388 29.5342 46.4539 30.4998C45.669 31.4655 44.5755 32.1314 43.3573 32.3857C42.1391 32.6399 40.8706 32.467 39.7649 31.8959C38.6592 31.3248 37.7839 30.3905 37.2862 29.2499H34.4262C34.0665 30.8308 33.3172 32.2966 32.2465 33.5139L33.7718 35.0393C34.9303 34.5847 36.2099 34.5428 37.3956 34.9208C38.5813 35.2988 39.6007 36.0735 40.2823 37.1146C40.964 38.1558 41.2663 39.3999 41.1385 40.6378C41.0108 41.8757 40.4606 43.0318 39.5807 43.9118C38.7007 44.7917 37.5446 45.3419 36.3067 45.4696C35.0688 45.5974 33.8247 45.2951 32.7835 44.6134C31.7424 43.9318 30.9677 42.9124 30.5897 41.7267C30.2117 40.5411 30.2536 39.2614 30.7082 38.1029L28.6845 36.0793C27.4913 36.5789 26.2103 36.8352 24.9167 36.8333C23.4277 36.8347 21.9584 36.4937 20.6223 35.8366L18.7352 38.1029C19.4574 39.4553 19.6783 41.0195 19.3588 42.519C19.0394 44.0185 18.2003 45.3568 16.9896 46.2975C15.7789 47.2382 14.2747 47.7206 12.7428 47.6596C11.2109 47.5986 9.74982 46.9981 8.61781 45.9641C7.4858 44.9301 6.75571 43.5293 6.55656 42.0091C6.3574 40.489 6.702 38.9473 7.52946 37.6567C8.35692 36.366 9.61397 35.4093 11.0785 34.9557C12.543 34.5022 14.1207 34.5809 15.5328 35.1779L17.2532 33.1109C15.8985 31.3941 15.1633 29.2702 15.1667 27.0833C15.1667 25.4908 15.548 23.9893 16.224 22.6611L14.3433 21.0924C13.2306 21.65 11.9599 21.8074 10.7448 21.5381C9.52973 21.2688 8.44443 20.5894 7.67145 19.6139C6.89847 18.6385 6.48497 17.4267 6.50048 16.1822C6.516 14.9377 6.95958 13.7366 7.75664 12.7807C8.5537 11.8249 9.6556 11.1727 10.877 10.9338C12.0984 10.6949 13.3649 10.8839 14.4633 11.469C15.5618 12.0541 16.4252 12.9997 16.9084 14.1466C17.3917 15.2935 17.4652 16.5718 17.1167 17.7666L19.0017 19.3353C20.959 17.8353 23.414 17.1365 25.8678 17.3809L26.3402 15.9639C25.2709 15.1322 24.4882 13.9872 24.1014 12.6889C23.7147 11.3905 23.7433 10.0038 24.1832 8.72256C24.6231 7.44128 25.4523 6.32947 26.555 5.54251C27.6577 4.75555 28.9786 4.33277 30.3333 4.33327ZM13 38.9999C12.4254 38.9999 11.8743 39.2282 11.4679 39.6345C11.0616 40.0409 10.8333 40.592 10.8333 41.1666C10.8333 41.7412 11.0616 42.2923 11.4679 42.6987C11.8743 43.105 12.4254 43.3333 13 43.3333C13.5746 43.3333 14.1257 43.105 14.5321 42.6987C14.9384 42.2923 15.1667 41.7412 15.1667 41.1666C15.1667 40.592 14.9384 40.0409 14.5321 39.6345C14.1257 39.2282 13.5746 38.9999 13 38.9999ZM35.75 38.9999C35.4627 38.9999 35.1871 39.1141 34.984 39.3172C34.7808 39.5204 34.6667 39.796 34.6667 40.0833C34.6667 40.3706 34.7808 40.6461 34.984 40.8493C35.1871 41.0525 35.4627 41.1666 35.75 41.1666C36.0373 41.1666 36.3129 41.0525 36.516 40.8493C36.7192 40.6461 36.8333 40.3706 36.8333 40.0833C36.8333 39.796 36.7192 39.5204 36.516 39.3172C36.3129 39.1141 36.0373 38.9999 35.75 38.9999ZM24.9167 21.6666C23.4801 21.6666 22.1023 22.2373 21.0865 23.2531C20.0707 24.2689 19.5 25.6467 19.5 27.0833C19.5 28.5199 20.0707 29.8976 21.0865 30.9134C22.1023 31.9293 23.4801 32.4999 24.9167 32.4999C26.3533 32.4999 27.731 31.9293 28.7468 30.9134C29.7626 29.8976 30.3333 28.5199 30.3333 27.0833C30.3333 25.6467 29.7626 24.2689 28.7468 23.2531C27.731 22.2373 26.3533 21.6666 24.9167 21.6666ZM42.25 25.9999C41.9627 25.9999 41.6871 26.1141 41.484 26.3172C41.2808 26.5204 41.1667 26.796 41.1667 27.0833C41.1667 27.3706 41.2808 27.6461 41.484 27.8493C41.6871 28.0525 41.9627 28.1666 42.25 28.1666C42.5373 28.1666 42.8129 28.0525 43.016 27.8493C43.2192 27.6461 43.3333 27.3706 43.3333 27.0833C43.3333 26.796 43.2192 26.5204 43.016 26.3172C42.8129 26.1141 42.5373 25.9999 42.25 25.9999ZM11.9167 15.1666C11.6293 15.1666 11.3538 15.2807 11.1506 15.4839C10.9475 15.6871 10.8333 15.9626 10.8333 16.2499C10.8333 16.5373 10.9475 16.8128 11.1506 17.016C11.3538 17.2191 11.6293 17.3333 11.9167 17.3333C12.204 17.3333 12.4795 17.2191 12.6827 17.016C12.8859 16.8128 13 16.5373 13 16.2499C13 15.9626 12.8859 15.6871 12.6827 15.4839C12.4795 15.2807 12.204 15.1666 11.9167 15.1666ZM30.3333 8.6666C29.7587 8.6666 29.2076 8.89488 28.8013 9.30121C28.3949 9.70754 28.1667 10.2586 28.1667 10.8333C28.1667 11.4079 28.3949 11.959 28.8013 12.3653C29.2076 12.7717 29.7587 12.9999 30.3333 12.9999C30.908 12.9999 31.4591 12.7717 31.8654 12.3653C32.2717 11.959 32.5 11.4079 32.5 10.8333C32.5 10.2586 32.2717 9.70754 31.8654 9.30121C31.4591 8.89488 30.908 8.6666 30.3333 8.6666Z"/>
</mask>
<path fill-rule="evenodd" clip-rule="evenodd" d="M30.3333 4.33327C32.0572 4.31776 33.7167 4.9877 34.9467 6.19571C36.1766 7.40373 36.8763 9.05086 36.8918 10.7748C36.9073 12.4987 36.2374 14.1581 35.0294 15.3881C33.8214 16.6181 32.1742 17.3178 30.4503 17.3333L29.978 18.7481C31.0947 19.4263 32.064 20.3217 32.8284 21.3812C33.5929 22.4408 34.1369 23.643 34.4283 24.9166H37.2862C37.7839 23.7761 38.6592 22.8417 39.7649 22.2706C40.8706 21.6996 42.1391 21.5266 43.3573 21.7809C44.5755 22.0351 45.669 22.7011 46.4539 23.6667C47.2388 24.6324 47.6673 25.8388 47.6673 27.0833C47.6673 28.3277 47.2388 29.5342 46.4539 30.4998C45.669 31.4655 44.5755 32.1314 43.3573 32.3857C42.1391 32.6399 40.8706 32.467 39.7649 31.8959C38.6592 31.3248 37.7839 30.3905 37.2862 29.2499H34.4262C34.0665 30.8308 33.3172 32.2966 32.2465 33.5139L33.7718 35.0393C34.9303 34.5847 36.2099 34.5428 37.3956 34.9208C38.5813 35.2988 39.6007 36.0735 40.2823 37.1146C40.964 38.1558 41.2663 39.3999 41.1385 40.6378C41.0108 41.8757 40.4606 43.0318 39.5807 43.9118C38.7007 44.7917 37.5446 45.3419 36.3067 45.4696C35.0688 45.5974 33.8247 45.2951 32.7835 44.6134C31.7424 43.9318 30.9677 42.9124 30.5897 41.7267C30.2117 40.5411 30.2536 39.2614 30.7082 38.1029L28.6845 36.0793C27.4913 36.5789 26.2103 36.8352 24.9167 36.8333C23.4277 36.8347 21.9584 36.4937 20.6223 35.8366L18.7352 38.1029C19.4574 39.4553 19.6783 41.0195 19.3588 42.519C19.0394 44.0185 18.2003 45.3568 16.9896 46.2975C15.7789 47.2382 14.2747 47.7206 12.7428 47.6596C11.2109 47.5986 9.74982 46.9981 8.61781 45.9641C7.4858 44.9301 6.75571 43.5293 6.55656 42.0091C6.3574 40.489 6.702 38.9473 7.52946 37.6567C8.35692 36.366 9.61397 35.4093 11.0785 34.9557C12.543 34.5022 14.1207 34.5809 15.5328 35.1779L17.2532 33.1109C15.8985 31.3941 15.1633 29.2702 15.1667 27.0833C15.1667 25.4908 15.548 23.9893 16.224 22.6611L14.3433 21.0924C13.2306 21.65 11.9599 21.8074 10.7448 21.5381C9.52973 21.2688 8.44443 20.5894 7.67145 19.6139C6.89847 18.6385 6.48497 17.4267 6.50048 16.1822C6.516 14.9377 6.95958 13.7366 7.75664 12.7807C8.5537 11.8249 9.6556 11.1727 10.877 10.9338C12.0984 10.6949 13.3649 10.8839 14.4633 11.469C15.5618 12.0541 16.4252 12.9997 16.9084 14.1466C17.3917 15.2935 17.4652 16.5718 17.1167 17.7666L19.0017 19.3353C20.959 17.8353 23.414 17.1365 25.8678 17.3809L26.3402 15.9639C25.2709 15.1322 24.4882 13.9872 24.1014 12.6889C23.7147 11.3905 23.7433 10.0038 24.1832 8.72256C24.6231 7.44128 25.4523 6.32947 26.555 5.54251C27.6577 4.75555 28.9786 4.33277 30.3333 4.33327ZM13 38.9999C12.4254 38.9999 11.8743 39.2282 11.4679 39.6345C11.0616 40.0409 10.8333 40.592 10.8333 41.1666C10.8333 41.7412 11.0616 42.2923 11.4679 42.6987C11.8743 43.105 12.4254 43.3333 13 43.3333C13.5746 43.3333 14.1257 43.105 14.5321 42.6987C14.9384 42.2923 15.1667 41.7412 15.1667 41.1666C15.1667 40.592 14.9384 40.0409 14.5321 39.6345C14.1257 39.2282 13.5746 38.9999 13 38.9999ZM35.75 38.9999C35.4627 38.9999 35.1871 39.1141 34.984 39.3172C34.7808 39.5204 34.6667 39.796 34.6667 40.0833C34.6667 40.3706 34.7808 40.6461 34.984 40.8493C35.1871 41.0525 35.4627 41.1666 35.75 41.1666C36.0373 41.1666 36.3129 41.0525 36.516 40.8493C36.7192 40.6461 36.8333 40.3706 36.8333 40.0833C36.8333 39.796 36.7192 39.5204 36.516 39.3172C36.3129 39.1141 36.0373 38.9999 35.75 38.9999ZM24.9167 21.6666C23.4801 21.6666 22.1023 22.2373 21.0865 23.2531C20.0707 24.2689 19.5 25.6467 19.5 27.0833C19.5 28.5199 20.0707 29.8976 21.0865 30.9134C22.1023 31.9293 23.4801 32.4999 24.9167 32.4999C26.3533 32.4999 27.731 31.9293 28.7468 30.9134C29.7626 29.8976 30.3333 28.5199 30.3333 27.0833C30.3333 25.6467 29.7626 24.2689 28.7468 23.2531C27.731 22.2373 26.3533 21.6666 24.9167 21.6666ZM42.25 25.9999C41.9627 25.9999 41.6871 26.1141 41.484 26.3172C41.2808 26.5204 41.1667 26.796 41.1667 27.0833C41.1667 27.3706 41.2808 27.6461 41.484 27.8493C41.6871 28.0525 41.9627 28.1666 42.25 28.1666C42.5373 28.1666 42.8129 28.0525 43.016 27.8493C43.2192 27.6461 43.3333 27.3706 43.3333 27.0833C43.3333 26.796 43.2192 26.5204 43.016 26.3172C42.8129 26.1141 42.5373 25.9999 42.25 25.9999ZM11.9167 15.1666C11.6293 15.1666 11.3538 15.2807 11.1506 15.4839C10.9475 15.6871 10.8333 15.9626 10.8333 16.2499C10.8333 16.5373 10.9475 16.8128 11.1506 17.016C11.3538 17.2191 11.6293 17.3333 11.9167 17.3333C12.204 17.3333 12.4795 17.2191 12.6827 17.016C12.8859 16.8128 13 16.5373 13 16.2499C13 15.9626 12.8859 15.6871 12.6827 15.4839C12.4795 15.2807 12.204 15.1666 11.9167 15.1666ZM30.3333 8.6666C29.7587 8.6666 29.2076 8.89488 28.8013 9.30121C28.3949 9.70754 28.1667 10.2586 28.1667 10.8333C28.1667 11.4079 28.3949 11.959 28.8013 12.3653C29.2076 12.7717 29.7587 12.9999 30.3333 12.9999C30.908 12.9999 31.4591 12.7717 31.8654 12.3653C32.2717 11.959 32.5 11.4079 32.5 10.8333C32.5 10.2586 32.2717 9.70754 31.8654 9.30121C31.4591 8.89488 30.908 8.6666 30.3333 8.6666Z" fill="#F2A93B" stroke="white" stroke-width="2" mask="url(#path-1-inside-1_3_147)"/>
</g>
<defs>
<clipPath id="clip0_3_147">
<rect width="52" height="52" fill="white"/>
</clipPath>
</defs>
</svg>
