<svg width="40" height="28" viewBox="0 0 40 28" fill="none" xmlns="http://www.w3.org/2000/svg">
<g clip-path="url(#clip0_3433_37833)">
<path d="M8.97487 10.2644C8.55707 9.97721 8.01187 9.83325 7.33927 9.83325H4.73535C4.52916 9.83325 4.41524 9.93637 4.39361 10.1424L3.33584 16.7823C3.32485 16.8475 3.34116 16.9071 3.38464 16.9614C3.42787 17.0157 3.48224 17.0427 3.54735 17.0427H4.7842C5.00113 17.0427 5.12037 16.9398 5.14226 16.7335L5.43516 14.9434C5.44585 14.8567 5.484 14.7861 5.54912 14.7318C5.61419 14.6776 5.69557 14.6421 5.79322 14.6259C5.89086 14.6098 5.98294 14.6016 6.06989 14.6016C6.1566 14.6016 6.25962 14.6072 6.37916 14.618C6.49839 14.6288 6.5744 14.6341 6.60699 14.6341C7.53999 14.6341 8.27233 14.3712 8.80405 13.8448C9.33552 13.3187 9.60155 12.5891 9.60155 11.6558C9.60155 11.0157 9.39248 10.552 8.97487 10.2643V10.2644ZM7.63232 12.2582C7.5779 12.638 7.43702 12.8874 7.20919 13.0068C6.98131 13.1263 6.65583 13.1858 6.23276 13.1858L5.69567 13.202L5.9724 11.4606C5.99398 11.3414 6.06447 11.2817 6.18391 11.2817H6.49322C6.92699 11.2817 7.24182 11.3442 7.43712 11.4688C7.63232 11.5937 7.69743 11.8568 7.63232 12.2582Z" fill="#003087"/>
<path d="M36.4538 9.83325H35.2497C35.13 9.83325 35.0595 9.89295 35.038 10.0124L33.9802 16.7826L33.9639 16.8151C33.9639 16.8696 33.9856 16.9209 34.0291 16.9698C34.0722 17.0185 34.1267 17.0429 34.1917 17.0429H35.266C35.4718 17.0429 35.5858 16.9401 35.6078 16.7338L36.6656 10.0775V10.0613C36.6655 9.90936 36.5948 9.83345 36.4538 9.83345V9.83325Z" fill="#009CDE"/>
<path d="M21.9059 12.4537C21.9059 12.3995 21.8841 12.3479 21.841 12.2992C21.7975 12.2504 21.7486 12.2258 21.6945 12.2258H20.4414C20.3218 12.2258 20.2241 12.2803 20.1483 12.3885L18.4233 14.9274L17.7072 12.4863C17.6527 12.3128 17.5335 12.2258 17.3492 12.2258H16.1284C16.074 12.2258 16.0252 12.2503 15.9821 12.2992C15.9386 12.3479 15.917 12.3996 15.917 12.4537C15.917 12.4755 16.0228 12.7955 16.2343 13.4139C16.4458 14.0325 16.6737 14.6998 16.9178 15.4159C17.162 16.1319 17.2893 16.5118 17.3002 16.5548C16.4105 17.7702 15.9658 18.4211 15.9658 18.5078C15.9658 18.649 16.0362 18.7194 16.1774 18.7194H17.4305C17.5498 18.7194 17.6474 18.6653 17.7235 18.5567L21.8736 12.5675C21.8951 12.546 21.9059 12.5082 21.9059 12.4536V12.4537Z" fill="#003087"/>
<path d="M33.5728 12.2259H32.3359C32.1838 12.2259 32.0919 12.4049 32.0593 12.763C31.7769 12.3292 31.2619 12.1119 30.5131 12.1119C29.732 12.1119 29.0674 12.4049 28.5196 12.9908C27.9716 13.5767 27.6978 14.2659 27.6978 15.0578C27.6978 15.6981 27.8849 16.208 28.2591 16.5876C28.6334 16.9676 29.1352 17.1572 29.7647 17.1572C30.0792 17.1572 30.3993 17.092 30.7248 16.9619C31.0502 16.8317 31.305 16.6582 31.4898 16.4411C31.4898 16.452 31.4787 16.5007 31.4572 16.5874C31.4353 16.6744 31.4246 16.7397 31.4246 16.7827C31.4246 16.9565 31.495 17.0431 31.6362 17.0431H32.7592C32.9651 17.0431 33.0846 16.9402 33.117 16.7339L33.7844 12.4862C33.7951 12.4211 33.7789 12.3615 33.7356 12.3072C33.6919 12.2531 33.6378 12.2259 33.5728 12.2259ZM31.449 15.4321C31.1723 15.7033 30.8386 15.8389 30.4481 15.8389C30.1333 15.8389 29.8786 15.7522 29.6832 15.5785C29.4878 15.4053 29.3901 15.1666 29.3901 14.8625C29.3901 14.4613 29.5258 14.122 29.7971 13.8453C30.068 13.5687 30.4047 13.4304 30.8061 13.4304C31.1096 13.4304 31.3619 13.5199 31.5629 13.6988C31.7634 13.8779 31.864 14.1247 31.864 14.4394C31.864 14.83 31.7256 15.161 31.449 15.4321Z" fill="#009CDE"/>
<path d="M15.0866 12.2259H13.8497C13.6976 12.2259 13.6056 12.4049 13.573 12.763C13.28 12.3292 12.7646 12.1119 12.0269 12.1119C11.2457 12.1119 10.5811 12.4049 10.0332 12.9908C9.48527 13.5767 9.21143 14.2659 9.21143 15.0578C9.21143 15.6981 9.39861 16.208 9.77294 16.5876C10.1473 16.9676 10.6489 17.1572 11.2783 17.1572C11.5819 17.1572 11.8968 17.092 12.2222 16.9619C12.5477 16.8317 12.8081 16.6582 13.0034 16.4411C12.9598 16.5712 12.9383 16.6852 12.9383 16.7827C12.9383 16.9565 13.0087 17.0431 13.1498 17.0431H14.2727C14.4787 17.0431 14.5982 16.9402 14.6308 16.7339L15.298 12.4862C15.3087 12.4211 15.2925 12.3615 15.2492 12.3072C15.2058 12.2531 15.1516 12.2259 15.0866 12.2259ZM12.9628 15.4401C12.6861 15.7063 12.3468 15.8389 11.9457 15.8389C11.6308 15.8389 11.3786 15.7522 11.1889 15.5785C10.9989 15.4053 10.904 15.1666 10.904 14.8625C10.904 14.4613 11.0396 14.122 11.3109 13.8453C11.582 13.5687 11.9184 13.4303 12.3199 13.4303C12.6236 13.4303 12.8758 13.5199 13.0767 13.6988C13.2773 13.8779 13.3778 14.1247 13.3778 14.4394C13.3777 14.8409 13.2395 15.1746 12.9628 15.4401Z" fill="#003087"/>
<path d="M27.4613 10.2644C27.0435 9.97721 26.4985 9.83325 25.8257 9.83325H23.238C23.021 9.83325 22.9016 9.93637 22.88 10.1424L21.8222 16.7823C21.8112 16.8475 21.8275 16.9071 21.871 16.9614C21.914 17.0157 21.9686 17.0427 22.0337 17.0427H23.3681C23.4983 17.0427 23.5851 16.9723 23.6286 16.8312L23.9215 14.9434C23.9323 14.8567 23.9703 14.7861 24.0355 14.7318C24.1006 14.6776 24.1819 14.6421 24.2796 14.6259C24.3772 14.6098 24.4693 14.6016 24.5563 14.6016C24.643 14.6016 24.746 14.6072 24.8654 14.618C24.9847 14.6288 25.0609 14.6341 25.0933 14.6341C26.0265 14.6341 26.7586 14.3712 27.2904 13.8448C27.822 13.3187 28.0878 12.5891 28.0878 11.6558C28.0879 11.0157 27.8789 10.5519 27.4613 10.2643V10.2644ZM25.7932 12.9416C25.5545 13.1043 25.1964 13.1857 24.7191 13.1857L24.1983 13.202L24.4749 11.4605C24.4964 11.3414 24.567 11.2816 24.6864 11.2816H24.9793C25.218 11.2816 25.4078 11.2925 25.5491 11.3141C25.6899 11.3359 25.8257 11.4036 25.9559 11.5174C26.0862 11.6314 26.1512 11.797 26.1512 12.0138C26.1512 12.4697 26.0317 12.7788 25.7932 12.9416Z" fill="#009CDE"/>
</g>
<defs>
<clipPath id="clip0_3433_37833">
<rect y="0.666626" width="40" height="26.6667" rx="6.66667" fill="white"/>
</clipPath>
</defs>
</svg>
