<svg width="25" height="24" viewBox="0 0 25 24" fill="none" xmlns="http://www.w3.org/2000/svg">
<path d="M20.2339 7.51241C20.0756 7.33496 19.8997 7.17408 19.7088 7.03226C19.7872 6.41819 19.733 5.79445 19.5499 5.20308C19.3669 4.61171 19.0592 4.06645 18.6476 3.60404C17.654 2.48417 15.9603 1.91663 13.6131 1.91663H7.91707C7.50556 1.91772 7.10784 2.06508 6.79496 2.33237C6.48208 2.59967 6.27441 2.96949 6.20906 3.37578L3.83503 18.4148C3.80144 18.6164 3.81222 18.8229 3.86661 19.0199C3.921 19.2169 4.0177 19.3996 4.14996 19.5554C4.28223 19.7112 4.44687 19.8363 4.63242 19.9219C4.81798 20.0075 5.01997 20.0517 5.22433 20.0512H7.66641L7.59125 20.5284C7.56085 20.7203 7.57241 20.9165 7.62514 21.1036C7.67787 21.2906 7.77051 21.464 7.89669 21.6117C8.02286 21.7595 8.17956 21.8782 8.35601 21.9596C8.53246 22.041 8.72445 22.0832 8.91877 22.0833H11.8836C12.2677 22.0864 12.6403 21.9524 12.9345 21.7055C13.2286 21.4585 13.4252 21.1148 13.4887 20.736L14.0759 17.0407L14.0858 16.9906H14.3597C18.0559 16.9906 20.3646 15.1635 21.0378 11.7081C21.2431 10.9948 21.2774 10.2431 21.1377 9.51411C20.998 8.78509 20.6884 8.09929 20.2339 7.51241ZM8.68872 13.5621L8.03378 17.7194L7.95466 18.2179H5.72208L8.00569 3.74996H13.6131C15.3874 3.74996 16.654 4.12057 17.2726 4.81701C17.5646 5.1565 17.7682 5.56282 17.8654 5.99992C17.9626 6.43701 17.9504 6.89134 17.8299 7.32258L17.8128 7.42546C17.8017 7.49557 17.7915 7.56405 17.773 7.65116C17.5962 8.961 16.9416 10.1593 15.935 11.0158C14.8049 11.8017 13.4429 12.1838 12.0689 12.1002H10.3976C9.98491 12.0989 9.58542 12.2456 9.27181 12.5139C8.95819 12.7822 8.75128 13.1541 8.68872 13.5621ZM19.2384 11.3572C18.7336 13.9497 17.1831 15.1573 14.3597 15.1573H13.9166C13.5321 15.1543 13.1592 15.2886 12.865 15.5361C12.5707 15.7836 12.3745 16.1279 12.3115 16.5072L11.7162 20.2419L9.4908 20.25L9.9291 17.4689L10.4893 13.9371H12.0653C12.2091 13.9371 12.3361 13.9155 12.4761 13.9106C12.805 13.8993 13.133 13.8866 13.4411 13.8484C13.6292 13.825 13.8019 13.7822 13.9822 13.7488C14.232 13.7026 14.482 13.6569 14.7165 13.5918C14.891 13.5432 15.0539 13.4807 15.2198 13.4216C15.4392 13.3438 15.6551 13.2621 15.8593 13.1662C16.0133 13.0937 16.16 13.013 16.3053 12.9303C16.4987 12.8208 16.6861 12.7009 16.8666 12.5713C16.9971 12.4772 17.1251 12.3807 17.2471 12.277C17.42 12.1279 17.5843 11.9691 17.7393 11.8013C17.8428 11.6908 17.9489 11.5836 18.0448 11.4647C18.2039 11.262 18.3508 11.0499 18.4848 10.8298C18.5549 10.7178 18.6326 10.6141 18.6971 10.4963C18.8828 10.1565 19.0424 9.80308 19.1745 9.4391C19.1824 9.41723 19.1938 9.39877 19.2015 9.37677C19.2052 9.36648 19.2106 9.35791 19.2143 9.34757C19.3959 10.0041 19.4042 10.6965 19.2384 11.3572Z" fill="#1D1D1F"/>
</svg>
