<svg width="104" height="104" viewBox="0 0 104 104" fill="none" xmlns="http://www.w3.org/2000/svg">
<g id="ph:user">
<path id="Vector" d="M93.811 86.1248C87.6238 75.4283 78.0891 67.7583 66.9619 64.1223C72.4659 60.8457 76.7422 55.853 79.134 49.9109C81.5259 43.9687 81.901 37.4057 80.2019 31.2297C78.5027 25.0537 74.8232 19.6062 69.7284 15.7238C64.6336 11.8414 58.4052 9.73877 51.9998 9.73877C45.5943 9.73877 39.3659 11.8414 34.2711 15.7238C29.1763 19.6062 25.4968 25.0537 23.7976 31.2297C22.0985 37.4057 22.4736 43.9687 24.8655 49.9109C27.2573 55.853 31.5336 60.8457 37.0376 64.1223C25.9104 67.7542 16.3757 75.4242 10.1885 86.1248C9.96161 86.4948 9.81111 86.9065 9.74589 87.3355C9.68067 87.7646 9.70205 88.2024 9.80876 88.6231C9.91548 89.0437 10.1054 89.4388 10.3672 89.7849C10.6291 90.131 10.9576 90.4211 11.3334 90.6382C11.7092 90.8553 12.1247 90.9949 12.5554 91.0488C12.986 91.1027 13.4231 91.0698 13.8408 90.952C14.2585 90.8343 14.6484 90.634 14.9875 90.3632C15.3266 90.0923 15.608 89.7562 15.8151 89.3748C23.4688 76.1473 36.9969 68.2498 51.9998 68.2498C67.0026 68.2498 80.5307 76.1473 88.1844 89.3748C88.3915 89.7562 88.6729 90.0923 89.012 90.3632C89.3511 90.634 89.741 90.8343 90.1587 90.952C90.5764 91.0698 91.0135 91.1027 91.4442 91.0488C91.8748 90.9949 92.2903 90.8553 92.6661 90.6382C93.0419 90.4211 93.3704 90.131 93.6323 89.7849C93.8941 89.4388 94.084 89.0437 94.1907 88.6231C94.2975 88.2024 94.3188 87.7646 94.2536 87.3355C94.1884 86.9065 94.0379 86.4948 93.811 86.1248ZM29.2498 38.9998C29.2498 34.5003 30.584 30.1018 33.0838 26.3606C35.5836 22.6194 39.1367 19.7035 43.2937 17.9816C47.4507 16.2597 52.025 15.8091 56.4381 16.687C60.8511 17.5648 64.9048 19.7315 68.0864 22.9131C71.2681 26.0948 73.4348 30.1485 74.3126 34.5615C75.1904 38.9746 74.7399 43.5489 73.018 47.7059C71.2961 51.8629 68.3802 55.416 64.639 57.9158C60.8978 60.4156 56.4993 61.7498 51.9998 61.7498C45.9681 61.7434 40.1853 59.3444 35.9202 55.0794C31.6551 50.8143 29.2562 45.0315 29.2498 38.9998Z" fill="#FF7D3F"/>
</g>
</svg>
