<svg width="14" height="12" viewBox="0 0 14 12" fill="none" xmlns="http://www.w3.org/2000/svg">
<path d="M1.16675 6C1.16675 3.52492 1.16675 2.28767 2.02075 1.51883C2.87591 0.75 4.25025 0.75 7.00008 0.75C9.74991 0.75 11.1248 0.75 11.9788 1.51883C12.8328 2.28767 12.8334 3.5255 12.8334 6C12.8334 8.4745 12.8334 9.71233 11.9788 10.4812C11.1254 11.25 9.74991 11.25 7.00008 11.25C4.25025 11.25 2.87533 11.25 2.02075 10.4812C1.16616 9.71233 1.16675 8.4745 1.16675 6Z" stroke="black" stroke-width="0.875" stroke-linecap="round" stroke-linejoin="round"/>
<path d="M3.5 8.33335H5.83333M8.16667 3.66669H10.5M8.16667 6.00002H10.5M8.16667 8.33335H10.5M4.9 3.66669H4.43333C3.9935 3.66669 3.77358 3.66669 3.6365 3.80319C3.5 3.94085 3.5 4.16019 3.5 4.60002V5.06669C3.5 5.50652 3.5 5.72644 3.6365 5.86352C3.77417 6.00002 3.9935 6.00002 4.43333 6.00002H4.9C5.33983 6.00002 5.55975 6.00002 5.69683 5.86352C5.83333 5.72585 5.83333 5.50652 5.83333 5.06669V4.60002C5.83333 4.16019 5.83333 3.94027 5.69683 3.80319C5.55917 3.66669 5.33983 3.66669 4.9 3.66669Z" stroke="black" stroke-width="0.875" stroke-linecap="round" stroke-linejoin="round"/>
</svg>
