<svg width="20" height="20" viewBox="0 0 20 20" fill="none" xmlns="http://www.w3.org/2000/svg">
<path fill-rule="evenodd" clip-rule="evenodd" d="M4.125 9.23611C4.125 6.41332 6.41332 4.125 9.23611 4.125C12.0589 4.125 14.3472 6.41332 14.3472 9.23611C14.3472 10.6073 13.8073 11.8523 12.9285 12.7702C12.8996 12.7933 12.8717 12.8182 12.845 12.845C12.8182 12.8717 12.7933 12.8996 12.7702 12.9285C11.8523 13.8073 10.6073 14.3472 9.23611 14.3472C6.41332 14.3472 4.125 12.0589 4.125 9.23611ZM13.5076 14.9219C12.3183 15.8168 10.8392 16.3472 9.23611 16.3472C5.30875 16.3472 2.125 13.1635 2.125 9.23611C2.125 5.30875 5.30875 2.125 9.23611 2.125C13.1635 2.125 16.3472 5.30875 16.3472 9.23611C16.3472 10.8392 15.8168 12.3183 14.9219 13.5076L17.5821 16.1679C17.9726 16.5584 17.9726 17.1916 17.5821 17.5821C17.1916 17.9726 16.5584 17.9726 16.1679 17.5821L13.5076 14.9219Z" fill="#666666"/>
</svg>
