<svg width="16" height="16" viewBox="0 0 16 16" fill="none" xmlns="http://www.w3.org/2000/svg">
<path fill-rule="evenodd" clip-rule="evenodd" d="M15.1972 0.803187C15.3648 0.9708 15.4365 1.19801 15.4122 1.4166C15.4055 1.4779 15.3911 1.53851 15.3692 1.59694L10.7081 14.9146C10.6065 15.2049 10.338 15.4037 10.0307 15.4162C9.72348 15.4288 9.4397 15.2525 9.31481 14.9715L6.7653 9.23505L1.0289 6.68554C0.747886 6.56065 0.571588 6.27687 0.584123 5.96961C0.596659 5.66235 0.795487 5.39388 1.08574 5.29229L14.4034 0.631106C14.4618 0.609232 14.5225 0.594899 14.5837 0.588106C14.629 0.583058 14.6744 0.582181 14.7194 0.585351C14.8935 0.597512 15.0641 0.670125 15.1972 0.803187ZM11.8126 3.12712L3.36681 6.08314L7.1674 7.77229L11.8126 3.12712ZM8.22806 8.83295L12.8732 4.18778L9.91721 12.6335L8.22806 8.83295Z" fill="white"/>
</svg>
