<svg width="20" height="19" viewBox="0 0 20 19" fill="none" xmlns="http://www.w3.org/2000/svg">
<path d="M9.32834 1.28445C9.60411 0.72941 10.3959 0.729409 10.6717 1.28445L12.9239 5.81746C13.0331 6.03726 13.243 6.18971 13.4857 6.22566L18.4929 6.96689C19.106 7.05765 19.3506 7.81067 18.908 8.24447L15.2928 11.7873C15.1175 11.959 15.0374 12.2057 15.0782 12.4477L15.9205 17.4388C16.0237 18.05 15.3831 18.5154 14.8338 18.2284L10.3472 15.885C10.1297 15.7714 9.87031 15.7714 9.65277 15.885L5.16623 18.2284C4.61688 18.5154 3.97632 18.05 4.07946 17.4388L4.92179 12.4477C4.96263 12.2057 4.88248 11.959 4.70719 11.7873L1.09202 8.24447C0.649365 7.81067 0.894037 7.05765 1.50713 6.96689L6.51426 6.22566C6.75705 6.18971 6.96689 6.03726 7.07609 5.81746L9.32834 1.28445Z" fill="#FFE600"/>
</svg>
