<svg width="90" height="90" viewBox="0 0 90 90" fill="none" xmlns="http://www.w3.org/2000/svg">
<g id="streamline:office-building-1" clip-path="url(#clip0_1630_4105)">
<path id="Vector" d="M54.3921 30.5357V10.2472C54.3921 6.64717 51.4736 3.72217 47.8671 3.72217H17.0743C13.4614 3.72217 10.5429 6.64074 10.5429 10.2472V86.2779M3.33643 86.2779H35.2736M10.5429 20.4879H26.3571M10.5429 36.9643H35.2736M48.0793 86.2779C48.1108 82.988 48.9732 79.7595 50.5864 76.8922C52.271 73.917 54.7089 71.4376 57.6553 69.7032C60.6016 67.9688 63.9526 67.0404 67.3714 67.0115C70.7918 67.0406 74.1443 67.9697 77.0918 69.7053C80.0394 71.4408 82.4781 73.9217 84.1629 76.8986C85.77 79.7593 86.6379 82.9865 86.67 86.2779M67.3714 64.4915C70.3551 64.4915 73.2166 63.3062 75.3264 61.1964C77.4362 59.0866 78.6214 56.2251 78.6214 53.2415C78.6214 50.2578 77.4362 47.3963 75.3264 45.2865C73.2166 43.1767 70.3551 41.9915 67.3714 41.9915C64.3877 41.9915 61.5263 43.1767 59.4165 45.2865C57.3067 47.3963 56.1214 50.2578 56.1214 53.2415C56.1214 56.2251 57.3067 59.0866 59.4165 61.1964C61.5263 63.3062 64.3877 64.4915 67.3714 64.4915Z" stroke="#76889B" stroke-width="8.42857" stroke-linecap="round" stroke-linejoin="round"/>
</g>
<defs>
<clipPath id="clip0_1630_4105">
<rect width="90" height="90" fill="white"/>
</clipPath>
</defs>
</svg>
