<svg width="118" height="118" viewBox="0 0 118 118" fill="none" xmlns="http://www.w3.org/2000/svg">
<g id="ph:student-light">
<path id="Vector" d="M104.126 26.8772L59.8758 12.1272C59.3073 11.9374 58.6927 11.9374 58.1242 12.1272L13.8742 26.8772C13.3239 27.0609 12.8454 27.413 12.5062 27.8837C12.167 28.3544 11.9845 28.9198 11.9844 29.4999V66.3749C11.9844 67.1084 12.2758 67.8119 12.7944 68.3305C13.3131 68.8492 14.0165 69.1405 14.75 69.1405C15.4835 69.1405 16.1869 68.8492 16.7056 68.3305C17.2242 67.8119 17.5156 67.1084 17.5156 66.3749V33.3349L35.3447 39.281C33.0964 42.6037 31.5728 46.3626 30.8732 50.313C30.1736 54.2634 30.3135 58.3169 31.284 62.2096C32.2545 66.1024 34.0337 69.7472 36.5059 72.9069C38.9781 76.0666 42.0878 78.6703 45.6328 80.5488C36.7598 83.5587 29.0391 89.5785 23.5078 98.0644C23.1899 98.6733 23.1099 99.3788 23.2836 100.044C23.4573 100.708 23.8721 101.284 24.4473 101.66C25.0225 102.036 25.7169 102.184 26.3953 102.075C27.0737 101.967 27.6875 101.61 28.1172 101.074C35.2479 90.1547 46.4994 83.8905 59 83.8905C71.5006 83.8905 82.7521 90.1547 89.8828 101.074C90.3099 101.622 90.9272 101.988 91.6122 102.102C92.2972 102.215 92.9997 102.066 93.5802 101.685C94.1607 101.305 94.5768 100.719 94.7457 100.046C94.9147 99.3726 94.8242 98.6603 94.4922 98.0505C88.9609 89.5785 81.2495 83.5587 72.3672 80.5349C75.9103 78.6545 79.0178 76.0492 81.4877 72.8886C83.9576 69.728 85.7344 66.0828 86.7027 62.1902C87.6709 58.2976 87.8089 54.2448 87.1076 50.2954C86.4063 46.346 84.8815 42.5885 82.6323 39.2672L104.126 32.1227C104.676 31.9387 105.154 31.5864 105.493 31.1158C105.832 30.6451 106.014 30.0799 106.014 29.4999C106.014 28.92 105.832 28.3547 105.493 27.8841C105.154 27.4134 104.676 27.0612 104.126 26.8772ZM82.0469 55.3124C82.0485 58.9848 81.1725 62.6045 79.4918 65.8698C77.8112 69.1351 75.3746 71.9515 72.385 74.0843C69.3954 76.2171 65.9394 77.6047 62.3049 78.1313C58.6704 78.6579 54.9627 78.3084 51.4907 77.1118C48.0187 75.9152 44.8829 73.9063 42.3445 71.2523C39.8062 68.5983 37.9389 65.3761 36.8981 61.8543C35.8573 58.3324 35.6732 54.6129 36.3611 51.0054C37.049 47.398 38.5891 44.0072 40.8529 41.1155L58.1242 46.8727C58.6927 47.0624 59.3073 47.0624 59.8758 46.8727L77.1471 41.1155C80.3267 45.1642 82.0524 50.1645 82.0469 55.3124ZM59 41.3368L23.5078 29.4999L59 17.6631L94.4922 29.4999L59 41.3368Z" fill="#FF7D3F"/>
</g>
</svg>
