<svg width="13" height="13" viewBox="0 0 13 13" fill="none" xmlns="http://www.w3.org/2000/svg">
<path d="M8.91667 4.25H3.08333V3.08333H8.91667V4.25ZM7.75 6.58333V8.73583L9.61083 9.80917L10.0483 9.05083L8.625 8.22833V6.58333H7.75ZM4.25 11.8333L5.34083 11.11C5.72179 11.5234 6.18455 11.853 6.69971 12.0779C7.21488 12.3029 7.7712 12.4182 8.33333 12.4167C10.5908 12.4167 12.4167 10.5908 12.4167 8.33333C12.4167 7.21917 11.9733 6.21 11.25 5.475V0.75H0.75V11.8333L2.5 10.6667L4.25 11.8333ZM4.25 10.4333L2.5 9.26667L1.91667 9.65167V1.91667H10.0833V4.64083C9.5525 4.39 8.9575 4.25 8.33333 4.25C7.21917 4.25 6.21 4.69333 5.475 5.41667H3.08333V6.58333H4.64083C4.39 7.11417 4.25 7.70917 4.25 8.33333C4.25 8.98667 4.40167 9.59917 4.67583 10.1475L4.25 10.4333ZM8.33333 11.25C6.72333 11.25 5.41667 9.94333 5.41667 8.33333C5.41667 6.72333 6.72333 5.41667 8.33333 5.41667C9.94333 5.41667 11.25 6.72333 11.25 8.33333C11.25 9.94333 9.94333 11.25 8.33333 11.25Z" fill="black"/>
</svg>
