<svg width="20" height="20" viewBox="0 0 20 20" fill="none" xmlns="http://www.w3.org/2000/svg">
<path d="M2.50033 9.16675C2.33551 9.16675 2.17439 9.21562 2.03735 9.30719C1.90031 9.39876 1.7935 9.52891 1.73043 9.68118C1.66735 9.83345 1.65085 10.001 1.683 10.1627C1.71516 10.3243 1.79453 10.4728 1.91107 10.5893C2.02761 10.7059 2.1761 10.7852 2.33775 10.8174C2.4994 10.8496 2.66696 10.8331 2.81923 10.77C2.9715 10.7069 3.10165 10.6001 3.19322 10.4631C3.28479 10.326 3.33366 10.1649 3.33366 10.0001C3.33366 9.77907 3.24586 9.56711 3.08958 9.41083C2.9333 9.25455 2.72134 9.16675 2.50033 9.16675ZM4.10866 14.7167C3.99162 14.8331 3.91176 14.9816 3.8792 15.1434C3.84665 15.3051 3.86286 15.473 3.92579 15.6255C3.98871 15.7781 4.09552 15.9085 4.23267 16.0003C4.36982 16.0921 4.53113 16.1411 4.69616 16.1411C4.86119 16.1411 5.0225 16.0921 5.15965 16.0003C5.2968 15.9085 5.40361 15.7781 5.46653 15.6255C5.52946 15.473 5.54567 15.3051 5.51312 15.1434C5.48056 14.9816 5.4007 14.8331 5.28366 14.7167C5.12752 14.5615 4.91631 14.4744 4.69616 14.4744C4.476 14.4744 4.26479 14.5615 4.10866 14.7167ZM5.28366 5.28342C5.4007 5.16707 5.48056 5.01859 5.51312 4.85681C5.54567 4.69502 5.52946 4.52721 5.46653 4.37465C5.40361 4.22209 5.2968 4.09165 5.15965 3.99986C5.0225 3.90807 4.86119 3.85908 4.69616 3.85908C4.53113 3.85908 4.36982 3.90807 4.23267 3.99986C4.09552 4.09165 3.98871 4.22209 3.92579 4.37465C3.86286 4.52721 3.84665 4.69502 3.8792 4.85681C3.91176 5.01859 3.99162 5.16707 4.10866 5.28342C4.26479 5.43862 4.476 5.52574 4.69616 5.52574C4.91631 5.52574 5.12752 5.43862 5.28366 5.28342ZM10.0003 3.33342C10.1651 3.33342 10.3263 3.28454 10.4633 3.19297C10.6003 3.10141 10.7072 2.97126 10.7702 2.81898C10.8333 2.66671 10.8498 2.49916 10.8176 2.33751C10.7855 2.17586 10.7061 2.02737 10.5896 1.91083C10.473 1.79428 10.3246 1.71492 10.1629 1.68276C10.0013 1.65061 9.83369 1.66711 9.68142 1.73018C9.52915 1.79326 9.399 1.90007 9.30744 2.03711C9.21587 2.17415 9.16699 2.33526 9.16699 2.50008C9.16699 2.7211 9.25479 2.93306 9.41107 3.08934C9.56735 3.24562 9.77931 3.33342 10.0003 3.33342ZM14.717 14.7167C14.6 14.8331 14.5201 14.9816 14.4875 15.1434C14.455 15.3051 14.4712 15.473 14.5341 15.6255C14.597 15.7781 14.7039 15.9085 14.841 16.0003C14.9782 16.0921 15.1395 16.1411 15.3045 16.1411C15.4695 16.1411 15.6308 16.0921 15.768 16.0003C15.9051 15.9085 16.0119 15.7781 16.0749 15.6255C16.1378 15.473 16.154 15.3051 16.1214 15.1434C16.0889 14.9816 16.009 14.8331 15.892 14.7167C15.7359 14.5615 15.5246 14.4744 15.3045 14.4744C15.0843 14.4744 14.8731 14.5615 14.717 14.7167ZM17.5003 9.16675C17.3355 9.16675 17.1744 9.21562 17.0373 9.30719C16.9003 9.39876 16.7935 9.52891 16.7304 9.68118C16.6674 9.83345 16.6508 10.001 16.683 10.1627C16.7152 10.3243 16.7945 10.4728 16.9111 10.5893C17.0276 10.7059 17.1761 10.7852 17.3377 10.8174C17.4994 10.8496 17.667 10.8331 17.8192 10.77C17.9715 10.7069 18.1017 10.6001 18.1932 10.4631C18.2848 10.326 18.3337 10.1649 18.3337 10.0001C18.3337 9.77907 18.2459 9.56711 18.0896 9.41083C17.9333 9.25455 17.7213 9.16675 17.5003 9.16675ZM14.717 4.10841C14.6 4.22476 14.5201 4.37324 14.4875 4.53502C14.455 4.69681 14.4712 4.86462 14.5341 5.01718C14.597 5.16974 14.7039 5.30018 14.841 5.39197C14.9782 5.48376 15.1395 5.53275 15.3045 5.53275C15.4695 5.53275 15.6308 5.48376 15.768 5.39197C15.9051 5.30018 16.0119 5.16974 16.0749 5.01718C16.1378 4.86462 16.154 4.69681 16.1214 4.53502C16.0889 4.37324 16.009 4.22476 15.892 4.10841C15.7359 3.95321 15.5246 3.86609 15.3045 3.86609C15.0843 3.86609 14.8731 3.95321 14.717 4.10841ZM10.0003 16.6667C9.83551 16.6667 9.67439 16.7156 9.53735 16.8072C9.40031 16.8988 9.2935 17.0289 9.23043 17.1812C9.16735 17.3335 9.15085 17.501 9.183 17.6627C9.21516 17.8243 9.29453 17.9728 9.41107 18.0893C9.52761 18.2059 9.6761 18.2852 9.83775 18.3174C9.9994 18.3496 10.167 18.3331 10.3192 18.27C10.4715 18.2069 10.6016 18.1001 10.6932 17.9631C10.7848 17.826 10.8337 17.6649 10.8337 17.5001C10.8337 17.2791 10.7459 17.0671 10.5896 16.9108C10.4333 16.7545 10.2213 16.6667 10.0003 16.6667ZM10.0003 5.00008C9.01142 5.00008 8.04472 5.29333 7.22247 5.84273C6.40023 6.39214 5.75937 7.17303 5.38093 8.08666C5.00249 9.0003 4.90347 10.0056 5.0964 10.9755C5.28933 11.9454 5.76553 12.8364 6.46479 13.5356C7.16405 14.2349 8.05497 14.7111 9.02487 14.904C9.99478 15.0969 11.0001 14.9979 11.9137 14.6195C12.8274 14.241 13.6083 13.6002 14.1577 12.7779C14.7071 11.9557 15.0003 10.989 15.0003 10.0001C15.0003 8.674 14.4735 7.40223 13.5359 6.46455C12.5982 5.52687 11.3264 5.00008 10.0003 5.00008ZM10.0003 13.3334C9.34105 13.3334 8.69659 13.1379 8.14843 12.7716C7.60026 12.4054 7.17302 11.8848 6.92073 11.2757C6.66844 10.6666 6.60242 9.99638 6.73104 9.34978C6.85966 8.70318 7.17713 8.10923 7.6433 7.64306C8.10948 7.17688 8.70342 6.85941 9.35003 6.7308C9.99663 6.60218 10.6669 6.66819 11.2759 6.92048C11.885 7.17277 12.4056 7.60002 12.7719 8.14818C13.1382 8.69634 13.3337 9.34081 13.3337 10.0001C13.3337 10.8841 12.9825 11.732 12.3573 12.3571C11.7322 12.9822 10.8844 13.3334 10.0003 13.3334Z" fill="#1D1D1F"/>
</svg>
