<svg width="20" height="20" viewBox="0 0 20 20" fill="none" xmlns="http://www.w3.org/2000/svg">
<mask id="path-1-inside-1_184_8071" fill="white">
<path d="M4.16699 10.0001C4.16699 9.77907 4.07919 9.56711 3.92291 9.41083C3.76663 9.25455 3.55467 9.16675 3.33366 9.16675H2.50033C2.27931 9.16675 2.06735 9.25455 1.91107 9.41083C1.75479 9.56711 1.66699 9.77907 1.66699 10.0001C1.66699 10.2211 1.75479 10.4331 1.91107 10.5893C2.06735 10.7456 2.27931 10.8334 2.50033 10.8334H3.33366C3.55467 10.8334 3.76663 10.7456 3.92291 10.5893C4.07919 10.4331 4.16699 10.2211 4.16699 10.0001ZM4.70033 14.1667L4.10866 14.7584C3.95345 14.9145 3.86633 15.1258 3.86633 15.3459C3.86633 15.5661 3.95345 15.7773 4.10866 15.9334C4.26479 16.0886 4.476 16.1757 4.69616 16.1757C4.91631 16.1757 5.12752 16.0886 5.28366 15.9334L5.87533 15.3417C6.01185 15.1823 6.08319 14.9773 6.07509 14.7675C6.06698 14.5578 5.98004 14.3589 5.83163 14.2104C5.68322 14.062 5.48427 13.9751 5.27454 13.967C5.06481 13.9589 4.85974 14.0302 4.70033 14.1667ZM10.0003 4.16675C10.2213 4.16675 10.4333 4.07895 10.5896 3.92267C10.7459 3.76639 10.8337 3.55443 10.8337 3.33341V2.50008C10.8337 2.27907 10.7459 2.06711 10.5896 1.91083C10.4333 1.75455 10.2213 1.66675 10.0003 1.66675C9.77931 1.66675 9.56735 1.75455 9.41107 1.91083C9.25479 2.06711 9.16699 2.27907 9.16699 2.50008V3.33341C9.16699 3.55443 9.25479 3.76639 9.41107 3.92267C9.56735 4.07895 9.77931 4.16675 10.0003 4.16675ZM14.717 6.11675C14.9356 6.11583 15.1451 6.02904 15.3003 5.87508L15.892 5.28342C15.9792 5.20871 16.0501 5.11678 16.1001 5.01339C16.1501 4.91 16.1782 4.79739 16.1827 4.68263C16.1871 4.56786 16.1678 4.45342 16.1259 4.34648C16.084 4.23954 16.0204 4.14242 15.9392 4.06121C15.858 3.97999 15.7609 3.91645 15.6539 3.87455C15.547 3.83265 15.4325 3.81332 15.3178 3.81775C15.203 3.82218 15.0904 3.85029 14.987 3.90031C14.8836 3.95033 14.7917 4.02118 14.717 4.10841L14.167 4.70008C14.0118 4.85622 13.9247 5.06743 13.9247 5.28758C13.9247 5.50774 14.0118 5.71895 14.167 5.87508C14.3139 6.02122 14.51 6.10738 14.717 6.11675ZM4.71699 5.87508C4.87221 6.02904 5.08171 6.11583 5.30033 6.11675C5.41 6.11738 5.51872 6.09636 5.62025 6.05489C5.72178 6.01342 5.81413 5.95232 5.89199 5.87508C6.0472 5.71895 6.13432 5.50774 6.13432 5.28758C6.13432 5.06743 6.0472 4.85622 5.89199 4.70008L5.30033 4.10841C5.22317 4.03017 5.13137 3.96789 5.03014 3.92512C4.92892 3.88235 4.82027 3.85995 4.71038 3.85917C4.6005 3.8584 4.49154 3.87927 4.38973 3.92061C4.28791 3.96195 4.19524 4.02293 4.11699 4.10008C4.03875 4.17723 3.97646 4.26904 3.9337 4.37026C3.89093 4.47149 3.86852 4.58014 3.86775 4.69002C3.86619 4.91194 3.95284 5.12539 4.10866 5.28342L4.71699 5.87508ZM17.5003 9.16675H16.667C16.446 9.16675 16.234 9.25455 16.0777 9.41083C15.9215 9.56711 15.8337 9.77907 15.8337 10.0001C15.8337 10.2211 15.9215 10.4331 16.0777 10.5893C16.234 10.7456 16.446 10.8334 16.667 10.8334H17.5003C17.7213 10.8334 17.9333 10.7456 18.0896 10.5893C18.2459 10.4331 18.3337 10.2211 18.3337 10.0001C18.3337 9.77907 18.2459 9.56711 18.0896 9.41083C17.9333 9.25455 17.7213 9.16675 17.5003 9.16675ZM15.3003 14.1667C15.142 14.0787 14.9593 14.0446 14.7799 14.0697C14.6005 14.0948 14.4341 14.1776 14.306 14.3057C14.1779 14.4339 14.095 14.6002 14.0699 14.7796C14.0449 14.9591 14.0789 15.1418 14.167 15.3001L14.7587 15.8917C14.9148 16.047 15.126 16.1341 15.3462 16.1341C15.5663 16.1341 15.7775 16.047 15.9337 15.8917C16.0889 15.7356 16.176 15.5244 16.176 15.3042C16.176 15.0841 16.0889 14.8729 15.9337 14.7167L15.3003 14.1667ZM10.0003 5.41675C9.09383 5.41675 8.20769 5.68556 7.45396 6.18918C6.70024 6.6928 6.11278 7.40862 5.76588 8.24612C5.41898 9.08361 5.32821 10.0052 5.50506 10.8942C5.68191 11.7833 6.11843 12.6 6.75942 13.241C7.40041 13.882 8.21708 14.3185 9.10616 14.4953C9.99524 14.6722 10.9168 14.5814 11.7543 14.2345C12.5918 13.8876 13.3076 13.3002 13.8112 12.5464C14.3149 11.7927 14.5837 10.9066 14.5837 10.0001C14.5815 8.78518 14.0979 7.62067 13.2388 6.76161C12.3797 5.90254 11.2152 5.41895 10.0003 5.41675ZM10.0003 12.9167C9.42346 12.9167 8.85956 12.7457 8.37991 12.4252C7.90027 12.1047 7.52643 11.6492 7.30568 11.1162C7.08492 10.5833 7.02716 9.99685 7.1397 9.43107C7.25224 8.86529 7.53003 8.34559 7.93793 7.93769C8.34583 7.52978 8.86553 7.252 9.43131 7.13946C9.99709 7.02692 10.5835 7.08468 11.1165 7.30543C11.6494 7.52619 12.105 7.90002 12.4254 8.37967C12.7459 8.85931 12.917 9.42322 12.917 10.0001C12.917 10.7736 12.6097 11.5155 12.0627 12.0625C11.5157 12.6095 10.7739 12.9167 10.0003 12.9167ZM10.0003 15.8334C9.77931 15.8334 9.56735 15.9212 9.41107 16.0775C9.25479 16.2338 9.16699 16.4457 9.16699 16.6667V17.5001C9.16699 17.7211 9.25479 17.9331 9.41107 18.0893C9.56735 18.2456 9.77931 18.3334 10.0003 18.3334C10.2213 18.3334 10.4333 18.2456 10.5896 18.0893C10.7459 17.9331 10.8337 17.7211 10.8337 17.5001V16.6667C10.8337 16.4457 10.7459 16.2338 10.5896 16.0775C10.4333 15.9212 10.2213 15.8334 10.0003 15.8334Z"/>
</mask>
<path d="M4.16699 10.0001C4.16699 9.77907 4.07919 9.56711 3.92291 9.41083C3.76663 9.25455 3.55467 9.16675 3.33366 9.16675H2.50033C2.27931 9.16675 2.06735 9.25455 1.91107 9.41083C1.75479 9.56711 1.66699 9.77907 1.66699 10.0001C1.66699 10.2211 1.75479 10.4331 1.91107 10.5893C2.06735 10.7456 2.27931 10.8334 2.50033 10.8334H3.33366C3.55467 10.8334 3.76663 10.7456 3.92291 10.5893C4.07919 10.4331 4.16699 10.2211 4.16699 10.0001ZM4.70033 14.1667L4.10866 14.7584C3.95345 14.9145 3.86633 15.1258 3.86633 15.3459C3.86633 15.5661 3.95345 15.7773 4.10866 15.9334C4.26479 16.0886 4.476 16.1757 4.69616 16.1757C4.91631 16.1757 5.12752 16.0886 5.28366 15.9334L5.87533 15.3417C6.01185 15.1823 6.08319 14.9773 6.07509 14.7675C6.06698 14.5578 5.98004 14.3589 5.83163 14.2104C5.68322 14.062 5.48427 13.9751 5.27454 13.967C5.06481 13.9589 4.85974 14.0302 4.70033 14.1667ZM10.0003 4.16675C10.2213 4.16675 10.4333 4.07895 10.5896 3.92267C10.7459 3.76639 10.8337 3.55443 10.8337 3.33341V2.50008C10.8337 2.27907 10.7459 2.06711 10.5896 1.91083C10.4333 1.75455 10.2213 1.66675 10.0003 1.66675C9.77931 1.66675 9.56735 1.75455 9.41107 1.91083C9.25479 2.06711 9.16699 2.27907 9.16699 2.50008V3.33341C9.16699 3.55443 9.25479 3.76639 9.41107 3.92267C9.56735 4.07895 9.77931 4.16675 10.0003 4.16675ZM14.717 6.11675C14.9356 6.11583 15.1451 6.02904 15.3003 5.87508L15.892 5.28342C15.9792 5.20871 16.0501 5.11678 16.1001 5.01339C16.1501 4.91 16.1782 4.79739 16.1827 4.68263C16.1871 4.56786 16.1678 4.45342 16.1259 4.34648C16.084 4.23954 16.0204 4.14242 15.9392 4.06121C15.858 3.97999 15.7609 3.91645 15.6539 3.87455C15.547 3.83265 15.4325 3.81332 15.3178 3.81775C15.203 3.82218 15.0904 3.85029 14.987 3.90031C14.8836 3.95033 14.7917 4.02118 14.717 4.10841L14.167 4.70008C14.0118 4.85622 13.9247 5.06743 13.9247 5.28758C13.9247 5.50774 14.0118 5.71895 14.167 5.87508C14.3139 6.02122 14.51 6.10738 14.717 6.11675ZM4.71699 5.87508C4.87221 6.02904 5.08171 6.11583 5.30033 6.11675C5.41 6.11738 5.51872 6.09636 5.62025 6.05489C5.72178 6.01342 5.81413 5.95232 5.89199 5.87508C6.0472 5.71895 6.13432 5.50774 6.13432 5.28758C6.13432 5.06743 6.0472 4.85622 5.89199 4.70008L5.30033 4.10841C5.22317 4.03017 5.13137 3.96789 5.03014 3.92512C4.92892 3.88235 4.82027 3.85995 4.71038 3.85917C4.6005 3.8584 4.49154 3.87927 4.38973 3.92061C4.28791 3.96195 4.19524 4.02293 4.11699 4.10008C4.03875 4.17723 3.97646 4.26904 3.9337 4.37026C3.89093 4.47149 3.86852 4.58014 3.86775 4.69002C3.86619 4.91194 3.95284 5.12539 4.10866 5.28342L4.71699 5.87508ZM17.5003 9.16675H16.667C16.446 9.16675 16.234 9.25455 16.0777 9.41083C15.9215 9.56711 15.8337 9.77907 15.8337 10.0001C15.8337 10.2211 15.9215 10.4331 16.0777 10.5893C16.234 10.7456 16.446 10.8334 16.667 10.8334H17.5003C17.7213 10.8334 17.9333 10.7456 18.0896 10.5893C18.2459 10.4331 18.3337 10.2211 18.3337 10.0001C18.3337 9.77907 18.2459 9.56711 18.0896 9.41083C17.9333 9.25455 17.7213 9.16675 17.5003 9.16675ZM15.3003 14.1667C15.142 14.0787 14.9593 14.0446 14.7799 14.0697C14.6005 14.0948 14.4341 14.1776 14.306 14.3057C14.1779 14.4339 14.095 14.6002 14.0699 14.7796C14.0449 14.9591 14.0789 15.1418 14.167 15.3001L14.7587 15.8917C14.9148 16.047 15.126 16.1341 15.3462 16.1341C15.5663 16.1341 15.7775 16.047 15.9337 15.8917C16.0889 15.7356 16.176 15.5244 16.176 15.3042C16.176 15.0841 16.0889 14.8729 15.9337 14.7167L15.3003 14.1667ZM10.0003 5.41675C9.09383 5.41675 8.20769 5.68556 7.45396 6.18918C6.70024 6.6928 6.11278 7.40862 5.76588 8.24612C5.41898 9.08361 5.32821 10.0052 5.50506 10.8942C5.68191 11.7833 6.11843 12.6 6.75942 13.241C7.40041 13.882 8.21708 14.3185 9.10616 14.4953C9.99524 14.6722 10.9168 14.5814 11.7543 14.2345C12.5918 13.8876 13.3076 13.3002 13.8112 12.5464C14.3149 11.7927 14.5837 10.9066 14.5837 10.0001C14.5815 8.78518 14.0979 7.62067 13.2388 6.76161C12.3797 5.90254 11.2152 5.41895 10.0003 5.41675ZM10.0003 12.9167C9.42346 12.9167 8.85956 12.7457 8.37991 12.4252C7.90027 12.1047 7.52643 11.6492 7.30568 11.1162C7.08492 10.5833 7.02716 9.99685 7.1397 9.43107C7.25224 8.86529 7.53003 8.34559 7.93793 7.93769C8.34583 7.52978 8.86553 7.252 9.43131 7.13946C9.99709 7.02692 10.5835 7.08468 11.1165 7.30543C11.6494 7.52619 12.105 7.90002 12.4254 8.37967C12.7459 8.85931 12.917 9.42322 12.917 10.0001C12.917 10.7736 12.6097 11.5155 12.0627 12.0625C11.5157 12.6095 10.7739 12.9167 10.0003 12.9167ZM10.0003 15.8334C9.77931 15.8334 9.56735 15.9212 9.41107 16.0775C9.25479 16.2338 9.16699 16.4457 9.16699 16.6667V17.5001C9.16699 17.7211 9.25479 17.9331 9.41107 18.0893C9.56735 18.2456 9.77931 18.3334 10.0003 18.3334C10.2213 18.3334 10.4333 18.2456 10.5896 18.0893C10.7459 17.9331 10.8337 17.7211 10.8337 17.5001V16.6667C10.8337 16.4457 10.7459 16.2338 10.5896 16.0775C10.4333 15.9212 10.2213 15.8334 10.0003 15.8334Z" stroke="#1D1D1F" stroke-width="2" mask="url(#path-1-inside-1_184_8071)"/>
</svg>
