<svg width="20" height="20" viewBox="0 0 20 20" fill="none" xmlns="http://www.w3.org/2000/svg">
<mask id="path-1-inside-1_1792_23372" fill="white">
<path d="M9.99984 15.834C10.1647 15.834 10.3258 15.7851 10.4628 15.6935C10.5999 15.602 10.7067 15.4718 10.7697 15.3196C10.8328 15.1673 10.8493 14.9997 10.8172 14.8381C10.785 14.6764 10.7056 14.5279 10.5891 14.4114C10.4725 14.2948 10.3241 14.2155 10.1624 14.1833C10.0008 14.1512 9.83321 14.1677 9.68093 14.2308C9.52866 14.2938 9.39851 14.4006 9.30695 14.5377C9.21538 14.6747 9.1665 14.8358 9.1665 15.0006C9.1665 15.2217 9.2543 15.4336 9.41058 15.5899C9.56686 15.7462 9.77882 15.834 9.99984 15.834ZM14.1665 15.834C14.3313 15.834 14.4924 15.7851 14.6295 15.6935C14.7665 15.602 14.8733 15.4718 14.9364 15.3196C14.9995 15.1673 15.016 14.9997 14.9838 14.8381C14.9517 14.6764 14.8723 14.5279 14.7558 14.4114C14.6392 14.2948 14.4907 14.2155 14.3291 14.1833C14.1674 14.1512 13.9999 14.1677 13.8476 14.2308C13.6953 14.2938 13.5652 14.4006 13.4736 14.5377C13.382 14.6747 13.3332 14.8358 13.3332 15.0006C13.3332 15.2217 13.421 15.4336 13.5772 15.5899C13.7335 15.7462 13.9455 15.834 14.1665 15.834ZM14.1665 12.5007C14.3313 12.5007 14.4924 12.4518 14.6295 12.3602C14.7665 12.2686 14.8733 12.1385 14.9364 11.9862C14.9995 11.8339 15.016 11.6664 14.9838 11.5047C14.9517 11.3431 14.8723 11.1946 14.7558 11.0781C14.6392 10.9615 14.4907 10.8821 14.3291 10.85C14.1674 10.8178 13.9999 10.8343 13.8476 10.8974C13.6953 10.9605 13.5652 11.0673 13.4736 11.2043C13.382 11.3414 13.3332 11.5025 13.3332 11.6673C13.3332 11.8883 13.421 12.1003 13.5772 12.2566C13.7335 12.4129 13.9455 12.5007 14.1665 12.5007ZM9.99984 12.5007C10.1647 12.5007 10.3258 12.4518 10.4628 12.3602C10.5999 12.2686 10.7067 12.1385 10.7697 11.9862C10.8328 11.8339 10.8493 11.6664 10.8172 11.5047C10.785 11.3431 10.7056 11.1946 10.5891 11.0781C10.4725 10.9615 10.3241 10.8821 10.1624 10.85C10.0008 10.8178 9.83321 10.8343 9.68093 10.8974C9.52866 10.9605 9.39851 11.0673 9.30695 11.2043C9.21538 11.3414 9.1665 11.5025 9.1665 11.6673C9.1665 11.8883 9.2543 12.1003 9.41058 12.2566C9.56686 12.4129 9.77882 12.5007 9.99984 12.5007ZM15.8332 2.50065H14.9998V1.66732C14.9998 1.4463 14.912 1.23434 14.7558 1.07806C14.5995 0.921782 14.3875 0.833984 14.1665 0.833984C13.9455 0.833984 13.7335 0.921782 13.5772 1.07806C13.421 1.23434 13.3332 1.4463 13.3332 1.66732V2.50065H6.6665V1.66732C6.6665 1.4463 6.57871 1.23434 6.42243 1.07806C6.26615 0.921782 6.05418 0.833984 5.83317 0.833984C5.61216 0.833984 5.4002 0.921782 5.24392 1.07806C5.08764 1.23434 4.99984 1.4463 4.99984 1.66732V2.50065H4.1665C3.50346 2.50065 2.86758 2.76404 2.39874 3.23288C1.9299 3.70172 1.6665 4.33761 1.6665 5.00065V16.6673C1.6665 17.3304 1.9299 17.9662 2.39874 18.4351C2.86758 18.9039 3.50346 19.1673 4.1665 19.1673H15.8332C16.4962 19.1673 17.1321 18.9039 17.6009 18.4351C18.0698 17.9662 18.3332 17.3304 18.3332 16.6673V5.00065C18.3332 4.33761 18.0698 3.70172 17.6009 3.23288C17.1321 2.76404 16.4962 2.50065 15.8332 2.50065ZM16.6665 16.6673C16.6665 16.8883 16.5787 17.1003 16.4224 17.2566C16.2661 17.4129 16.0542 17.5006 15.8332 17.5006H4.1665C3.94549 17.5006 3.73353 17.4129 3.57725 17.2566C3.42097 17.1003 3.33317 16.8883 3.33317 16.6673V9.16732H16.6665V16.6673ZM16.6665 7.50065H3.33317V5.00065C3.33317 4.77964 3.42097 4.56768 3.57725 4.4114C3.73353 4.25511 3.94549 4.16732 4.1665 4.16732H4.99984V5.00065C4.99984 5.22166 5.08764 5.43363 5.24392 5.58991C5.4002 5.74619 5.61216 5.83398 5.83317 5.83398C6.05418 5.83398 6.26615 5.74619 6.42243 5.58991C6.57871 5.43363 6.6665 5.22166 6.6665 5.00065V4.16732H13.3332V5.00065C13.3332 5.22166 13.421 5.43363 13.5772 5.58991C13.7335 5.74619 13.9455 5.83398 14.1665 5.83398C14.3875 5.83398 14.5995 5.74619 14.7558 5.58991C14.912 5.43363 14.9998 5.22166 14.9998 5.00065V4.16732H15.8332C16.0542 4.16732 16.2661 4.25511 16.4224 4.4114C16.5787 4.56768 16.6665 4.77964 16.6665 5.00065V7.50065ZM5.83317 12.5007C5.99799 12.5007 6.1591 12.4518 6.29615 12.3602C6.43319 12.2686 6.54 12.1385 6.60307 11.9862C6.66614 11.8339 6.68265 11.6664 6.65049 11.5047C6.61834 11.3431 6.53897 11.1946 6.42243 11.0781C6.30588 10.9615 6.1574 10.8821 5.99575 10.85C5.8341 10.8178 5.66654 10.8343 5.51427 10.8974C5.362 10.9605 5.23185 11.0673 5.14028 11.2043C5.04871 11.3414 4.99984 11.5025 4.99984 11.6673C4.99984 11.8883 5.08764 12.1003 5.24392 12.2566C5.4002 12.4129 5.61216 12.5007 5.83317 12.5007ZM5.83317 15.834C5.99799 15.834 6.1591 15.7851 6.29615 15.6935C6.43319 15.602 6.54 15.4718 6.60307 15.3196C6.66614 15.1673 6.68265 14.9997 6.65049 14.8381C6.61834 14.6764 6.53897 14.5279 6.42243 14.4114C6.30588 14.2948 6.1574 14.2155 5.99575 14.1833C5.8341 14.1512 5.66654 14.1677 5.51427 14.2308C5.362 14.2938 5.23185 14.4006 5.14028 14.5377C5.04871 14.6747 4.99984 14.8358 4.99984 15.0006C4.99984 15.2217 5.08764 15.4336 5.24392 15.5899C5.4002 15.7462 5.61216 15.834 5.83317 15.834Z"/>
</mask>
<path d="M9.99984 15.834C10.1647 15.834 10.3258 15.7851 10.4628 15.6935C10.5999 15.602 10.7067 15.4718 10.7697 15.3196C10.8328 15.1673 10.8493 14.9997 10.8172 14.8381C10.785 14.6764 10.7056 14.5279 10.5891 14.4114C10.4725 14.2948 10.3241 14.2155 10.1624 14.1833C10.0008 14.1512 9.83321 14.1677 9.68093 14.2308C9.52866 14.2938 9.39851 14.4006 9.30695 14.5377C9.21538 14.6747 9.1665 14.8358 9.1665 15.0006C9.1665 15.2217 9.2543 15.4336 9.41058 15.5899C9.56686 15.7462 9.77882 15.834 9.99984 15.834ZM14.1665 15.834C14.3313 15.834 14.4924 15.7851 14.6295 15.6935C14.7665 15.602 14.8733 15.4718 14.9364 15.3196C14.9995 15.1673 15.016 14.9997 14.9838 14.8381C14.9517 14.6764 14.8723 14.5279 14.7558 14.4114C14.6392 14.2948 14.4907 14.2155 14.3291 14.1833C14.1674 14.1512 13.9999 14.1677 13.8476 14.2308C13.6953 14.2938 13.5652 14.4006 13.4736 14.5377C13.382 14.6747 13.3332 14.8358 13.3332 15.0006C13.3332 15.2217 13.421 15.4336 13.5772 15.5899C13.7335 15.7462 13.9455 15.834 14.1665 15.834ZM14.1665 12.5007C14.3313 12.5007 14.4924 12.4518 14.6295 12.3602C14.7665 12.2686 14.8733 12.1385 14.9364 11.9862C14.9995 11.8339 15.016 11.6664 14.9838 11.5047C14.9517 11.3431 14.8723 11.1946 14.7558 11.0781C14.6392 10.9615 14.4907 10.8821 14.3291 10.85C14.1674 10.8178 13.9999 10.8343 13.8476 10.8974C13.6953 10.9605 13.5652 11.0673 13.4736 11.2043C13.382 11.3414 13.3332 11.5025 13.3332 11.6673C13.3332 11.8883 13.421 12.1003 13.5772 12.2566C13.7335 12.4129 13.9455 12.5007 14.1665 12.5007ZM9.99984 12.5007C10.1647 12.5007 10.3258 12.4518 10.4628 12.3602C10.5999 12.2686 10.7067 12.1385 10.7697 11.9862C10.8328 11.8339 10.8493 11.6664 10.8172 11.5047C10.785 11.3431 10.7056 11.1946 10.5891 11.0781C10.4725 10.9615 10.3241 10.8821 10.1624 10.85C10.0008 10.8178 9.83321 10.8343 9.68093 10.8974C9.52866 10.9605 9.39851 11.0673 9.30695 11.2043C9.21538 11.3414 9.1665 11.5025 9.1665 11.6673C9.1665 11.8883 9.2543 12.1003 9.41058 12.2566C9.56686 12.4129 9.77882 12.5007 9.99984 12.5007ZM15.8332 2.50065H14.9998V1.66732C14.9998 1.4463 14.912 1.23434 14.7558 1.07806C14.5995 0.921782 14.3875 0.833984 14.1665 0.833984C13.9455 0.833984 13.7335 0.921782 13.5772 1.07806C13.421 1.23434 13.3332 1.4463 13.3332 1.66732V2.50065H6.6665V1.66732C6.6665 1.4463 6.57871 1.23434 6.42243 1.07806C6.26615 0.921782 6.05418 0.833984 5.83317 0.833984C5.61216 0.833984 5.4002 0.921782 5.24392 1.07806C5.08764 1.23434 4.99984 1.4463 4.99984 1.66732V2.50065H4.1665C3.50346 2.50065 2.86758 2.76404 2.39874 3.23288C1.9299 3.70172 1.6665 4.33761 1.6665 5.00065V16.6673C1.6665 17.3304 1.9299 17.9662 2.39874 18.4351C2.86758 18.9039 3.50346 19.1673 4.1665 19.1673H15.8332C16.4962 19.1673 17.1321 18.9039 17.6009 18.4351C18.0698 17.9662 18.3332 17.3304 18.3332 16.6673V5.00065C18.3332 4.33761 18.0698 3.70172 17.6009 3.23288C17.1321 2.76404 16.4962 2.50065 15.8332 2.50065ZM16.6665 16.6673C16.6665 16.8883 16.5787 17.1003 16.4224 17.2566C16.2661 17.4129 16.0542 17.5006 15.8332 17.5006H4.1665C3.94549 17.5006 3.73353 17.4129 3.57725 17.2566C3.42097 17.1003 3.33317 16.8883 3.33317 16.6673V9.16732H16.6665V16.6673ZM16.6665 7.50065H3.33317V5.00065C3.33317 4.77964 3.42097 4.56768 3.57725 4.4114C3.73353 4.25511 3.94549 4.16732 4.1665 4.16732H4.99984V5.00065C4.99984 5.22166 5.08764 5.43363 5.24392 5.58991C5.4002 5.74619 5.61216 5.83398 5.83317 5.83398C6.05418 5.83398 6.26615 5.74619 6.42243 5.58991C6.57871 5.43363 6.6665 5.22166 6.6665 5.00065V4.16732H13.3332V5.00065C13.3332 5.22166 13.421 5.43363 13.5772 5.58991C13.7335 5.74619 13.9455 5.83398 14.1665 5.83398C14.3875 5.83398 14.5995 5.74619 14.7558 5.58991C14.912 5.43363 14.9998 5.22166 14.9998 5.00065V4.16732H15.8332C16.0542 4.16732 16.2661 4.25511 16.4224 4.4114C16.5787 4.56768 16.6665 4.77964 16.6665 5.00065V7.50065ZM5.83317 12.5007C5.99799 12.5007 6.1591 12.4518 6.29615 12.3602C6.43319 12.2686 6.54 12.1385 6.60307 11.9862C6.66614 11.8339 6.68265 11.6664 6.65049 11.5047C6.61834 11.3431 6.53897 11.1946 6.42243 11.0781C6.30588 10.9615 6.1574 10.8821 5.99575 10.85C5.8341 10.8178 5.66654 10.8343 5.51427 10.8974C5.362 10.9605 5.23185 11.0673 5.14028 11.2043C5.04871 11.3414 4.99984 11.5025 4.99984 11.6673C4.99984 11.8883 5.08764 12.1003 5.24392 12.2566C5.4002 12.4129 5.61216 12.5007 5.83317 12.5007ZM5.83317 15.834C5.99799 15.834 6.1591 15.7851 6.29615 15.6935C6.43319 15.602 6.54 15.4718 6.60307 15.3196C6.66614 15.1673 6.68265 14.9997 6.65049 14.8381C6.61834 14.6764 6.53897 14.5279 6.42243 14.4114C6.30588 14.2948 6.1574 14.2155 5.99575 14.1833C5.8341 14.1512 5.66654 14.1677 5.51427 14.2308C5.362 14.2938 5.23185 14.4006 5.14028 14.5377C5.04871 14.6747 4.99984 14.8358 4.99984 15.0006C4.99984 15.2217 5.08764 15.4336 5.24392 15.5899C5.4002 15.7462 5.61216 15.834 5.83317 15.834Z" stroke="#666666" stroke-width="2" mask="url(#path-1-inside-1_1792_23372)"/>
</svg>
