<svg width="20" height="20" viewBox="0 0 20 20" fill="none" xmlns="http://www.w3.org/2000/svg">
<path d="M11.9446 2.27652L16.9317 7.2636C16.938 7.27059 16.9442 7.27781 16.95 7.28524V7.30667L16.9761 7.38423C16.9868 7.41622 16.9948 7.44907 17 7.48241V7.48246V7.4826V7.48274V7.48289V7.48303V7.48317V7.48331V7.48345V7.48359V7.48373V7.48387V7.484V7.48414V7.48427V7.48441V7.48454V7.48467V7.4848V7.48494V7.48507V7.4852V7.48532V7.48545V7.48558V7.48571V7.48583V7.48596V7.48608V7.48621V7.48633V7.48645V7.48657V7.48669V7.48681V7.48693V7.48705V7.48717V7.48728V7.4874V7.48752V7.48763V7.48774V7.48786V7.48797V7.48808V7.48819V7.4883V7.48841V7.48852V7.48863V7.48874V7.48885V7.48895V7.48906V7.48916V7.48927V7.48937V7.48947V7.48958V7.48968V7.48978V7.48988V7.48998V7.49008V7.49018V7.49027V7.49037V7.49047V7.49056V7.49066V7.49075V7.49085V7.49094V7.49103V7.49112V7.49121V7.4913V7.49139V7.49148V7.49157V7.49166V7.49175V7.49183V7.49192V7.492V7.49209V7.49217V7.49226V7.49234V7.49242V7.49251V7.49259V7.49267V7.49275V7.49283V7.4929V7.49298V7.49306V7.49314V7.49321V7.49329V7.49337V7.49344V7.49351V7.49359V7.49366V7.49373V7.4938V7.49388V7.49395V7.49402V7.49409V7.49416V7.49422V7.49429V7.49436V7.49443V7.49449V7.49456V7.49462V7.49469V7.49475V7.49482V7.49488V7.49494V7.495V7.49506V7.49513V7.49519V7.49525V7.4953V7.49536V7.49542V7.49548V7.49554V7.49559V7.49565V7.49571V7.49576V7.49582V7.49587V7.49592V7.49598V7.49603V7.49608V7.49614V7.49619V7.49624V7.49629V7.49634V7.49639V7.49644V7.49649V7.49653V7.49658V7.49663V7.49667V7.49672V7.49677V7.49681V7.49686V7.4969V7.49695V7.49699V7.49703V7.49708V7.49712V7.49716V7.4972V7.49724V7.49728V7.49732V7.49736V7.4974V7.49744V7.49748V7.49752V7.49755V7.49759V7.49763V7.49766V7.4977V7.49774V7.49777V7.49781V7.49784V7.49787V7.49791V7.49794V7.49797V7.49801V7.49804V7.49807V7.4981V7.49813V7.49816V7.49819V7.49822V7.49825V7.49828V7.49831V7.49834V7.49837V7.4984V7.49842V7.49845V7.49848V7.4985V7.49853V7.49855V7.49858V7.49861V7.49863V7.49865V7.49868V7.4987V7.49872V7.49875V7.49877V7.49879V7.49882V7.49884V7.49886V7.49888V7.4989V7.49892V7.49894V7.49896V7.49898V7.499V7.49902V7.49904V7.49906V7.49907V7.49909V7.49911V7.49913V7.49914V7.49916V7.49918V7.49919V7.49921V7.49923V7.49924V7.49926V7.49927V7.49929V7.4993V7.49931V7.49933V7.49934V7.49935V7.49937V7.49938V7.49939V7.49941V7.49942V7.49943V7.49944V7.49945V7.49946V7.49948V7.49949V7.4995V7.49951V7.49952V7.49953V7.49954V7.49955V7.49956V7.49957V7.49957V7.49958V7.49959V7.4996V7.49961V7.49962V7.49962V7.49963V7.49964V7.49965V7.49965V7.49967V7.49968V7.49969V7.4997V7.49971V7.49973V7.49973V7.49974V7.49975V7.49976V7.49977V7.49978V7.49978V7.49979V7.4998V7.49981V7.49982V7.49982V7.49984V12.4998C17 13.0303 16.7893 13.539 16.4142 13.9141C16.0391 14.2891 15.5304 14.4998 15 14.4998H8.33333C7.8029 14.4998 7.29419 14.2891 6.91912 13.9141C6.54405 13.539 6.33333 13.0303 6.33333 12.4998V4.1665C6.33333 3.63607 6.54405 3.12736 6.91912 2.75229C7.29419 2.37722 7.8029 2.1665 8.33333 2.1665H11.6331L11.8208 2.23101L11.8998 2.25817H11.9229C11.9304 2.26402 11.9376 2.27014 11.9446 2.27652ZM12.8536 4.15462L12 3.30106V4.50817V5.83317C12 6.18679 12.1405 6.52593 12.3905 6.77598C12.6406 7.02603 12.9797 7.1665 13.3333 7.1665H14.6583H15.8654L15.0119 6.31295L12.8536 4.15462ZM11.3333 3.33317V2.83317H10.8333H8.33333C7.97971 2.83317 7.64057 2.97365 7.39052 3.22369C7.14048 3.47374 7 3.81288 7 4.1665V12.4998C7 12.8535 7.14048 13.1926 7.39052 13.4426C7.64057 13.6927 7.97971 13.8332 8.33333 13.8332H15C15.3536 13.8332 15.6928 13.6927 15.9428 13.4426C16.1929 13.1926 16.3333 12.8535 16.3333 12.4998V8.33317V7.83317H15.8333H13.3333C12.8029 7.83317 12.2942 7.62246 11.9191 7.24739C11.544 6.87231 11.3333 6.3636 11.3333 5.83317V3.33317ZM6.66667 17.1665H13.3333C13.4217 17.1665 13.5065 17.2016 13.569 17.2641C13.6315 17.3266 13.6667 17.4114 13.6667 17.4998C13.6667 17.5882 13.6315 17.673 13.569 17.7355C13.5065 17.7981 13.4217 17.8332 13.3333 17.8332H6.66667C5.69421 17.8332 4.76158 17.4469 4.07394 16.7592C3.38631 16.0716 3 15.139 3 14.1665V5.83317C3 5.74477 3.03512 5.65998 3.09763 5.59747C3.16014 5.53496 3.24493 5.49984 3.33333 5.49984C3.42174 5.49984 3.50652 5.53496 3.56904 5.59747C3.63155 5.65998 3.66667 5.74477 3.66667 5.83317V14.1665C3.66667 14.9622 3.98274 15.7252 4.54535 16.2878C5.10796 16.8504 5.87102 17.1665 6.66667 17.1665Z" stroke="#EE844F"/>
</svg>
