<svg width="20" height="20" viewBox="0 0 20 20" fill="none" xmlns="http://www.w3.org/2000/svg">
<mask id="path-1-inside-1_1168_3015" fill="white">
<path d="M17.5 7.44984C17.4913 7.37328 17.4746 7.29786 17.45 7.22484V7.14984C17.4099 7.06415 17.3565 6.98539 17.2917 6.9165L12.2917 1.9165C12.2228 1.85168 12.144 1.79824 12.0583 1.75817C12.0335 1.75464 12.0082 1.75464 11.9833 1.75817C11.8987 1.70962 11.8052 1.67846 11.7083 1.6665H8.33333C7.67029 1.6665 7.03441 1.9299 6.56557 2.39874C6.09673 2.86758 5.83333 3.50346 5.83333 4.1665V4.99984H5C4.33696 4.99984 3.70107 5.26323 3.23223 5.73207C2.76339 6.20091 2.5 6.8368 2.5 7.49984V15.8332C2.5 16.4962 2.76339 17.1321 3.23223 17.6009C3.70107 18.0698 4.33696 18.3332 5 18.3332H11.6667C12.3297 18.3332 12.9656 18.0698 13.4344 17.6009C13.9033 17.1321 14.1667 16.4962 14.1667 15.8332V14.9998H15C15.663 14.9998 16.2989 14.7364 16.7678 14.2676C17.2366 13.7988 17.5 13.1629 17.5 12.4998V7.49984C17.5 7.49984 17.5 7.49984 17.5 7.44984ZM12.5 4.50817L14.6583 6.6665H13.3333C13.1123 6.6665 12.9004 6.57871 12.7441 6.42243C12.5878 6.26615 12.5 6.05418 12.5 5.83317V4.50817ZM12.5 15.8332C12.5 16.0542 12.4122 16.2661 12.2559 16.4224C12.0996 16.5787 11.8877 16.6665 11.6667 16.6665H5C4.77899 16.6665 4.56702 16.5787 4.41074 16.4224C4.25446 16.2661 4.16667 16.0542 4.16667 15.8332V7.49984C4.16667 7.27882 4.25446 7.06686 4.41074 6.91058C4.56702 6.7543 4.77899 6.6665 5 6.6665H5.83333V12.4998C5.83333 13.1629 6.09673 13.7988 6.56557 14.2676C7.03441 14.7364 7.67029 14.9998 8.33333 14.9998H12.5V15.8332ZM15.8333 12.4998C15.8333 12.7209 15.7455 12.9328 15.5893 13.0891C15.433 13.2454 15.221 13.3332 15 13.3332H8.33333C8.11232 13.3332 7.90036 13.2454 7.74408 13.0891C7.5878 12.9328 7.5 12.7209 7.5 12.4998V4.1665C7.5 3.94549 7.5878 3.73353 7.74408 3.57725C7.90036 3.42097 8.11232 3.33317 8.33333 3.33317H10.8333V5.83317C10.8333 6.49621 11.0967 7.1321 11.5656 7.60094C12.0344 8.06978 12.6703 8.33317 13.3333 8.33317H15.8333V12.4998Z"/>
</mask>
<path d="M17.5 7.44984H19.5V7.33681L19.4873 7.22451L17.5 7.44984ZM17.45 7.22484H15.45V7.55215L15.5543 7.86238L17.45 7.22484ZM17.45 7.14984H19.45V6.70532L19.2617 6.30264L17.45 7.14984ZM12.2917 1.9165L13.7059 0.50229L13.6844 0.480784L13.6622 0.459942L12.2917 1.9165ZM12.0583 1.75817L12.9055 -0.0535315L12.6351 -0.179978L12.3396 -0.221955L12.0583 1.75817ZM11.9833 1.75817L10.9884 3.49311L11.5844 3.83491L12.2646 3.7383L11.9833 1.75817ZM11.7083 1.6665L11.9533 -0.318436L11.8313 -0.333496H11.7083V1.6665ZM8.33333 1.6665V-0.333496V1.6665ZM5.83333 4.99984V6.99984H7.83333V4.99984H5.83333ZM2.5 7.49984H0.5H2.5ZM2.5 15.8332H0.5H2.5ZM5 18.3332V20.3332V18.3332ZM11.6667 18.3332V20.3332V18.3332ZM14.1667 14.9998V12.9998H12.1667V14.9998H14.1667ZM15 14.9998V16.9998V14.9998ZM17.5 12.4998H19.5H17.5ZM12.5 4.50817L13.9142 3.09396L10.5 -0.320257V4.50817H12.5ZM14.6583 6.6665V8.6665H19.4868L16.0725 5.25229L14.6583 6.6665ZM5 6.6665V8.6665V6.6665ZM5.83333 6.6665H7.83333V4.6665H5.83333V6.6665ZM8.33333 14.9998V16.9998V14.9998ZM12.5 14.9998H14.5V12.9998H12.5V14.9998ZM8.33333 3.33317V5.33317V3.33317ZM10.8333 3.33317H12.8333V1.33317H10.8333V3.33317ZM15.8333 8.33317H17.8333V6.33317H15.8333V8.33317ZM19.4873 7.22451C19.4627 7.00771 19.4152 6.79411 19.3457 6.58729L15.5543 7.86238C15.5339 7.80161 15.52 7.73886 15.5127 7.67517L19.4873 7.22451ZM19.45 7.22484V7.14984H15.45V7.22484H19.45ZM19.2617 6.30264C19.1318 6.02477 18.9584 5.76934 18.7482 5.54595L15.8351 8.28706C15.7545 8.20144 15.6881 8.10354 15.6383 7.99703L19.2617 6.30264ZM18.7059 5.50229L13.7059 0.50229L10.8775 3.33072L15.8775 8.33072L18.7059 5.50229ZM13.6622 0.459942C13.4388 0.249734 13.1834 0.0764083 12.9055 -0.0535315L11.2111 3.56987C11.1046 3.52007 11.0067 3.45363 10.9211 3.37307L13.6622 0.459942ZM12.3396 -0.221955C12.1281 -0.251987 11.9135 -0.251987 11.7021 -0.221955L12.2646 3.7383C12.1029 3.76126 11.9388 3.76126 11.7771 3.7383L12.3396 -0.221955ZM12.9783 0.023231C12.6628 -0.157724 12.3143 -0.273882 11.9533 -0.318436L11.4634 3.65144C11.2961 3.6308 11.1346 3.57697 10.9884 3.49311L12.9783 0.023231ZM11.7083 -0.333496H8.33333V3.6665H11.7083V-0.333496ZM8.33333 -0.333496C7.13986 -0.333496 5.99527 0.14061 5.15135 0.984524L7.97978 3.81295C8.07355 3.71918 8.20073 3.6665 8.33333 3.6665V-0.333496ZM5.15135 0.984524C4.30744 1.82844 3.83333 2.97303 3.83333 4.1665H7.83333C7.83333 4.0339 7.88601 3.90672 7.97978 3.81295L5.15135 0.984524ZM3.83333 4.1665V4.99984H7.83333V4.1665H3.83333ZM5.83333 2.99984H5V6.99984H5.83333V2.99984ZM5 2.99984C3.80653 2.99984 2.66193 3.47394 1.81802 4.31786L4.64645 7.14628C4.74022 7.05252 4.86739 6.99984 5 6.99984V2.99984ZM1.81802 4.31786C0.974106 5.16177 0.5 6.30636 0.5 7.49984H4.5C4.5 7.36723 4.55268 7.24005 4.64645 7.14628L1.81802 4.31786ZM0.5 7.49984V15.8332H4.5V7.49984H0.5ZM0.5 15.8332C0.5 17.0266 0.974106 18.1712 1.81802 19.0152L4.64645 16.1867C4.55268 16.093 4.5 15.9658 4.5 15.8332H0.5ZM1.81802 19.0152C2.66193 19.8591 3.80653 20.3332 5 20.3332V16.3332C4.86739 16.3332 4.74021 16.2805 4.64645 16.1867L1.81802 19.0152ZM5 20.3332H11.6667V16.3332H5V20.3332ZM11.6667 20.3332C12.8601 20.3332 14.0047 19.8591 14.8486 19.0152L12.0202 16.1867C11.9265 16.2805 11.7993 16.3332 11.6667 16.3332V20.3332ZM14.8486 19.0152C15.6926 18.1712 16.1667 17.0266 16.1667 15.8332H12.1667C12.1667 15.9658 12.114 16.093 12.0202 16.1867L14.8486 19.0152ZM16.1667 15.8332V14.9998H12.1667V15.8332H16.1667ZM14.1667 16.9998H15V12.9998H14.1667V16.9998ZM15 16.9998C16.1935 16.9998 17.3381 16.5257 18.182 15.6818L15.3536 12.8534C15.2598 12.9472 15.1326 12.9998 15 12.9998V16.9998ZM18.182 15.6818C19.0259 14.8379 19.5 13.6933 19.5 12.4998H15.5C15.5 12.6324 15.4473 12.7596 15.3536 12.8534L18.182 15.6818ZM19.5 12.4998V7.49984H15.5V12.4998H19.5ZM17.5 7.49984C19.5 7.49984 19.5 7.49984 19.5 7.49984C19.5 7.49984 19.5 7.49984 19.5 7.49984C19.5 7.49984 19.5 7.49984 19.5 7.49984C19.5 7.49984 19.5 7.49984 19.5 7.49984C19.5 7.49984 19.5 7.49984 19.5 7.49984C19.5 7.49984 19.5 7.49984 19.5 7.49984V7.49983V7.49983V7.49983V7.49983C19.5 7.49983 19.5 7.49983 19.5 7.49983C19.5 7.49983 19.5 7.49983 19.5 7.49983V7.49983C19.5 7.49983 19.5 7.49983 19.5 7.49983C19.5 7.49983 19.5 7.49983 19.5 7.49983C19.5 7.49983 19.5 7.49983 19.5 7.49983C19.5 7.49983 19.5 7.49983 19.5 7.49983C19.5 7.49983 19.5 7.49983 19.5 7.49983C19.5 7.49983 19.5 7.49983 19.5 7.49983C19.5 7.49983 19.5 7.49982 19.5 7.49982C19.5 7.49982 19.5 7.49982 19.5 7.49982C19.5 7.49982 19.5 7.49982 19.5 7.49982C19.5 7.49982 19.5 7.49982 19.5 7.49982C19.5 7.49982 19.5 7.49982 19.5 7.49982C19.5 7.49982 19.5 7.49982 19.5 7.49982C19.5 7.49982 19.5 7.49982 19.5 7.49982C19.5 7.49981 19.5 7.49981 19.5 7.49981C19.5 7.49981 19.5 7.49981 19.5 7.49981C19.5 7.49981 19.5 7.49981 19.5 7.49981C19.5 7.49981 19.5 7.49981 19.5 7.49981C19.5 7.49981 19.5 7.49981 19.5 7.49981C19.5 7.4998 19.5 7.4998 19.5 7.4998C19.5 7.4998 19.5 7.4998 19.5 7.4998C19.5 7.4998 19.5 7.4998 19.5 7.4998C19.5 7.4998 19.5 7.4998 19.5 7.4998C19.5 7.4998 19.5 7.49979 19.5 7.49979C19.5 7.49979 19.5 7.49979 19.5 7.49979C19.5 7.49979 19.5 7.49979 19.5 7.49979C19.5 7.49979 19.5 7.49979 19.5 7.49978C19.5 7.49978 19.5 7.49978 19.5 7.49978C19.5 7.49978 19.5 7.49978 19.5 7.49978C19.5 7.49978 19.5 7.49978 19.5 7.49978C19.5 7.49977 19.5 7.49977 19.5 7.49977C19.5 7.49977 19.5 7.49977 19.5 7.49977C19.5 7.49977 19.5 7.49977 19.5 7.49976C19.5 7.49976 19.5 7.49976 19.5 7.49976C19.5 7.49976 19.5 7.49976 19.5 7.49976C19.5 7.49976 19.5 7.49975 19.5 7.49975C19.5 7.49975 19.5 7.49975 19.5 7.49975C19.5 7.49975 19.5 7.49975 19.5 7.49974C19.5 7.49974 19.5 7.49974 19.5 7.49974C19.5 7.49974 19.5 7.49974 19.5 7.49974C19.5 7.49973 19.5 7.49973 19.5 7.49973C19.5 7.49973 19.5 7.49973 19.5 7.49973C19.5 7.49972 19.5 7.49972 19.5 7.49972C19.5 7.49972 19.5 7.49972 19.5 7.49972C19.5 7.49971 19.5 7.49971 19.5 7.49971C19.5 7.49971 19.5 7.49971 19.5 7.4997C19.5 7.4997 19.5 7.4997 19.5 7.4997C19.5 7.4997 19.5 7.49969 19.5 7.49969C19.5 7.49969 19.5 7.49969 19.5 7.49969C19.5 7.49968 19.5 7.49968 19.5 7.49968C19.5 7.49968 19.5 7.49968 19.5 7.49967C19.5 7.49967 19.5 7.49967 19.5 7.49967C19.5 7.49967 19.5 7.49966 19.5 7.49966C19.5 7.49966 19.5 7.49966 19.5 7.49965C19.5 7.49965 19.5 7.49965 19.5 7.49965C19.5 7.49964 19.5 7.49964 19.5 7.49964C19.5 7.49964 19.5 7.49963 19.5 7.49963C19.5 7.49963 19.5 7.49963 19.5 7.49962C19.5 7.49962 19.5 7.49962 19.5 7.49962C19.5 7.49961 19.5 7.49961 19.5 7.49961C19.5 7.49961 19.5 7.4996 19.5 7.4996C19.5 7.4996 19.5 7.4996 19.5 7.49959C19.5 7.49959 19.5 7.49959 19.5 7.49958C19.5 7.49958 19.5 7.49958 19.5 7.49957C19.5 7.49957 19.5 7.49957 19.5 7.49957C19.5 7.49956 19.5 7.49956 19.5 7.49956C19.5 7.49955 19.5 7.49955 19.5 7.49955C19.5 7.49954 19.5 7.49954 19.5 7.49954C19.5 7.49953 19.5 7.49953 19.5 7.49953C19.5 7.49952 19.5 7.49952 19.5 7.49952C19.5 7.49951 19.5 7.49951 19.5 7.49951C19.5 7.4995 19.5 7.4995 19.5 7.4995C19.5 7.49949 19.5 7.49949 19.5 7.49949C19.5 7.49948 19.5 7.49948 19.5 7.49948C19.5 7.49947 19.5 7.49947 19.5 7.49946C19.5 7.49946 19.5 7.49946 19.5 7.49945C19.5 7.49945 19.5 7.49945 19.5 7.49944C19.5 7.49944 19.5 7.49943 19.5 7.49943C19.5 7.49943 19.5 7.49942 19.5 7.49942C19.5 7.49941 19.5 7.49941 19.5 7.49941C19.5 7.4994 19.5 7.4994 19.5 7.49939C19.5 7.49939 19.5 7.49939 19.5 7.49938C19.5 7.49938 19.5 7.49937 19.5 7.49937C19.5 7.49936 19.5 7.49936 19.5 7.49935C19.5 7.49935 19.5 7.49935 19.5 7.49934C19.5 7.49934 19.5 7.49933 19.5 7.49933C19.5 7.49932 19.5 7.49932 19.5 7.49931C19.5 7.49931 19.5 7.4993 19.5 7.4993C19.5 7.4993 19.5 7.49929 19.5 7.49929C19.5 7.49928 19.5 7.49928 19.5 7.49927C19.5 7.49927 19.5 7.49926 19.5 7.49926C19.5 7.49925 19.5 7.49925 19.5 7.49924C19.5 7.49924 19.5 7.49923 19.5 7.49923C19.5 7.49922 19.5 7.49922 19.5 7.49921C19.5 7.4992 19.5 7.4992 19.5 7.49919C19.5 7.49919 19.5 7.49918 19.5 7.49918C19.5 7.49917 19.5 7.49917 19.5 7.49916C19.5 7.49916 19.5 7.49915 19.5 7.49914C19.5 7.49914 19.5 7.49913 19.5 7.49913C19.5 7.49912 19.5 7.49912 19.5 7.49911C19.5 7.4991 19.5 7.4991 19.5 7.49909C19.5 7.49909 19.5 7.49908 19.5 7.49907C19.5 7.49907 19.5 7.49906 19.5 7.49906C19.5 7.49905 19.5 7.49904 19.5 7.49904C19.5 7.49903 19.5 7.49903 19.5 7.49902C19.5 7.49901 19.5 7.49901 19.5 7.499C19.5 7.49899 19.5 7.49899 19.5 7.49898C19.5 7.49897 19.5 7.49897 19.5 7.49896C19.5 7.49895 19.5 7.49895 19.5 7.49894C19.5 7.49893 19.5 7.49893 19.5 7.49892C19.5 7.49891 19.5 7.49891 19.5 7.4989C19.5 7.49889 19.5 7.49889 19.5 7.49888C19.5 7.49887 19.5 7.49887 19.5 7.49886C19.5 7.49885 19.5 7.49884 19.5 7.49884C19.5 7.49883 19.5 7.49882 19.5 7.49882C19.5 7.49881 19.5 7.4988 19.5 7.49879C19.5 7.49879 19.5 7.49878 19.5 7.49877C19.5 7.49876 19.5 7.49876 19.5 7.49875C19.5 7.49874 19.5 7.49873 19.5 7.49872C19.5 7.49872 19.5 7.49871 19.5 7.4987C19.5 7.49869 19.5 7.49869 19.5 7.49868C19.5 7.49867 19.5 7.49866 19.5 7.49865C19.5 7.49865 19.5 7.49864 19.5 7.49863C19.5 7.49862 19.5 7.49861 19.5 7.49861C19.5 7.4986 19.5 7.49859 19.5 7.49858C19.5 7.49857 19.5 7.49856 19.5 7.49855C19.5 7.49855 19.5 7.49854 19.5 7.49853C19.5 7.49852 19.5 7.49851 19.5 7.4985C19.5 7.49849 19.5 7.49849 19.5 7.49848C19.5 7.49847 19.5 7.49846 19.5 7.49845C19.5 7.49844 19.5 7.49843 19.5 7.49842C19.5 7.49841 19.5 7.4984 19.5 7.4984C19.5 7.49839 19.5 7.49838 19.5 7.49837C19.5 7.49836 19.5 7.49835 19.5 7.49834C19.5 7.49833 19.5 7.49832 19.5 7.49831C19.5 7.4983 19.5 7.49829 19.5 7.49828C19.5 7.49827 19.5 7.49826 19.5 7.49825C19.5 7.49824 19.5 7.49823 19.5 7.49822C19.5 7.49821 19.5 7.4982 19.5 7.49819C19.5 7.49818 19.5 7.49817 19.5 7.49816C19.5 7.49815 19.5 7.49814 19.5 7.49813C19.5 7.49812 19.5 7.49811 19.5 7.4981C19.5 7.49809 19.5 7.49808 19.5 7.49807C19.5 7.49806 19.5 7.49805 19.5 7.49804C19.5 7.49803 19.5 7.49802 19.5 7.49801C19.5 7.498 19.5 7.49799 19.5 7.49797C19.5 7.49796 19.5 7.49795 19.5 7.49794C19.5 7.49793 19.5 7.49792 19.5 7.49791C19.5 7.4979 19.5 7.49789 19.5 7.49787C19.5 7.49786 19.5 7.49785 19.5 7.49784C19.5 7.49783 19.5 7.49782 19.5 7.49781C19.5 7.4978 19.5 7.49778 19.5 7.49777C19.5 7.49776 19.5 7.49775 19.5 7.49774C19.5 7.49772 19.5 7.49771 19.5 7.4977C19.5 7.49769 19.5 7.49768 19.5 7.49766C19.5 7.49765 19.5 7.49764 19.5 7.49763C19.5 7.49762 19.5 7.4976 19.5 7.49759C19.5 7.49758 19.5 7.49757 19.5 7.49755C19.5 7.49754 19.5 7.49753 19.5 7.49752C19.5 7.4975 19.5 7.49749 19.5 7.49748C19.5 7.49747 19.5 7.49745 19.5 7.49744C19.5 7.49743 19.5 7.49741 19.5 7.4974C19.5 7.49739 19.5 7.49738 19.5 7.49736C19.5 7.49735 19.5 7.49734 19.5 7.49732C19.5 7.49731 19.5 7.4973 19.5 7.49728C19.5 7.49727 19.5 7.49726 19.5 7.49724C19.5 7.49723 19.5 7.49721 19.5 7.4972C19.5 7.49719 19.5 7.49717 19.5 7.49716C19.5 7.49715 19.5 7.49713 19.5 7.49712C19.5 7.4971 19.5 7.49709 19.5 7.49708C19.5 7.49706 19.5 7.49705 19.5 7.49703C19.5 7.49702 19.5 7.497 19.5 7.49699C19.5 7.49697 19.5 7.49696 19.5 7.49695C19.5 7.49693 19.5 7.49692 19.5 7.4969C19.5 7.49689 19.5 7.49687 19.5 7.49686C19.5 7.49684 19.5 7.49683 19.5 7.49681C19.5 7.4968 19.5 7.49678 19.5 7.49677C19.5 7.49675 19.5 7.49674 19.5 7.49672C19.5 7.49671 19.5 7.49669 19.5 7.49667C19.5 7.49666 19.5 7.49664 19.5 7.49663C19.5 7.49661 19.5 7.4966 19.5 7.49658C19.5 7.49656 19.5 7.49655 19.5 7.49653C19.5 7.49652 19.5 7.4965 19.5 7.49649C19.5 7.49647 19.5 7.49645 19.5 7.49644C19.5 7.49642 19.5 7.4964 19.5 7.49639C19.5 7.49637 19.5 7.49635 19.5 7.49634C19.5 7.49632 19.5 7.4963 19.5 7.49629C19.5 7.49627 19.5 7.49625 19.5 7.49624C19.5 7.49622 19.5 7.4962 19.5 7.49619C19.5 7.49617 19.5 7.49615 19.5 7.49614C19.5 7.49612 19.5 7.4961 19.5 7.49608C19.5 7.49607 19.5 7.49605 19.5 7.49603C19.5 7.49601 19.5 7.496 19.5 7.49598C19.5 7.49596 19.5 7.49594 19.5 7.49592C19.5 7.49591 19.5 7.49589 19.5 7.49587C19.5 7.49585 19.5 7.49583 19.5 7.49582C19.5 7.4958 19.5 7.49578 19.5 7.49576C19.5 7.49574 19.5 7.49572 19.5 7.49571C19.5 7.49569 19.5 7.49567 19.5 7.49565C19.5 7.49563 19.5 7.49561 19.5 7.49559C19.5 7.49557 19.5 7.49556 19.5 7.49554C19.5 7.49552 19.5 7.4955 19.5 7.49548C19.5 7.49546 19.5 7.49544 19.5 7.49542C19.5 7.4954 19.5 7.49538 19.5 7.49536C19.5 7.49534 19.5 7.49532 19.5 7.4953C19.5 7.49529 19.5 7.49527 19.5 7.49525C19.5 7.49523 19.5 7.49521 19.5 7.49519C19.5 7.49517 19.5 7.49515 19.5 7.49513C19.5 7.4951 19.5 7.49508 19.5 7.49506C19.5 7.49504 19.5 7.49502 19.5 7.495C19.5 7.49498 19.5 7.49496 19.5 7.49494C19.5 7.49492 19.5 7.4949 19.5 7.49488C19.5 7.49486 19.5 7.49484 19.5 7.49482C19.5 7.49479 19.5 7.49477 19.5 7.49475C19.5 7.49473 19.5 7.49471 19.5 7.49469C19.5 7.49467 19.5 7.49464 19.5 7.49462C19.5 7.4946 19.5 7.49458 19.5 7.49456C19.5 7.49454 19.5 7.49451 19.5 7.49449C19.5 7.49447 19.5 7.49445 19.5 7.49443C19.5 7.4944 19.5 7.49438 19.5 7.49436C19.5 7.49434 19.5 7.49431 19.5 7.49429C19.5 7.49427 19.5 7.49425 19.5 7.49422C19.5 7.4942 19.5 7.49418 19.5 7.49415C19.5 7.49413 19.5 7.49411 19.5 7.49409C19.5 7.49406 19.5 7.49404 19.5 7.49402C19.5 7.49399 19.5 7.49397 19.5 7.49395C19.5 7.49392 19.5 7.4939 19.5 7.49388C19.5 7.49385 19.5 7.49383 19.5 7.4938C19.5 7.49378 19.5 7.49376 19.5 7.49373C19.5 7.49371 19.5 7.49368 19.5 7.49366C19.5 7.49364 19.5 7.49361 19.5 7.49359C19.5 7.49356 19.5 7.49354 19.5 7.49351C19.5 7.49349 19.5 7.49346 19.5 7.49344C19.5 7.49341 19.5 7.49339 19.5 7.49336C19.5 7.49334 19.5 7.49331 19.5 7.49329C19.5 7.49326 19.5 7.49324 19.5 7.49321C19.5 7.49319 19.5 7.49316 19.5 7.49314C19.5 7.49311 19.5 7.49309 19.5 7.49306C19.5 7.49303 19.5 7.49301 19.5 7.49298C19.5 7.49296 19.5 7.49293 19.5 7.4929C19.5 7.49288 19.5 7.49285 19.5 7.49283C19.5 7.4928 19.5 7.49277 19.5 7.49275C19.5 7.49272 19.5 7.49269 19.5 7.49267C19.5 7.49264 19.5 7.49261 19.5 7.49259C19.5 7.49256 19.5 7.49253 19.5 7.49251C19.5 7.49248 19.5 7.49245 19.5 7.49242C19.5 7.4924 19.5 7.49237 19.5 7.49234C19.5 7.49231 19.5 7.49229 19.5 7.49226C19.5 7.49223 19.5 7.4922 19.5 7.49217C19.5 7.49215 19.5 7.49212 19.5 7.49209C19.5 7.49206 19.5 7.49203 19.5 7.492C19.5 7.49198 19.5 7.49195 19.5 7.49192C19.5 7.49189 19.5 7.49186 19.5 7.49183C19.5 7.4918 19.5 7.49178 19.5 7.49175C19.5 7.49172 19.5 7.49169 19.5 7.49166C19.5 7.49163 19.5 7.4916 19.5 7.49157C19.5 7.49154 19.5 7.49151 19.5 7.49148C19.5 7.49145 19.5 7.49142 19.5 7.49139C19.5 7.49136 19.5 7.49133 19.5 7.4913C19.5 7.49127 19.5 7.49124 19.5 7.49121C19.5 7.49118 19.5 7.49115 19.5 7.49112C19.5 7.49109 19.5 7.49106 19.5 7.49103C19.5 7.491 19.5 7.49097 19.5 7.49094C19.5 7.49091 19.5 7.49088 19.5 7.49085C19.5 7.49081 19.5 7.49078 19.5 7.49075C19.5 7.49072 19.5 7.49069 19.5 7.49066C19.5 7.49063 19.5 7.49059 19.5 7.49056C19.5 7.49053 19.5 7.4905 19.5 7.49047C19.5 7.49043 19.5 7.4904 19.5 7.49037C19.5 7.49034 19.5 7.49031 19.5 7.49027C19.5 7.49024 19.5 7.49021 19.5 7.49018C19.5 7.49014 19.5 7.49011 19.5 7.49008C19.5 7.49005 19.5 7.49001 19.5 7.48998C19.5 7.48995 19.5 7.48991 19.5 7.48988C19.5 7.48985 19.5 7.48981 19.5 7.48978C19.5 7.48975 19.5 7.48971 19.5 7.48968C19.5 7.48964 19.5 7.48961 19.5 7.48958C19.5 7.48954 19.5 7.48951 19.5 7.48947C19.5 7.48944 19.5 7.48941 19.5 7.48937C19.5 7.48934 19.5 7.4893 19.5 7.48927C19.5 7.48923 19.5 7.4892 19.5 7.48916C19.5 7.48913 19.5 7.48909 19.5 7.48906C19.5 7.48902 19.5 7.48899 19.5 7.48895C19.5 7.48892 19.5 7.48888 19.5 7.48885C19.5 7.48881 19.5 7.48878 19.5 7.48874C19.5 7.4887 19.5 7.48867 19.5 7.48863C19.5 7.4886 19.5 7.48856 19.5 7.48852C19.5 7.48849 19.5 7.48845 19.5 7.48841C19.5 7.48838 19.5 7.48834 19.5 7.4883C19.5 7.48827 19.5 7.48823 19.5 7.48819C19.5 7.48816 19.5 7.48812 19.5 7.48808C19.5 7.48805 19.5 7.48801 19.5 7.48797C19.5 7.48793 19.5 7.4879 19.5 7.48786C19.5 7.48782 19.5 7.48778 19.5 7.48774C19.5 7.48771 19.5 7.48767 19.5 7.48763C19.5 7.48759 19.5 7.48755 19.5 7.48752C19.5 7.48748 19.5 7.48744 19.5 7.4874C19.5 7.48736 19.5 7.48732 19.5 7.48728C19.5 7.48724 19.5 7.48721 19.5 7.48717C19.5 7.48713 19.5 7.48709 19.5 7.48705C19.5 7.48701 19.5 7.48697 19.5 7.48693C19.5 7.48689 19.5 7.48685 19.5 7.48681C19.5 7.48677 19.5 7.48673 19.5 7.48669C19.5 7.48665 19.5 7.48661 19.5 7.48657C19.5 7.48653 19.5 7.48649 19.5 7.48645C19.5 7.48641 19.5 7.48637 19.5 7.48633C19.5 7.48629 19.5 7.48625 19.5 7.4862C19.5 7.48616 19.5 7.48612 19.5 7.48608C19.5 7.48604 19.5 7.486 19.5 7.48596C19.5 7.48592 19.5 7.48587 19.5 7.48583C19.5 7.48579 19.5 7.48575 19.5 7.48571C19.5 7.48566 19.5 7.48562 19.5 7.48558C19.5 7.48554 19.5 7.48549 19.5 7.48545C19.5 7.48541 19.5 7.48537 19.5 7.48532C19.5 7.48528 19.5 7.48524 19.5 7.4852C19.5 7.48515 19.5 7.48511 19.5 7.48507C19.5 7.48502 19.5 7.48498 19.5 7.48494C19.5 7.48489 19.5 7.48485 19.5 7.4848C19.5 7.48476 19.5 7.48472 19.5 7.48467C19.5 7.48463 19.5 7.48458 19.5 7.48454C19.5 7.4845 19.5 7.48445 19.5 7.48441C19.5 7.48436 19.5 7.48432 19.5 7.48427C19.5 7.48423 19.5 7.48418 19.5 7.48414C19.5 7.48409 19.5 7.48405 19.5 7.484C19.5 7.48396 19.5 7.48391 19.5 7.48387C19.5 7.48382 19.5 7.48377 19.5 7.48373C19.5 7.48368 19.5 7.48364 19.5 7.48359C19.5 7.48354 19.5 7.4835 19.5 7.48345C19.5 7.4834 19.5 7.48336 19.5 7.48331C19.5 7.48326 19.5 7.48322 19.5 7.48317C19.5 7.48312 19.5 7.48308 19.5 7.48303C19.5 7.48298 19.5 7.48293 19.5 7.48289C19.5 7.48284 19.5 7.48279 19.5 7.48274C19.5 7.4827 19.5 7.48265 19.5 7.4826C19.5 7.48255 19.5 7.4825 19.5 7.48246C19.5 7.48241 19.5 7.48236 19.5 7.48231C19.5 7.48226 19.5 7.48221 19.5 7.48217C19.5 7.48212 19.5 7.48207 19.5 7.48202C19.5 7.48197 19.5 7.48192 19.5 7.48187C19.5 7.48182 19.5 7.48177 19.5 7.48172C19.5 7.48167 19.5 7.48162 19.5 7.48157C19.5 7.48152 19.5 7.48147 19.5 7.48142C19.5 7.48137 19.5 7.48132 19.5 7.48127C19.5 7.48122 19.5 7.48117 19.5 7.48112C19.5 7.48107 19.5 7.48102 19.5 7.48097C19.5 7.48092 19.5 7.48087 19.5 7.48081C19.5 7.48076 19.5 7.48071 19.5 7.48066C19.5 7.48061 19.5 7.48056 19.5 7.4805C19.5 7.48045 19.5 7.4804 19.5 7.48035C19.5 7.4803 19.5 7.48024 19.5 7.48019C19.5 7.48014 19.5 7.48009 19.5 7.48003C19.5 7.47998 19.5 7.47993 19.5 7.47988C19.5 7.47982 19.5 7.47977 19.5 7.47972C19.5 7.47966 19.5 7.47961 19.5 7.47956C19.5 7.4795 19.5 7.47945 19.5 7.4794C19.5 7.47934 19.5 7.47929 19.5 7.47923C19.5 7.47918 19.5 7.47913 19.5 7.47907C19.5 7.47902 19.5 7.47896 19.5 7.47891C19.5 7.47885 19.5 7.4788 19.5 7.47874C19.5 7.47869 19.5 7.47863 19.5 7.47858C19.5 7.47852 19.5 7.47847 19.5 7.47841C19.5 7.47836 19.5 7.4783 19.5 7.47825C19.5 7.47819 19.5 7.47813 19.5 7.47808C19.5 7.47802 19.5 7.47796 19.5 7.47791C19.5 7.47785 19.5 7.4778 19.5 7.47774C19.5 7.47768 19.5 7.47763 19.5 7.47757C19.5 7.47751 19.5 7.47745 19.5 7.4774C19.5 7.47734 19.5 7.47728 19.5 7.47723C19.5 7.47717 19.5 7.47711 19.5 7.47705C19.5 7.47699 19.5 7.47694 19.5 7.47688C19.5 7.47682 19.5 7.47676 19.5 7.4767C19.5 7.47664 19.5 7.47659 19.5 7.47653C19.5 7.47647 19.5 7.47641 19.5 7.47635C19.5 7.47629 19.5 7.47623 19.5 7.47617C19.5 7.47611 19.5 7.47606 19.5 7.476C19.5 7.47594 19.5 7.47588 19.5 7.47582C19.5 7.47576 19.5 7.4757 19.5 7.47564C19.5 7.47558 19.5 7.47552 19.5 7.47545C19.5 7.47539 19.5 7.47533 19.5 7.47527C19.5 7.47521 19.5 7.47515 19.5 7.47509C19.5 7.47503 19.5 7.47497 19.5 7.47491C19.5 7.47484 19.5 7.47478 19.5 7.47472C19.5 7.47466 19.5 7.4746 19.5 7.47454C19.5 7.47447 19.5 7.47441 19.5 7.47435C19.5 7.47429 19.5 7.47422 19.5 7.47416C19.5 7.4741 19.5 7.47404 19.5 7.47397C19.5 7.47391 19.5 7.47385 19.5 7.47378C19.5 7.47372 19.5 7.47366 19.5 7.47359C19.5 7.47353 19.5 7.47347 19.5 7.4734C19.5 7.47334 19.5 7.47328 19.5 7.47321C19.5 7.47315 19.5 7.47308 19.5 7.47302C19.5 7.47295 19.5 7.47289 19.5 7.47282C19.5 7.47276 19.5 7.47269 19.5 7.47263C19.5 7.47256 19.5 7.4725 19.5 7.47243C19.5 7.47237 19.5 7.4723 19.5 7.47224C19.5 7.47217 19.5 7.47211 19.5 7.47204C19.5 7.47197 19.5 7.47191 19.5 7.47184C19.5 7.47177 19.5 7.47171 19.5 7.47164C19.5 7.47157 19.5 7.47151 19.5 7.47144C19.5 7.47137 19.5 7.47131 19.5 7.47124C19.5 7.47117 19.5 7.47111 19.5 7.47104C19.5 7.47097 19.5 7.4709 19.5 7.47083C19.5 7.47077 19.5 7.4707 19.5 7.47063C19.5 7.47056 19.5 7.47049 19.5 7.47042C19.5 7.47036 19.5 7.47029 19.5 7.47022C19.5 7.47015 19.5 7.47008 19.5 7.47001C19.5 7.46994 19.5 7.46987 19.5 7.4698C19.5 7.46973 19.5 7.46966 19.5 7.46959C19.5 7.46952 19.5 7.46945 19.5 7.46938C19.5 7.46931 19.5 7.46924 19.5 7.46917C19.5 7.4691 19.5 7.46903 19.5 7.46896C19.5 7.46889 19.5 7.46882 19.5 7.46875C19.5 7.46868 19.5 7.46861 19.5 7.46853C19.5 7.46846 19.5 7.46839 19.5 7.46832C19.5 7.46825 19.5 7.46818 19.5 7.4681C19.5 7.46803 19.5 7.46796 19.5 7.46789C19.5 7.46781 19.5 7.46774 19.5 7.46767C19.5 7.4676 19.5 7.46752 19.5 7.46745C19.5 7.46738 19.5 7.4673 19.5 7.46723C19.5 7.46716 19.5 7.46708 19.5 7.46701C19.5 7.46694 19.5 7.46686 19.5 7.46679C19.5 7.46671 19.5 7.46664 19.5 7.46656C19.5 7.46649 19.5 7.46642 19.5 7.46634C19.5 7.46627 19.5 7.46619 19.5 7.46612C19.5 7.46604 19.5 7.46597 19.5 7.46589C19.5 7.46582 19.5 7.46574 19.5 7.46566C19.5 7.46559 19.5 7.46551 19.5 7.46544C19.5 7.46536 19.5 7.46528 19.5 7.46521C19.5 7.46513 19.5 7.46505 19.5 7.46498C19.5 7.4649 19.5 7.46482 19.5 7.46475C19.5 7.46467 19.5 7.46459 19.5 7.46451C19.5 7.46444 19.5 7.46436 19.5 7.46428C19.5 7.4642 19.5 7.46413 19.5 7.46405C19.5 7.46397 19.5 7.46389 19.5 7.46381C19.5 7.46373 19.5 7.46366 19.5 7.46358C19.5 7.4635 19.5 7.46342 19.5 7.46334C19.5 7.46326 19.5 7.46318 19.5 7.4631C19.5 7.46302 19.5 7.46294 19.5 7.46286C19.5 7.46278 19.5 7.4627 19.5 7.46262C19.5 7.46254 19.5 7.46246 19.5 7.46238C19.5 7.4623 19.5 7.46222 19.5 7.46214C19.5 7.46206 19.5 7.46198 19.5 7.4619C19.5 7.46181 19.5 7.46173 19.5 7.46165C19.5 7.46157 19.5 7.46149 19.5 7.46141C19.5 7.46132 19.5 7.46124 19.5 7.46116C19.5 7.46108 19.5 7.461 19.5 7.46091C19.5 7.46083 19.5 7.46075 19.5 7.46066C19.5 7.46058 19.5 7.4605 19.5 7.46041C19.5 7.46033 19.5 7.46025 19.5 7.46016C19.5 7.46008 19.5 7.46 19.5 7.45991C19.5 7.45983 19.5 7.45974 19.5 7.45966C19.5 7.45958 19.5 7.45949 19.5 7.45941C19.5 7.45932 19.5 7.45924 19.5 7.45915C19.5 7.45907 19.5 7.45898 19.5 7.4589C19.5 7.45881 19.5 7.45872 19.5 7.45864C19.5 7.45855 19.5 7.45847 19.5 7.45838C19.5 7.45829 19.5 7.45821 19.5 7.45812C19.5 7.45803 19.5 7.45795 19.5 7.45786C19.5 7.45777 19.5 7.45769 19.5 7.4576C19.5 7.45751 19.5 7.45743 19.5 7.45734C19.5 7.45725 19.5 7.45716 19.5 7.45707C19.5 7.45699 19.5 7.4569 19.5 7.45681C19.5 7.45672 19.5 7.45663 19.5 7.45654C19.5 7.45646 19.5 7.45637 19.5 7.45628C19.5 7.45619 19.5 7.4561 19.5 7.45601C19.5 7.45592 19.5 7.45583 19.5 7.45574C19.5 7.45565 19.5 7.45556 19.5 7.45547C19.5 7.45538 19.5 7.45529 19.5 7.4552C19.5 7.45511 19.5 7.45502 19.5 7.45493C19.5 7.45484 19.5 7.45475 19.5 7.45465C19.5 7.45456 19.5 7.45447 19.5 7.45438C19.5 7.45429 19.5 7.4542 19.5 7.4541C19.5 7.45401 19.5 7.45392 19.5 7.45383C19.5 7.45374 19.5 7.45364 19.5 7.45355C19.5 7.45346 19.5 7.45336 19.5 7.45327C19.5 7.45318 19.5 7.45308 19.5 7.45299C19.5 7.4529 19.5 7.4528 19.5 7.45271C19.5 7.45262 19.5 7.45252 19.5 7.45243C19.5 7.45233 19.5 7.45224 19.5 7.45214C19.5 7.45205 19.5 7.45195 19.5 7.45186C19.5 7.45177 19.5 7.45167 19.5 7.45157C19.5 7.45148 19.5 7.45138 19.5 7.45129C19.5 7.45119 19.5 7.4511 19.5 7.451C19.5 7.4509 19.5 7.45081 19.5 7.45071C19.5 7.45061 19.5 7.45052 19.5 7.45042C19.5 7.45032 19.5 7.45023 19.5 7.45013C19.5 7.45003 19.5 7.44993 19.5 7.44984H15.5C15.5 7.44993 15.5 7.45003 15.5 7.45013C15.5 7.45023 15.5 7.45032 15.5 7.45042C15.5 7.45052 15.5 7.45061 15.5 7.45071C15.5 7.45081 15.5 7.4509 15.5 7.451C15.5 7.4511 15.5 7.45119 15.5 7.45129C15.5 7.45138 15.5 7.45148 15.5 7.45157C15.5 7.45167 15.5 7.45177 15.5 7.45186C15.5 7.45195 15.5 7.45205 15.5 7.45214C15.5 7.45224 15.5 7.45233 15.5 7.45243C15.5 7.45252 15.5 7.45262 15.5 7.45271C15.5 7.4528 15.5 7.4529 15.5 7.45299C15.5 7.45308 15.5 7.45318 15.5 7.45327C15.5 7.45336 15.5 7.45346 15.5 7.45355C15.5 7.45364 15.5 7.45374 15.5 7.45383C15.5 7.45392 15.5 7.45401 15.5 7.4541C15.5 7.4542 15.5 7.45429 15.5 7.45438C15.5 7.45447 15.5 7.45456 15.5 7.45465C15.5 7.45475 15.5 7.45484 15.5 7.45493C15.5 7.45502 15.5 7.45511 15.5 7.4552C15.5 7.45529 15.5 7.45538 15.5 7.45547C15.5 7.45556 15.5 7.45565 15.5 7.45574C15.5 7.45583 15.5 7.45592 15.5 7.45601C15.5 7.4561 15.5 7.45619 15.5 7.45628C15.5 7.45637 15.5 7.45646 15.5 7.45654C15.5 7.45663 15.5 7.45672 15.5 7.45681C15.5 7.4569 15.5 7.45699 15.5 7.45707C15.5 7.45716 15.5 7.45725 15.5 7.45734C15.5 7.45743 15.5 7.45751 15.5 7.4576C15.5 7.45769 15.5 7.45777 15.5 7.45786C15.5 7.45795 15.5 7.45803 15.5 7.45812C15.5 7.45821 15.5 7.45829 15.5 7.45838C15.5 7.45847 15.5 7.45855 15.5 7.45864C15.5 7.45872 15.5 7.45881 15.5 7.4589C15.5 7.45898 15.5 7.45907 15.5 7.45915C15.5 7.45924 15.5 7.45932 15.5 7.45941C15.5 7.45949 15.5 7.45958 15.5 7.45966C15.5 7.45974 15.5 7.45983 15.5 7.45991C15.5 7.46 15.5 7.46008 15.5 7.46016C15.5 7.46025 15.5 7.46033 15.5 7.46041C15.5 7.4605 15.5 7.46058 15.5 7.46066C15.5 7.46075 15.5 7.46083 15.5 7.46091C15.5 7.461 15.5 7.46108 15.5 7.46116C15.5 7.46124 15.5 7.46132 15.5 7.46141C15.5 7.46149 15.5 7.46157 15.5 7.46165C15.5 7.46173 15.5 7.46181 15.5 7.4619C15.5 7.46198 15.5 7.46206 15.5 7.46214C15.5 7.46222 15.5 7.4623 15.5 7.46238C15.5 7.46246 15.5 7.46254 15.5 7.46262C15.5 7.4627 15.5 7.46278 15.5 7.46286C15.5 7.46294 15.5 7.46302 15.5 7.4631C15.5 7.46318 15.5 7.46326 15.5 7.46334C15.5 7.46342 15.5 7.4635 15.5 7.46358C15.5 7.46366 15.5 7.46373 15.5 7.46381C15.5 7.46389 15.5 7.46397 15.5 7.46405C15.5 7.46413 15.5 7.4642 15.5 7.46428C15.5 7.46436 15.5 7.46444 15.5 7.46451C15.5 7.46459 15.5 7.46467 15.5 7.46475C15.5 7.46482 15.5 7.4649 15.5 7.46498C15.5 7.46505 15.5 7.46513 15.5 7.46521C15.5 7.46528 15.5 7.46536 15.5 7.46544C15.5 7.46551 15.5 7.46559 15.5 7.46566C15.5 7.46574 15.5 7.46582 15.5 7.46589C15.5 7.46597 15.5 7.46604 15.5 7.46612C15.5 7.46619 15.5 7.46627 15.5 7.46634C15.5 7.46642 15.5 7.46649 15.5 7.46656C15.5 7.46664 15.5 7.46671 15.5 7.46679C15.5 7.46686 15.5 7.46694 15.5 7.46701C15.5 7.46708 15.5 7.46716 15.5 7.46723C15.5 7.4673 15.5 7.46738 15.5 7.46745C15.5 7.46752 15.5 7.4676 15.5 7.46767C15.5 7.46774 15.5 7.46781 15.5 7.46789C15.5 7.46796 15.5 7.46803 15.5 7.4681C15.5 7.46818 15.5 7.46825 15.5 7.46832C15.5 7.46839 15.5 7.46846 15.5 7.46853C15.5 7.46861 15.5 7.46868 15.5 7.46875C15.5 7.46882 15.5 7.46889 15.5 7.46896C15.5 7.46903 15.5 7.4691 15.5 7.46917C15.5 7.46924 15.5 7.46931 15.5 7.46938C15.5 7.46945 15.5 7.46952 15.5 7.46959C15.5 7.46966 15.5 7.46973 15.5 7.4698C15.5 7.46987 15.5 7.46994 15.5 7.47001C15.5 7.47008 15.5 7.47015 15.5 7.47022C15.5 7.47029 15.5 7.47036 15.5 7.47042C15.5 7.47049 15.5 7.47056 15.5 7.47063C15.5 7.4707 15.5 7.47077 15.5 7.47083C15.5 7.4709 15.5 7.47097 15.5 7.47104C15.5 7.47111 15.5 7.47117 15.5 7.47124C15.5 7.47131 15.5 7.47137 15.5 7.47144C15.5 7.47151 15.5 7.47157 15.5 7.47164C15.5 7.47171 15.5 7.47177 15.5 7.47184C15.5 7.47191 15.5 7.47197 15.5 7.47204C15.5 7.47211 15.5 7.47217 15.5 7.47224C15.5 7.4723 15.5 7.47237 15.5 7.47243C15.5 7.4725 15.5 7.47256 15.5 7.47263C15.5 7.47269 15.5 7.47276 15.5 7.47282C15.5 7.47289 15.5 7.47295 15.5 7.47302C15.5 7.47308 15.5 7.47315 15.5 7.47321C15.5 7.47328 15.5 7.47334 15.5 7.4734C15.5 7.47347 15.5 7.47353 15.5 7.47359C15.5 7.47366 15.5 7.47372 15.5 7.47378C15.5 7.47385 15.5 7.47391 15.5 7.47397C15.5 7.47404 15.5 7.4741 15.5 7.47416C15.5 7.47422 15.5 7.47429 15.5 7.47435C15.5 7.47441 15.5 7.47447 15.5 7.47454C15.5 7.4746 15.5 7.47466 15.5 7.47472C15.5 7.47478 15.5 7.47484 15.5 7.47491C15.5 7.47497 15.5 7.47503 15.5 7.47509C15.5 7.47515 15.5 7.47521 15.5 7.47527C15.5 7.47533 15.5 7.47539 15.5 7.47545C15.5 7.47552 15.5 7.47558 15.5 7.47564C15.5 7.4757 15.5 7.47576 15.5 7.47582C15.5 7.47588 15.5 7.47594 15.5 7.476C15.5 7.47606 15.5 7.47611 15.5 7.47617C15.5 7.47623 15.5 7.47629 15.5 7.47635C15.5 7.47641 15.5 7.47647 15.5 7.47653C15.5 7.47659 15.5 7.47664 15.5 7.4767C15.5 7.47676 15.5 7.47682 15.5 7.47688C15.5 7.47694 15.5 7.47699 15.5 7.47705C15.5 7.47711 15.5 7.47717 15.5 7.47723C15.5 7.47728 15.5 7.47734 15.5 7.4774C15.5 7.47745 15.5 7.47751 15.5 7.47757C15.5 7.47763 15.5 7.47768 15.5 7.47774C15.5 7.4778 15.5 7.47785 15.5 7.47791C15.5 7.47796 15.5 7.47802 15.5 7.47808C15.5 7.47813 15.5 7.47819 15.5 7.47825C15.5 7.4783 15.5 7.47836 15.5 7.47841C15.5 7.47847 15.5 7.47852 15.5 7.47858C15.5 7.47863 15.5 7.47869 15.5 7.47874C15.5 7.4788 15.5 7.47885 15.5 7.47891C15.5 7.47896 15.5 7.47902 15.5 7.47907C15.5 7.47913 15.5 7.47918 15.5 7.47923C15.5 7.47929 15.5 7.47934 15.5 7.4794C15.5 7.47945 15.5 7.4795 15.5 7.47956C15.5 7.47961 15.5 7.47966 15.5 7.47972C15.5 7.47977 15.5 7.47982 15.5 7.47988C15.5 7.47993 15.5 7.47998 15.5 7.48003C15.5 7.48009 15.5 7.48014 15.5 7.48019C15.5 7.48024 15.5 7.4803 15.5 7.48035C15.5 7.4804 15.5 7.48045 15.5 7.4805C15.5 7.48056 15.5 7.48061 15.5 7.48066C15.5 7.48071 15.5 7.48076 15.5 7.48081C15.5 7.48087 15.5 7.48092 15.5 7.48097C15.5 7.48102 15.5 7.48107 15.5 7.48112C15.5 7.48117 15.5 7.48122 15.5 7.48127C15.5 7.48132 15.5 7.48137 15.5 7.48142C15.5 7.48147 15.5 7.48152 15.5 7.48157C15.5 7.48162 15.5 7.48167 15.5 7.48172C15.5 7.48177 15.5 7.48182 15.5 7.48187C15.5 7.48192 15.5 7.48197 15.5 7.48202C15.5 7.48207 15.5 7.48212 15.5 7.48217C15.5 7.48221 15.5 7.48226 15.5 7.48231C15.5 7.48236 15.5 7.48241 15.5 7.48246C15.5 7.4825 15.5 7.48255 15.5 7.4826C15.5 7.48265 15.5 7.4827 15.5 7.48274C15.5 7.48279 15.5 7.48284 15.5 7.48289C15.5 7.48293 15.5 7.48298 15.5 7.48303C15.5 7.48308 15.5 7.48312 15.5 7.48317C15.5 7.48322 15.5 7.48326 15.5 7.48331C15.5 7.48336 15.5 7.4834 15.5 7.48345C15.5 7.4835 15.5 7.48354 15.5 7.48359C15.5 7.48364 15.5 7.48368 15.5 7.48373C15.5 7.48377 15.5 7.48382 15.5 7.48387C15.5 7.48391 15.5 7.48396 15.5 7.484C15.5 7.48405 15.5 7.48409 15.5 7.48414C15.5 7.48418 15.5 7.48423 15.5 7.48427C15.5 7.48432 15.5 7.48436 15.5 7.48441C15.5 7.48445 15.5 7.4845 15.5 7.48454C15.5 7.48458 15.5 7.48463 15.5 7.48467C15.5 7.48472 15.5 7.48476 15.5 7.4848C15.5 7.48485 15.5 7.48489 15.5 7.48494C15.5 7.48498 15.5 7.48502 15.5 7.48507C15.5 7.48511 15.5 7.48515 15.5 7.4852C15.5 7.48524 15.5 7.48528 15.5 7.48532C15.5 7.48537 15.5 7.48541 15.5 7.48545C15.5 7.48549 15.5 7.48554 15.5 7.48558C15.5 7.48562 15.5 7.48566 15.5 7.48571C15.5 7.48575 15.5 7.48579 15.5 7.48583C15.5 7.48587 15.5 7.48592 15.5 7.48596C15.5 7.486 15.5 7.48604 15.5 7.48608C15.5 7.48612 15.5 7.48616 15.5 7.4862C15.5 7.48625 15.5 7.48629 15.5 7.48633C15.5 7.48637 15.5 7.48641 15.5 7.48645C15.5 7.48649 15.5 7.48653 15.5 7.48657C15.5 7.48661 15.5 7.48665 15.5 7.48669C15.5 7.48673 15.5 7.48677 15.5 7.48681C15.5 7.48685 15.5 7.48689 15.5 7.48693C15.5 7.48697 15.5 7.48701 15.5 7.48705C15.5 7.48709 15.5 7.48713 15.5 7.48717C15.5 7.48721 15.5 7.48724 15.5 7.48728C15.5 7.48732 15.5 7.48736 15.5 7.4874C15.5 7.48744 15.5 7.48748 15.5 7.48752C15.5 7.48755 15.5 7.48759 15.5 7.48763C15.5 7.48767 15.5 7.48771 15.5 7.48774C15.5 7.48778 15.5 7.48782 15.5 7.48786C15.5 7.4879 15.5 7.48793 15.5 7.48797C15.5 7.48801 15.5 7.48805 15.5 7.48808C15.5 7.48812 15.5 7.48816 15.5 7.48819C15.5 7.48823 15.5 7.48827 15.5 7.4883C15.5 7.48834 15.5 7.48838 15.5 7.48841C15.5 7.48845 15.5 7.48849 15.5 7.48852C15.5 7.48856 15.5 7.4886 15.5 7.48863C15.5 7.48867 15.5 7.4887 15.5 7.48874C15.5 7.48878 15.5 7.48881 15.5 7.48885C15.5 7.48888 15.5 7.48892 15.5 7.48895C15.5 7.48899 15.5 7.48902 15.5 7.48906C15.5 7.48909 15.5 7.48913 15.5 7.48916C15.5 7.4892 15.5 7.48923 15.5 7.48927C15.5 7.4893 15.5 7.48934 15.5 7.48937C15.5 7.48941 15.5 7.48944 15.5 7.48947C15.5 7.48951 15.5 7.48954 15.5 7.48958C15.5 7.48961 15.5 7.48964 15.5 7.48968C15.5 7.48971 15.5 7.48975 15.5 7.48978C15.5 7.48981 15.5 7.48985 15.5 7.48988C15.5 7.48991 15.5 7.48995 15.5 7.48998C15.5 7.49001 15.5 7.49005 15.5 7.49008C15.5 7.49011 15.5 7.49014 15.5 7.49018C15.5 7.49021 15.5 7.49024 15.5 7.49027C15.5 7.49031 15.5 7.49034 15.5 7.49037C15.5 7.4904 15.5 7.49043 15.5 7.49047C15.5 7.4905 15.5 7.49053 15.5 7.49056C15.5 7.49059 15.5 7.49063 15.5 7.49066C15.5 7.49069 15.5 7.49072 15.5 7.49075C15.5 7.49078 15.5 7.49081 15.5 7.49085C15.5 7.49088 15.5 7.49091 15.5 7.49094C15.5 7.49097 15.5 7.491 15.5 7.49103C15.5 7.49106 15.5 7.49109 15.5 7.49112C15.5 7.49115 15.5 7.49118 15.5 7.49121C15.5 7.49124 15.5 7.49127 15.5 7.4913C15.5 7.49133 15.5 7.49136 15.5 7.49139C15.5 7.49142 15.5 7.49145 15.5 7.49148C15.5 7.49151 15.5 7.49154 15.5 7.49157C15.5 7.4916 15.5 7.49163 15.5 7.49166C15.5 7.49169 15.5 7.49172 15.5 7.49175C15.5 7.49178 15.5 7.4918 15.5 7.49183C15.5 7.49186 15.5 7.49189 15.5 7.49192C15.5 7.49195 15.5 7.49198 15.5 7.492C15.5 7.49203 15.5 7.49206 15.5 7.49209C15.5 7.49212 15.5 7.49215 15.5 7.49217C15.5 7.4922 15.5 7.49223 15.5 7.49226C15.5 7.49229 15.5 7.49231 15.5 7.49234C15.5 7.49237 15.5 7.4924 15.5 7.49242C15.5 7.49245 15.5 7.49248 15.5 7.49251C15.5 7.49253 15.5 7.49256 15.5 7.49259C15.5 7.49261 15.5 7.49264 15.5 7.49267C15.5 7.49269 15.5 7.49272 15.5 7.49275C15.5 7.49277 15.5 7.4928 15.5 7.49283C15.5 7.49285 15.5 7.49288 15.5 7.4929C15.5 7.49293 15.5 7.49296 15.5 7.49298C15.5 7.49301 15.5 7.49303 15.5 7.49306C15.5 7.49309 15.5 7.49311 15.5 7.49314C15.5 7.49316 15.5 7.49319 15.5 7.49321C15.5 7.49324 15.5 7.49326 15.5 7.49329C15.5 7.49331 15.5 7.49334 15.5 7.49336C15.5 7.49339 15.5 7.49341 15.5 7.49344C15.5 7.49346 15.5 7.49349 15.5 7.49351C15.5 7.49354 15.5 7.49356 15.5 7.49359C15.5 7.49361 15.5 7.49364 15.5 7.49366C15.5 7.49368 15.5 7.49371 15.5 7.49373C15.5 7.49376 15.5 7.49378 15.5 7.4938C15.5 7.49383 15.5 7.49385 15.5 7.49388C15.5 7.4939 15.5 7.49392 15.5 7.49395C15.5 7.49397 15.5 7.49399 15.5 7.49402C15.5 7.49404 15.5 7.49406 15.5 7.49409C15.5 7.49411 15.5 7.49413 15.5 7.49415C15.5 7.49418 15.5 7.4942 15.5 7.49422C15.5 7.49425 15.5 7.49427 15.5 7.49429C15.5 7.49431 15.5 7.49434 15.5 7.49436C15.5 7.49438 15.5 7.4944 15.5 7.49443C15.5 7.49445 15.5 7.49447 15.5 7.49449C15.5 7.49451 15.5 7.49454 15.5 7.49456C15.5 7.49458 15.5 7.4946 15.5 7.49462C15.5 7.49464 15.5 7.49467 15.5 7.49469C15.5 7.49471 15.5 7.49473 15.5 7.49475C15.5 7.49477 15.5 7.49479 15.5 7.49482C15.5 7.49484 15.5 7.49486 15.5 7.49488C15.5 7.4949 15.5 7.49492 15.5 7.49494C15.5 7.49496 15.5 7.49498 15.5 7.495C15.5 7.49502 15.5 7.49504 15.5 7.49506C15.5 7.49508 15.5 7.4951 15.5 7.49513C15.5 7.49515 15.5 7.49517 15.5 7.49519C15.5 7.49521 15.5 7.49523 15.5 7.49525C15.5 7.49527 15.5 7.49529 15.5 7.4953C15.5 7.49532 15.5 7.49534 15.5 7.49536C15.5 7.49538 15.5 7.4954 15.5 7.49542C15.5 7.49544 15.5 7.49546 15.5 7.49548C15.5 7.4955 15.5 7.49552 15.5 7.49554C15.5 7.49556 15.5 7.49557 15.5 7.49559C15.5 7.49561 15.5 7.49563 15.5 7.49565C15.5 7.49567 15.5 7.49569 15.5 7.49571C15.5 7.49572 15.5 7.49574 15.5 7.49576C15.5 7.49578 15.5 7.4958 15.5 7.49582C15.5 7.49583 15.5 7.49585 15.5 7.49587C15.5 7.49589 15.5 7.49591 15.5 7.49592C15.5 7.49594 15.5 7.49596 15.5 7.49598C15.5 7.496 15.5 7.49601 15.5 7.49603C15.5 7.49605 15.5 7.49607 15.5 7.49608C15.5 7.4961 15.5 7.49612 15.5 7.49614C15.5 7.49615 15.5 7.49617 15.5 7.49619C15.5 7.4962 15.5 7.49622 15.5 7.49624C15.5 7.49625 15.5 7.49627 15.5 7.49629C15.5 7.4963 15.5 7.49632 15.5 7.49634C15.5 7.49635 15.5 7.49637 15.5 7.49639C15.5 7.4964 15.5 7.49642 15.5 7.49644C15.5 7.49645 15.5 7.49647 15.5 7.49649C15.5 7.4965 15.5 7.49652 15.5 7.49653C15.5 7.49655 15.5 7.49656 15.5 7.49658C15.5 7.4966 15.5 7.49661 15.5 7.49663C15.5 7.49664 15.5 7.49666 15.5 7.49667C15.5 7.49669 15.5 7.49671 15.5 7.49672C15.5 7.49674 15.5 7.49675 15.5 7.49677C15.5 7.49678 15.5 7.4968 15.5 7.49681C15.5 7.49683 15.5 7.49684 15.5 7.49686C15.5 7.49687 15.5 7.49689 15.5 7.4969C15.5 7.49692 15.5 7.49693 15.5 7.49695C15.5 7.49696 15.5 7.49697 15.5 7.49699C15.5 7.497 15.5 7.49702 15.5 7.49703C15.5 7.49705 15.5 7.49706 15.5 7.49708C15.5 7.49709 15.5 7.4971 15.5 7.49712C15.5 7.49713 15.5 7.49715 15.5 7.49716C15.5 7.49717 15.5 7.49719 15.5 7.4972C15.5 7.49721 15.5 7.49723 15.5 7.49724C15.5 7.49726 15.5 7.49727 15.5 7.49728C15.5 7.4973 15.5 7.49731 15.5 7.49732C15.5 7.49734 15.5 7.49735 15.5 7.49736C15.5 7.49738 15.5 7.49739 15.5 7.4974C15.5 7.49741 15.5 7.49743 15.5 7.49744C15.5 7.49745 15.5 7.49747 15.5 7.49748C15.5 7.49749 15.5 7.4975 15.5 7.49752C15.5 7.49753 15.5 7.49754 15.5 7.49755C15.5 7.49757 15.5 7.49758 15.5 7.49759C15.5 7.4976 15.5 7.49762 15.5 7.49763C15.5 7.49764 15.5 7.49765 15.5 7.49766C15.5 7.49768 15.5 7.49769 15.5 7.4977C15.5 7.49771 15.5 7.49772 15.5 7.49774C15.5 7.49775 15.5 7.49776 15.5 7.49777C15.5 7.49778 15.5 7.4978 15.5 7.49781C15.5 7.49782 15.5 7.49783 15.5 7.49784C15.5 7.49785 15.5 7.49786 15.5 7.49787C15.5 7.49789 15.5 7.4979 15.5 7.49791C15.5 7.49792 15.5 7.49793 15.5 7.49794C15.5 7.49795 15.5 7.49796 15.5 7.49797C15.5 7.49799 15.5 7.498 15.5 7.49801C15.5 7.49802 15.5 7.49803 15.5 7.49804C15.5 7.49805 15.5 7.49806 15.5 7.49807C15.5 7.49808 15.5 7.49809 15.5 7.4981C15.5 7.49811 15.5 7.49812 15.5 7.49813C15.5 7.49814 15.5 7.49815 15.5 7.49816C15.5 7.49817 15.5 7.49818 15.5 7.49819C15.5 7.4982 15.5 7.49821 15.5 7.49822C15.5 7.49823 15.5 7.49824 15.5 7.49825C15.5 7.49826 15.5 7.49827 15.5 7.49828C15.5 7.49829 15.5 7.4983 15.5 7.49831C15.5 7.49832 15.5 7.49833 15.5 7.49834C15.5 7.49835 15.5 7.49836 15.5 7.49837C15.5 7.49838 15.5 7.49839 15.5 7.4984C15.5 7.4984 15.5 7.49841 15.5 7.49842C15.5 7.49843 15.5 7.49844 15.5 7.49845C15.5 7.49846 15.5 7.49847 15.5 7.49848C15.5 7.49849 15.5 7.49849 15.5 7.4985C15.5 7.49851 15.5 7.49852 15.5 7.49853C15.5 7.49854 15.5 7.49855 15.5 7.49855C15.5 7.49856 15.5 7.49857 15.5 7.49858C15.5 7.49859 15.5 7.4986 15.5 7.49861C15.5 7.49861 15.5 7.49862 15.5 7.49863C15.5 7.49864 15.5 7.49865 15.5 7.49865C15.5 7.49866 15.5 7.49867 15.5 7.49868C15.5 7.49869 15.5 7.49869 15.5 7.4987C15.5 7.49871 15.5 7.49872 15.5 7.49872C15.5 7.49873 15.5 7.49874 15.5 7.49875C15.5 7.49876 15.5 7.49876 15.5 7.49877C15.5 7.49878 15.5 7.49879 15.5 7.49879C15.5 7.4988 15.5 7.49881 15.5 7.49882C15.5 7.49882 15.5 7.49883 15.5 7.49884C15.5 7.49884 15.5 7.49885 15.5 7.49886C15.5 7.49887 15.5 7.49887 15.5 7.49888C15.5 7.49889 15.5 7.49889 15.5 7.4989C15.5 7.49891 15.5 7.49891 15.5 7.49892C15.5 7.49893 15.5 7.49893 15.5 7.49894C15.5 7.49895 15.5 7.49895 15.5 7.49896C15.5 7.49897 15.5 7.49897 15.5 7.49898C15.5 7.49899 15.5 7.49899 15.5 7.499C15.5 7.49901 15.5 7.49901 15.5 7.49902C15.5 7.49903 15.5 7.49903 15.5 7.49904C15.5 7.49904 15.5 7.49905 15.5 7.49906C15.5 7.49906 15.5 7.49907 15.5 7.49907C15.5 7.49908 15.5 7.49909 15.5 7.49909C15.5 7.4991 15.5 7.4991 15.5 7.49911C15.5 7.49912 15.5 7.49912 15.5 7.49913C15.5 7.49913 15.5 7.49914 15.5 7.49914C15.5 7.49915 15.5 7.49916 15.5 7.49916C15.5 7.49917 15.5 7.49917 15.5 7.49918C15.5 7.49918 15.5 7.49919 15.5 7.49919C15.5 7.4992 15.5 7.4992 15.5 7.49921C15.5 7.49922 15.5 7.49922 15.5 7.49923C15.5 7.49923 15.5 7.49924 15.5 7.49924C15.5 7.49925 15.5 7.49925 15.5 7.49926C15.5 7.49926 15.5 7.49927 15.5 7.49927C15.5 7.49928 15.5 7.49928 15.5 7.49929C15.5 7.49929 15.5 7.4993 15.5 7.4993C15.5 7.4993 15.5 7.49931 15.5 7.49931C15.5 7.49932 15.5 7.49932 15.5 7.49933C15.5 7.49933 15.5 7.49934 15.5 7.49934C15.5 7.49935 15.5 7.49935 15.5 7.49935C15.5 7.49936 15.5 7.49936 15.5 7.49937C15.5 7.49937 15.5 7.49938 15.5 7.49938C15.5 7.49939 15.5 7.49939 15.5 7.49939C15.5 7.4994 15.5 7.4994 15.5 7.49941C15.5 7.49941 15.5 7.49941 15.5 7.49942C15.5 7.49942 15.5 7.49943 15.5 7.49943C15.5 7.49943 15.5 7.49944 15.5 7.49944C15.5 7.49945 15.5 7.49945 15.5 7.49945C15.5 7.49946 15.5 7.49946 15.5 7.49946C15.5 7.49947 15.5 7.49947 15.5 7.49948C15.5 7.49948 15.5 7.49948 15.5 7.49949C15.5 7.49949 15.5 7.49949 15.5 7.4995C15.5 7.4995 15.5 7.4995 15.5 7.49951C15.5 7.49951 15.5 7.49951 15.5 7.49952C15.5 7.49952 15.5 7.49952 15.5 7.49953C15.5 7.49953 15.5 7.49953 15.5 7.49954C15.5 7.49954 15.5 7.49954 15.5 7.49955C15.5 7.49955 15.5 7.49955 15.5 7.49956C15.5 7.49956 15.5 7.49956 15.5 7.49957C15.5 7.49957 15.5 7.49957 15.5 7.49957C15.5 7.49958 15.5 7.49958 15.5 7.49958C15.5 7.49959 15.5 7.49959 15.5 7.49959C15.5 7.4996 15.5 7.4996 15.5 7.4996C15.5 7.4996 15.5 7.49961 15.5 7.49961C15.5 7.49961 15.5 7.49961 15.5 7.49962C15.5 7.49962 15.5 7.49962 15.5 7.49962C15.5 7.49963 15.5 7.49963 15.5 7.49963C15.5 7.49963 15.5 7.49964 15.5 7.49964C15.5 7.49964 15.5 7.49964 15.5 7.49965C15.5 7.49965 15.5 7.49965 15.5 7.49965C15.5 7.49966 15.5 7.49966 15.5 7.49966C15.5 7.49966 15.5 7.49967 15.5 7.49967C15.5 7.49967 15.5 7.49967 15.5 7.49967C15.5 7.49968 15.5 7.49968 15.5 7.49968C15.5 7.49968 15.5 7.49968 15.5 7.49969C15.5 7.49969 15.5 7.49969 15.5 7.49969C15.5 7.49969 15.5 7.4997 15.5 7.4997C15.5 7.4997 15.5 7.4997 15.5 7.4997C15.5 7.49971 15.5 7.49971 15.5 7.49971C15.5 7.49971 15.5 7.49971 15.5 7.49972C15.5 7.49972 15.5 7.49972 15.5 7.49972C15.5 7.49972 15.5 7.49972 15.5 7.49973C15.5 7.49973 15.5 7.49973 15.5 7.49973C15.5 7.49973 15.5 7.49973 15.5 7.49974C15.5 7.49974 15.5 7.49974 15.5 7.49974C15.5 7.49974 15.5 7.49974 15.5 7.49974C15.5 7.49975 15.5 7.49975 15.5 7.49975C15.5 7.49975 15.5 7.49975 15.5 7.49975C15.5 7.49975 15.5 7.49976 15.5 7.49976C15.5 7.49976 15.5 7.49976 15.5 7.49976C15.5 7.49976 15.5 7.49976 15.5 7.49976C15.5 7.49977 15.5 7.49977 15.5 7.49977C15.5 7.49977 15.5 7.49977 15.5 7.49977C15.5 7.49977 15.5 7.49977 15.5 7.49978C15.5 7.49978 15.5 7.49978 15.5 7.49978C15.5 7.49978 15.5 7.49978 15.5 7.49978C15.5 7.49978 15.5 7.49978 15.5 7.49978C15.5 7.49979 15.5 7.49979 15.5 7.49979C15.5 7.49979 15.5 7.49979 15.5 7.49979C15.5 7.49979 15.5 7.49979 15.5 7.49979C15.5 7.49979 15.5 7.4998 15.5 7.4998C15.5 7.4998 15.5 7.4998 15.5 7.4998C15.5 7.4998 15.5 7.4998 15.5 7.4998C15.5 7.4998 15.5 7.4998 15.5 7.4998C15.5 7.4998 15.5 7.4998 15.5 7.49981C15.5 7.49981 15.5 7.49981 15.5 7.49981C15.5 7.49981 15.5 7.49981 15.5 7.49981C15.5 7.49981 15.5 7.49981 15.5 7.49981C15.5 7.49981 15.5 7.49981 15.5 7.49981C15.5 7.49981 15.5 7.49981 15.5 7.49982C15.5 7.49982 15.5 7.49982 15.5 7.49982C15.5 7.49982 15.5 7.49982 15.5 7.49982C15.5 7.49982 15.5 7.49982 15.5 7.49982C15.5 7.49982 15.5 7.49982 15.5 7.49982C15.5 7.49982 15.5 7.49982 15.5 7.49982C15.5 7.49982 15.5 7.49982 15.5 7.49982C15.5 7.49982 15.5 7.49983 15.5 7.49983C15.5 7.49983 15.5 7.49983 15.5 7.49983C15.5 7.49983 15.5 7.49983 15.5 7.49983C15.5 7.49983 15.5 7.49983 15.5 7.49983C15.5 7.49983 15.5 7.49983 15.5 7.49983C15.5 7.49983 15.5 7.49983 15.5 7.49983C15.5 7.49983 15.5 7.49983 15.5 7.49983V7.49983C15.5 7.49983 15.5 7.49983 15.5 7.49983C15.5 7.49983 15.5 7.49983 15.5 7.49983V7.49983V7.49983V7.49983V7.49984C15.5 7.49984 15.5 7.49984 15.5 7.49984C15.5 7.49984 15.5 7.49984 15.5 7.49984C15.5 7.49984 15.5 7.49984 15.5 7.49984C15.5 7.49984 15.5 7.49984 15.5 7.49984C15.5 7.49984 15.5 7.49984 15.5 7.49984C15.5 7.49984 15.5 7.49984 17.5 7.49984ZM11.0858 5.92238L13.2441 8.08072L16.0725 5.25229L13.9142 3.09396L11.0858 5.92238ZM14.6583 4.6665H13.3333V8.6665H14.6583V4.6665ZM13.3333 4.6665C13.6428 4.6665 13.9395 4.78942 14.1583 5.00821L11.3299 7.83664C11.8612 8.36799 12.5819 8.6665 13.3333 8.6665V4.6665ZM14.1583 5.00821C14.3771 5.227 14.5 5.52375 14.5 5.83317H10.5C10.5 6.58462 10.7985 7.30529 11.3299 7.83664L14.1583 5.00821ZM14.5 5.83317V4.50817H10.5V5.83317H14.5ZM10.5 15.8332C10.5 15.5238 10.6229 15.227 10.8417 15.0082L13.6701 17.8366C14.2015 17.3053 14.5 16.5846 14.5 15.8332H10.5ZM10.8417 15.0082C11.0605 14.7894 11.3573 14.6665 11.6667 14.6665V18.6665C12.4181 18.6665 13.1388 18.368 13.6701 17.8366L10.8417 15.0082ZM11.6667 14.6665H5V18.6665H11.6667V14.6665ZM5 14.6665C5.30942 14.6665 5.60616 14.7894 5.82496 15.0082L2.99653 17.8366C3.52789 18.368 4.24856 18.6665 5 18.6665V14.6665ZM5.82496 15.0082C6.04375 15.227 6.16667 15.5238 6.16667 15.8332H2.16667C2.16667 16.5846 2.46518 17.3053 2.99653 17.8366L5.82496 15.0082ZM6.16667 15.8332V7.49984H2.16667V15.8332H6.16667ZM6.16667 7.49984C6.16667 7.80926 6.04375 8.106 5.82496 8.3248L2.99653 5.49637C2.46518 6.02772 2.16667 6.74839 2.16667 7.49984H6.16667ZM5.82496 8.3248C5.60617 8.54359 5.30942 8.6665 5 8.6665V4.6665C4.24855 4.6665 3.52788 4.96502 2.99653 5.49637L5.82496 8.3248ZM5 8.6665H5.83333V4.6665H5V8.6665ZM3.83333 6.6665V12.4998H7.83333V6.6665H3.83333ZM3.83333 12.4998C3.83333 13.6933 4.30744 14.8379 5.15135 15.6818L7.97978 12.8534C7.88601 12.7596 7.83333 12.6324 7.83333 12.4998H3.83333ZM5.15135 15.6818C5.99527 16.5257 7.13986 16.9998 8.33333 16.9998V12.9998C8.20072 12.9998 8.07355 12.9472 7.97978 12.8534L5.15135 15.6818ZM8.33333 16.9998H12.5V12.9998H8.33333V16.9998ZM10.5 14.9998V15.8332H14.5V14.9998H10.5ZM13.8333 12.4998C13.8333 12.1904 13.9562 11.8937 14.175 11.6749L17.0035 14.5033C17.5348 13.972 17.8333 13.2513 17.8333 12.4998H13.8333ZM14.175 11.6749C14.3938 11.4561 14.6906 11.3332 15 11.3332V15.3332C15.7514 15.3332 16.4721 15.0347 17.0035 14.5033L14.175 11.6749ZM15 11.3332H8.33333V15.3332H15V11.3332ZM8.33333 11.3332C8.64275 11.3332 8.9395 11.4561 9.15829 11.6749L6.32986 14.5033C6.86122 15.0347 7.58188 15.3332 8.33333 15.3332V11.3332ZM9.15829 11.6749C9.37708 11.8937 9.5 12.1904 9.5 12.4998H5.5C5.5 13.2513 5.79851 13.972 6.32986 14.5033L9.15829 11.6749ZM9.5 12.4998V4.1665H5.5V12.4998H9.5ZM9.5 4.1665C9.5 4.47592 9.37708 4.77267 9.15829 4.99146L6.32986 2.16304C5.79851 2.69439 5.5 3.41506 5.5 4.1665H9.5ZM9.15829 4.99146C8.9395 5.21025 8.64275 5.33317 8.33333 5.33317V1.33317C7.58188 1.33317 6.86122 1.63168 6.32986 2.16304L9.15829 4.99146ZM8.33333 5.33317H10.8333V1.33317H8.33333V5.33317ZM8.83333 3.33317V5.83317H12.8333V3.33317H8.83333ZM8.83333 5.83317C8.83333 7.02664 9.30744 8.17124 10.1514 9.01515L12.9798 6.18672C12.886 6.09296 12.8333 5.96578 12.8333 5.83317H8.83333ZM10.1514 9.01515C10.9953 9.85907 12.1399 10.3332 13.3333 10.3332V6.33317C13.2007 6.33317 13.0735 6.28049 12.9798 6.18672L10.1514 9.01515ZM13.3333 10.3332H15.8333V6.33317H13.3333V10.3332ZM13.8333 8.33317V12.4998H17.8333V8.33317H13.8333Z" fill="#1D1D1F" mask="url(#path-1-inside-1_1168_3015)"/>
</svg>
