<svg width="20" height="20" viewBox="0 0 20 20" fill="none" xmlns="http://www.w3.org/2000/svg">
<path d="M5.83342 12.5H8.33342C8.55443 12.5 8.76639 12.4122 8.92267 12.2559C9.07895 12.0996 9.16675 11.8876 9.16675 11.6666C9.16675 11.4456 9.07895 11.2337 8.92267 11.0774C8.76639 10.9211 8.55443 10.8333 8.33342 10.8333H5.83342C5.6124 10.8333 5.40044 10.9211 5.24416 11.0774C5.08788 11.2337 5.00008 11.4456 5.00008 11.6666C5.00008 11.8876 5.08788 12.0996 5.24416 12.2559C5.40044 12.4122 5.6124 12.5 5.83342 12.5ZM15.8334 4.16663H4.16675C3.50371 4.16663 2.86782 4.43002 2.39898 4.89886C1.93014 5.3677 1.66675 6.00358 1.66675 6.66663V14.1666C1.66675 14.8297 1.93014 15.4656 2.39898 15.9344C2.86782 16.4032 3.50371 16.6666 4.16675 16.6666H15.8334C16.4965 16.6666 17.1323 16.4032 17.6012 15.9344C18.07 15.4656 18.3334 14.8297 18.3334 14.1666V6.66663C18.3334 6.00358 18.07 5.3677 17.6012 4.89886C17.1323 4.43002 16.4965 4.16663 15.8334 4.16663ZM16.6667 14.1666C16.6667 14.3876 16.579 14.5996 16.4227 14.7559C16.2664 14.9122 16.0544 15 15.8334 15H4.16675C3.94573 15 3.73377 14.9122 3.57749 14.7559C3.42121 14.5996 3.33341 14.3876 3.33341 14.1666V9.16663H16.6667V14.1666ZM16.6667 7.49996H3.33341V6.66663C3.33341 6.44561 3.42121 6.23365 3.57749 6.07737C3.73377 5.92109 3.94573 5.83329 4.16675 5.83329H15.8334C16.0544 5.83329 16.2664 5.92109 16.4227 6.07737C16.579 6.23365 16.6667 6.44561 16.6667 6.66663V7.49996Z" fill="#1D1D1F"/>
</svg>
