<svg width="20" height="20" viewBox="0 0 20 20" fill="none" xmlns="http://www.w3.org/2000/svg">
<path d="M15.8337 2.5H4.16699C3.50395 2.5 2.86807 2.76339 2.39923 3.23223C1.93038 3.70107 1.66699 4.33696 1.66699 5V11.6667C1.66699 12.3297 1.93038 12.9656 2.39923 13.4344C2.86807 13.9033 3.50395 14.1667 4.16699 14.1667H9.16699V15.8333H5.83366C5.61265 15.8333 5.40068 15.9211 5.2444 16.0774C5.08812 16.2337 5.00033 16.4457 5.00033 16.6667C5.00033 16.8877 5.08812 17.0996 5.2444 17.2559C5.40068 17.4122 5.61265 17.5 5.83366 17.5H14.167C14.388 17.5 14.6 17.4122 14.7562 17.2559C14.9125 17.0996 15.0003 16.8877 15.0003 16.6667C15.0003 16.4457 14.9125 16.2337 14.7562 16.0774C14.6 15.9211 14.388 15.8333 14.167 15.8333H10.8337V14.1667H15.8337C16.4967 14.1667 17.1326 13.9033 17.6014 13.4344C18.0703 12.9656 18.3337 12.3297 18.3337 11.6667V5C18.3337 4.33696 18.0703 3.70107 17.6014 3.23223C17.1326 2.76339 16.4967 2.5 15.8337 2.5ZM16.667 11.6667C16.667 11.8877 16.5792 12.0996 16.4229 12.2559C16.2666 12.4122 16.0547 12.5 15.8337 12.5H4.16699C3.94598 12.5 3.73402 12.4122 3.57774 12.2559C3.42146 12.0996 3.33366 11.8877 3.33366 11.6667V5C3.33366 4.77899 3.42146 4.56702 3.57774 4.41074C3.73402 4.25446 3.94598 4.16667 4.16699 4.16667H15.8337C16.0547 4.16667 16.2666 4.25446 16.4229 4.41074C16.5792 4.56702 16.667 4.77899 16.667 5V11.6667Z" fill="#1D1D1F"/>
</svg>
