<svg width="20" height="20" viewBox="0 0 20 20" fill="none" xmlns="http://www.w3.org/2000/svg">
<path d="M4.16699 15.0003H7.70033C7.81 15.0009 7.91872 14.9799 8.02025 14.9384C8.12178 14.8969 8.21413 14.8358 8.29199 14.7586L14.0587 8.98361L16.4253 6.66694C16.5034 6.58947 16.5654 6.4973 16.6077 6.39576C16.65 6.29421 16.6718 6.18528 16.6718 6.07527C16.6718 5.96526 16.65 5.85634 16.6077 5.75479C16.5654 5.65324 16.5034 5.56108 16.4253 5.48361L12.892 1.90861C12.8145 1.8305 12.7224 1.76851 12.6208 1.7262C12.5193 1.68389 12.4103 1.66211 12.3003 1.66211C12.1903 1.66211 12.0814 1.68389 11.9798 1.7262C11.8783 1.76851 11.7861 1.8305 11.7087 1.90861L9.35866 4.26694L3.57533 10.0419C3.49809 10.1198 3.43699 10.2122 3.39552 10.3137C3.35405 10.4152 3.33302 10.5239 3.33366 10.6336V14.1669C3.33366 14.388 3.42146 14.5999 3.57774 14.7562C3.73402 14.9125 3.94598 15.0003 4.16699 15.0003ZM12.3003 3.67527L14.6587 6.03361L13.4753 7.21694L11.117 4.85861L12.3003 3.67527ZM5.00033 10.9753L9.94199 6.03361L12.3003 8.39194L7.35866 13.3336H5.00033V10.9753ZM17.5003 16.6669H2.50033C2.27931 16.6669 2.06735 16.7547 1.91107 16.911C1.75479 17.0673 1.66699 17.2793 1.66699 17.5003C1.66699 17.7213 1.75479 17.9333 1.91107 18.0895C2.06735 18.2458 2.27931 18.3336 2.50033 18.3336H17.5003C17.7213 18.3336 17.9333 18.2458 18.0896 18.0895C18.2459 17.9333 18.3337 17.7213 18.3337 17.5003C18.3337 17.2793 18.2459 17.0673 18.0896 16.911C17.9333 16.7547 17.7213 16.6669 17.5003 16.6669Z" fill="#666666"/>
</svg>
