<svg width="12" height="12" viewBox="0 0 12 12" fill="none" xmlns="http://www.w3.org/2000/svg">
<path d="M10.2302 4.81515C10.16 4.08461 9.9018 3.3847 9.48078 2.78356C9.05975 2.18243 8.49023 1.70057 7.82768 1.3849C7.16513 1.06923 6.43212 0.930515 5.70004 0.982256C4.96796 1.034 4.26175 1.27443 3.65018 1.68015C3.12478 2.03148 2.68371 2.4948 2.35866 3.03685C2.0336 3.5789 1.83263 4.18621 1.77018 4.81515C1.70893 5.43998 1.78752 6.07061 2.00027 6.66129C2.21302 7.25197 2.55458 7.78788 3.00018 8.23015L5.65018 10.8852C5.69667 10.932 5.75197 10.9692 5.8129 10.9946C5.87383 11.02 5.93918 11.0331 6.00518 11.0331C6.07119 11.0331 6.13654 11.02 6.19747 10.9946C6.2584 10.9692 6.3137 10.932 6.36018 10.8852L9.00018 8.23015C9.44579 7.78788 9.78735 7.25197 10.0001 6.66129C10.2128 6.07061 10.2914 5.43998 10.2302 4.81515V4.81515ZM8.30018 7.52515L6.00018 9.82515L3.70018 7.52515C3.36123 7.18618 3.10159 6.77632 2.93992 6.32503C2.77825 5.87375 2.71858 5.39225 2.76518 4.91515C2.81209 4.43071 2.96607 3.96273 3.21597 3.54508C3.46587 3.12742 3.80546 2.77051 4.21018 2.50015C4.74066 2.14777 5.36334 1.9598 6.00018 1.9598C6.63703 1.9598 7.25971 2.14777 7.79018 2.50015C8.19368 2.76946 8.53252 3.12479 8.78236 3.54062C9.03221 3.95645 9.18685 4.42246 9.23518 4.90515C9.28331 5.38387 9.22439 5.86729 9.06268 6.32043C8.90097 6.77356 8.64052 7.18507 8.30018 7.52515V7.52515ZM6.00018 3.00015C5.55518 3.00015 5.12016 3.13211 4.75015 3.37935C4.38014 3.62658 4.09175 3.97798 3.92146 4.38912C3.75116 4.80025 3.7066 5.25265 3.79342 5.68911C3.88023 6.12557 4.09453 6.52648 4.40919 6.84114C4.72386 7.15581 5.12477 7.3701 5.56123 7.45692C5.99769 7.54374 6.45009 7.49918 6.86122 7.32888C7.27236 7.15859 7.62376 6.8702 7.87099 6.50019C8.11822 6.13018 8.25018 5.69516 8.25018 5.25015C8.24886 4.65382 8.01139 4.08229 7.58972 3.66062C7.16805 3.23895 6.59652 3.00148 6.00018 3.00015V3.00015ZM6.00018 6.50015C5.75296 6.50015 5.51128 6.42684 5.30572 6.28949C5.10016 6.15214 4.93994 5.95692 4.84534 5.72851C4.75073 5.5001 4.72597 5.24877 4.7742 5.00629C4.82243 4.76382 4.94149 4.54109 5.1163 4.36627C5.29112 4.19146 5.51385 4.0724 5.75632 4.02417C5.9988 3.97594 6.25013 4.0007 6.47854 4.0953C6.70695 4.18991 6.90217 4.35013 7.03952 4.55569C7.17687 4.76125 7.25018 5.00293 7.25018 5.25015C7.25018 5.58168 7.11849 5.89962 6.88407 6.13404C6.64965 6.36846 6.33171 6.50015 6.00018 6.50015V6.50015Z" fill="#1D1D1F"/>
</svg>
