<svg width="20" height="20" viewBox="0 0 20 20" fill="none" xmlns="http://www.w3.org/2000/svg">
<path d="M16.6593 1.66846C16.5499 1.66839 16.4415 1.68991 16.3404 1.73176C16.2392 1.77362 16.1473 1.835 16.0699 1.9124C15.9926 1.98979 15.9312 2.08168 15.8893 2.18281C15.8475 2.28395 15.8259 2.39234 15.826 2.50179V3.03239C15.1232 3.90381 14.2349 4.60755 13.2258 5.09239C12.2167 5.57723 11.1122 5.83096 9.99268 5.83512H4.99268C4.32986 5.83585 3.69439 6.09947 3.22571 6.56816C2.75702 7.03684 2.4934 7.6723 2.49268 8.33512V10.0018C2.4934 10.6646 2.75702 11.3001 3.22571 11.7688C3.69439 12.2374 4.32986 12.5011 4.99268 12.5018H5.39583L3.39356 17.1738C3.33915 17.3005 3.31706 17.4388 3.32927 17.5761C3.34148 17.7135 3.38762 17.8457 3.46354 17.9608C3.53945 18.0759 3.64277 18.1704 3.76422 18.2357C3.88566 18.3011 4.02144 18.3352 4.15934 18.3351H7.49268C7.6558 18.3352 7.81536 18.2874 7.95151 18.1975C8.08767 18.1077 8.19441 17.9798 8.25847 17.8298L10.5283 12.5335C11.5538 12.6088 12.553 12.8935 13.4642 13.3701C14.3754 13.8466 15.1792 14.505 15.826 15.3043V15.8351C15.826 16.0561 15.9138 16.2681 16.0701 16.4244C16.2264 16.5807 16.4383 16.6685 16.6593 16.6685C16.8804 16.6685 17.0923 16.5807 17.2486 16.4244C17.4049 16.2681 17.4927 16.0561 17.4927 15.8351V2.50179C17.4927 2.39234 17.4712 2.28395 17.4294 2.18281C17.3875 2.08168 17.3261 1.98979 17.2487 1.91239C17.1713 1.835 17.0795 1.77362 16.9783 1.73176C16.8772 1.68991 16.7688 1.66839 16.6593 1.66846ZM4.99268 10.8351C4.77171 10.835 4.55983 10.7471 4.40358 10.5909C4.24734 10.4346 4.15949 10.2228 4.15934 10.0018V8.33512C4.15949 8.11416 4.24734 7.90228 4.40359 7.74603C4.55983 7.58979 4.77171 7.50194 4.99268 7.50179H5.82601V10.8351H4.99268ZM6.94336 16.6685H5.42318L7.20866 12.5018H8.72884L6.94336 16.6685ZM15.826 12.9366C14.1829 11.583 12.1216 10.8404 9.99268 10.8351H7.49268V7.50175H9.99268C12.1216 7.49631 14.1829 6.75355 15.826 5.3998V12.9366Z" fill="#1D1D1F"/>
</svg>
