<svg width="20" height="20" viewBox="0 0 20 20" fill="none" xmlns="http://www.w3.org/2000/svg">
<path d="M18.033 10.8333C17.9127 10.7339 17.7669 10.6702 17.6122 10.6496C17.4575 10.629 17.3001 10.6522 17.158 10.7166C16.2768 11.1199 15.3187 11.3274 14.3496 11.325C12.557 11.3228 10.8379 10.612 9.56724 9.34755C8.29655 8.0831 7.57729 6.36755 7.56629 4.57496C7.57009 4.01316 7.64002 3.45375 7.77462 2.9083C7.80319 2.76291 7.79248 2.61254 7.74359 2.47268C7.6947 2.33281 7.60941 2.20851 7.49649 2.11257C7.38358 2.01664 7.24713 1.95254 7.10121 1.92689C6.95528 1.90124 6.80515 1.91496 6.66629 1.96663C5.3599 2.55405 4.22427 3.46393 3.36609 4.61078C2.50791 5.75763 1.95536 7.10382 1.76033 8.52287C1.56531 9.94192 1.73421 11.3873 2.25118 12.7231C2.76815 14.0589 3.61622 15.2414 4.71571 16.1595C5.8152 17.0776 7.13002 17.7011 8.53666 17.9715C9.9433 18.2418 11.3956 18.1502 12.7571 17.7052C14.1186 17.2601 15.3446 16.4763 16.32 15.4273C17.2953 14.3783 17.988 13.0985 18.333 11.7083C18.375 11.5491 18.3689 11.3811 18.3155 11.2254C18.2621 11.0696 18.1638 10.9332 18.033 10.8333ZM10.1163 16.4083C8.71776 16.3984 7.35646 15.9565 6.21878 15.1431C5.08111 14.3296 4.22268 13.1844 3.76103 11.8642C3.29937 10.5441 3.25707 9.11345 3.63991 7.7683C4.02274 6.42315 4.81201 5.22921 5.89962 4.34996V4.57496C5.90183 6.81537 6.7928 8.96338 8.37701 10.5476C9.96121 12.1318 12.1092 13.0228 14.3496 13.025C14.9379 13.0271 15.5246 12.9657 16.0996 12.8416C15.5245 13.9296 14.6633 14.8398 13.6089 15.4743C12.5545 16.1087 11.3469 16.4432 10.1163 16.4416V16.4083Z" fill="#1D1D1F"/>
</svg>
