<svg width="20" height="20" viewBox="0 0 20 20" fill="none" xmlns="http://www.w3.org/2000/svg">
<path d="M12.9322 11.4615L12.749 11.8362L12.5175 12.3099L12.0568 12.0536C11.2051 11.5798 10.4225 10.9914 9.73091 10.3048L9.72833 10.3022C9.04174 9.61061 8.45332 8.82802 7.97956 7.97637L7.75528 7.57319L8.13916 7.31728L8.48916 7.08395L8.5168 7.06552L8.54664 7.05091C8.80526 6.92428 9.00792 6.70647 9.11561 6.4394C9.22313 6.17277 9.2284 5.87585 9.13046 5.60559C8.99077 5.2292 8.87613 4.84398 8.78727 4.45245L12.9322 11.4615ZM12.9322 11.4615C12.9323 11.4615 12.9323 11.4614 12.9323 11.4614C12.9323 11.4613 12.9323 11.4613 12.9324 11.4612C13.059 11.2027 13.2768 11.0002 13.5437 10.8925C13.8099 10.7852 14.1063 10.7798 14.3762 10.8772C14.7527 11.0195 15.139 11.1345 15.5321 11.2212C15.5539 11.2262 15.5798 11.2326 15.6091 11.2399C15.7436 11.2732 15.9492 11.3241 16.1474 11.3322C16.5891 11.4197 16.9887 11.6539 17.2811 11.9972C17.5805 12.3488 17.7491 12.793 17.7582 13.2546L17.7582 15.75L17.7582 15.7523C17.7595 16.0352 17.7007 16.3153 17.5858 16.5738C17.471 16.8323 17.3026 17.0634 17.0919 17.252C16.7249 17.5788 16.2504 17.759 15.7589 17.7583H15.7582H15.4725C12.1016 17.3353 8.96621 15.8047 6.55913 13.4063C4.14483 11.0008 2.60077 7.85947 2.17085 4.47856L2.17087 4.47856L2.17015 4.47328C2.13086 4.18866 2.15337 3.89891 2.23614 3.62376C2.3189 3.34861 2.45998 3.09453 2.64977 2.8788C2.83955 2.66308 3.07359 2.49078 3.33595 2.37364C3.59831 2.25649 3.88283 2.19725 4.17015 2.19995L4.17015 2.19997H4.17484H6.67484V2.20002L6.68211 2.19992C7.15857 2.19299 7.62185 2.35641 7.98852 2.66074C8.35275 2.96306 8.59788 3.38468 8.68047 3.85056C8.70711 4.05236 8.74256 4.2557 8.78724 4.45229L12.9322 11.4615ZM17.1165 15.8339L17.1165 15.8301L17.0999 13.2364C17.1049 12.9292 17.0036 12.6295 16.813 12.3882C16.6207 12.1449 16.3496 11.9761 16.0464 11.9111L16.0302 11.9076L16.0139 11.9052C15.7987 11.8738 15.5864 11.8344 15.3768 11.7873C14.9503 11.6905 14.53 11.5681 14.1182 11.4208L13.6808 11.2644L13.4927 11.6892L12.9783 12.8507C12.9597 12.8895 12.9339 12.9243 12.9022 12.9532C12.8696 12.983 12.8313 13.006 12.7898 13.0208L12.7789 13.0247L12.7682 13.0291C12.6899 13.0613 12.6024 13.0624 12.5234 13.0325C10.067 11.8821 8.09251 9.90536 6.94482 7.44733C6.92645 7.40763 6.91608 7.3647 6.9143 7.32099C6.9125 7.27713 6.91939 7.23335 6.93457 7.19215C6.94975 7.15096 6.97291 7.11317 7.00273 7.08095C7.03255 7.04874 7.06845 7.02273 7.10835 7.00442L7.10835 7.00443L7.11039 7.00348L8.27706 6.46181L8.69844 6.26617L8.53423 5.83158C8.38386 5.43359 8.26266 5.02519 8.17158 4.60961L8.17159 4.60961L8.17098 4.60688C8.12379 4.39715 8.08442 4.18461 8.0529 3.96924L8.05051 3.9529L8.04705 3.93676C7.982 3.63352 7.81327 3.36244 7.56991 3.17019L7.25996 3.56253L7.56991 3.17019C7.32817 2.97922 7.02782 2.87789 6.71993 2.8833L4.22484 2.8833L4.22421 2.88331C4.03489 2.88355 3.8478 2.9241 3.67538 3.00226C3.50295 3.08043 3.34915 3.19441 3.22421 3.33664L3.22413 3.33657L3.21744 3.3445C3.09479 3.4901 3.00293 3.65905 2.94741 3.84115C2.89189 4.02325 2.87387 4.21472 2.89443 4.40398L2.89438 4.40399L2.89527 4.41121C3.29421 7.6442 4.75811 10.6524 7.05605 12.9613C9.35398 15.2701 12.3552 16.7483 15.5863 17.1626L15.5877 17.1628C15.7797 17.1868 15.9745 17.1701 16.1595 17.1137C16.3446 17.0572 16.5156 16.9624 16.6615 16.8354L16.6632 16.8339C16.8054 16.709 16.9194 16.5552 16.9975 16.3828C17.0757 16.2103 17.1163 16.0233 17.1165 15.8339Z" stroke="#EE844F"/>
</svg>
