<svg width="20" height="20" viewBox="0 0 20 20" fill="none" xmlns="http://www.w3.org/2000/svg">
<path d="M16.3583 3.04172C16.2614 2.9634 16.1483 2.90778 16.0272 2.87894C15.906 2.8501 15.78 2.84877 15.6583 2.87505C14.7678 3.06167 13.8485 3.06405 12.9571 2.88204C12.0657 2.70003 11.221 2.33748 10.4749 1.81672C10.3354 1.71995 10.1697 1.66809 9.99992 1.66809C9.83015 1.66809 9.66442 1.71995 9.52492 1.81672C8.77889 2.33748 7.93415 2.70003 7.04273 2.88204C6.15131 3.06405 5.23206 3.06167 4.34159 2.87505C4.21987 2.84877 4.09381 2.8501 3.97267 2.87894C3.85154 2.90778 3.7384 2.9634 3.64159 3.04172C3.54491 3.12015 3.46702 3.21925 3.41367 3.33173C3.36031 3.44422 3.33283 3.56722 3.33326 3.69172V9.90005C3.33252 11.0948 3.61723 12.2725 4.1637 13.335C4.71017 14.3975 5.50257 15.3141 6.47492 16.0084L9.51659 18.1751C9.65773 18.2755 9.82667 18.3295 9.99992 18.3295C10.1732 18.3295 10.3421 18.2755 10.4833 18.1751L13.5249 16.0084C14.4973 15.3141 15.2897 14.3975 15.8361 13.335C16.3826 12.2725 16.6673 11.0948 16.6666 9.90005V3.69172C16.667 3.56722 16.6395 3.44422 16.5862 3.33173C16.5328 3.21925 16.4549 3.12015 16.3583 3.04172ZM14.9999 9.90005C15.0006 10.829 14.7793 11.7447 14.3546 12.5709C13.9299 13.3971 13.3141 14.1099 12.5583 14.6501L9.99992 16.4751L7.44159 14.6501C6.68579 14.1099 6.06991 13.3971 5.64521 12.5709C5.22052 11.7447 4.99928 10.829 4.99992 9.90005V4.65005C6.74695 4.79958 8.49662 4.39424 9.99992 3.49172C11.5032 4.39424 13.2529 4.79958 14.9999 4.65005V9.90005Z" fill="#1D1D1F"/>
</svg>
